Orbitron-Light-Quadratic.ufo
<glyph name="numbersign" format="2">
  <advance width="797"/>
  <unicode hex="0023"/>
  <outline>
    <contour>
      <point x="773" y="555" type="line"/>
      <point x="677" y="555" type="line"/>
      <point x="734" y="719" type="line"/>
      <point x="653" y="719" type="line"/>
      <point x="597" y="555" type="line"/>
      <point x="336" y="555" type="line"/>
      <point x="393" y="719" type="line"/>
      <point x="312" y="719" type="line"/>
      <point x="256" y="555" type="line"/>
      <point x="64" y="555" type="line"/>
      <point x="64" y="473" type="line"/>
      <point x="230" y="473" type="line"/>
      <point x="159" y="253" type="line"/>
      <point x="32" y="253" type="line"/>
      <point x="32" y="171" type="line"/>
      <point x="133" y="171" type="line"/>
      <point x="79" y="0" type="line"/>
      <point x="161" y="0" type="line"/>
      <point x="173.6865671641791" y="41.04477611940298"/>
      <point x="202.05970149253733" y="130.70149253731344"/>
      <point x="214" y="171" type="qcurve"/>
      <point x="474" y="171" type="line"/>
      <point x="420" y="0" type="line"/>
      <point x="502" y="0" type="line"/>
      <point x="514.6865671641791" y="41.04477611940298"/>
      <point x="543.0597014925373" y="130.70149253731344"/>
      <point x="555" y="171" type="qcurve"/>
      <point x="740" y="171" type="line"/>
      <point x="740" y="253" type="line"/>
      <point x="581" y="253" type="line"/>
      <point x="652" y="473" type="line"/>
      <point x="773" y="473" type="line"/>
    </contour>
    <contour>
      <point x="241" y="253" type="line"/>
      <point x="311" y="473" type="line"/>
      <point x="571" y="473" type="line"/>
      <point x="500" y="253" type="line"/>
    </contour>
  </outline>
</glyph>
<glyph name="dollar" format="2">
  <advance width="788"/>
  <unicode hex="0024"/>
  <outline>
    <contour>
      <point x="762" y="599" type="line" smooth="yes"/>
      <point x="762.0" y="649.7462686567164"/>
      <point x="690.7462686567164" y="721.0"/>
      <point x="640" y="721" type="qcurve" smooth="yes"/>
      <point x="439" y="721" type="line"/>
      <point x="439" y="835" type="line"/>
      <point x="357" y="835" type="line"/>
      <point x="357" y="721" type="line"/>
      <point x="155" y="721" type="line" smooth="yes"/>
      <point x="105.0" y="721.0"/>
      <point x="34.0" y="649.7462686567164"/>
      <point x="34" y="599" type="qcurve" smooth="yes"/>
      <point x="34" y="441" type="line" smooth="yes"/>
      <point x="34.0" y="390.25373134328356"/>
      <point x="105.0" y="320.0"/>
      <point x="155" y="320" type="qcurve" smooth="yes"/>
      <point x="357" y="320" type="line"/>
      <point x="357" y="82" type="line"/>
      <point x="155" y="82" type="line" smooth="yes"/>
      <point x="139.32835820895522" y="82.0"/>
      <point x="116.0" y="105.32835820895522"/>
      <point x="116" y="121" type="qcurve" smooth="yes"/>
      <point x="116" y="150" type="line"/>
      <point x="34" y="150" type="line"/>
      <point x="34" y="121" type="line" smooth="yes"/>
      <point x="34.0" y="71.0"/>
      <point x="105.0" y="0.0"/>
      <point x="155" y="0" type="qcurve" smooth="yes"/>
      <point x="357" y="0" type="line"/>
      <point x="357" y="-114" type="line"/>
      <point x="439" y="-114" type="line"/>
      <point x="439" y="0" type="line"/>
      <point x="640" y="0" type="line" smooth="yes"/>
      <point x="690.7462686567164" y="0.0"/>
      <point x="762.0" y="71.0"/>
      <point x="762" y="121" type="qcurve" smooth="yes"/>
      <point x="762" y="281" type="line" smooth="yes"/>
      <point x="762.0" y="331.0"/>
      <point x="690.7462686567164" y="402.0"/>
      <point x="640" y="402" type="qcurve" smooth="yes"/>
      <point x="439" y="402" type="line"/>
      <point x="439" y="638" type="line"/>
      <point x="640" y="638" type="line" smooth="yes"/>
      <point x="655.6716417910447" y="638.0"/>
      <point x="679.0" y="614.6716417910447"/>
      <point x="679" y="599" type="qcurve" smooth="yes"/>
      <point x="679" y="571" type="line"/>
      <point x="762" y="571" type="line"/>
    </contour>
    <contour>
      <point x="640" y="320" type="line" smooth="yes"/>
      <point x="655.6716417910447" y="320.0"/>
      <point x="679.0" y="296.67164179104475"/>
      <point x="679" y="281" type="qcurve" smooth="yes"/>
      <point x="679" y="121" type="line" smooth="yes"/>
      <point x="679.0" y="105.32835820895522"/>
      <point x="655.6716417910447" y="82.0"/>
      <point x="640" y="82" type="qcurve" smooth="yes"/>
      <point x="439" y="82" type="line"/>
      <point x="439" y="320" type="line"/>
    </contour>
    <contour>
      <point x="357" y="402" type="line"/>
      <point x="155" y="402" type="line" smooth="yes"/>
      <point x="139.32835820895522" y="402.0"/>
      <point x="116.0" y="425.32835820895525"/>
      <point x="116" y="441" type="qcurve" smooth="yes"/>
      <point x="116" y="599" type="line" smooth="yes"/>
      <point x="116.0" y="614.6716417910447"/>
      <point x="139.32835820895522" y="638.0"/>
      <point x="155" y="638" type="qcurve" smooth="yes"/>
      <point x="357" y="638" type="line"/>
    </contour>
  </outline>
</glyph>
<glyph name="percent" format="2">
  <advance width="966"/>
  <unicode hex="0025"/>
  <outline>
    <contour>
      <point x="137" y="0" type="line"/>
      <point x="865" y="614" type="line"/>
      <point x="865" y="721" type="line"/>
      <point x="137" y="108" type="line"/>
    </contour>
    <contour>
      <point x="170" y="720" type="line" smooth="yes"/>
      <point x="119.25373134328359" y="720.0"/>
      <point x="48.0" y="648.7462686567164"/>
      <point x="48" y="598" type="qcurve" smooth="yes"/>
      <point x="48" y="514" type="line" smooth="yes"/>
      <point x="48.0" y="464.0"/>
      <point x="119.25373134328359" y="393.0"/>
      <point x="170" y="393" type="qcurve" smooth="yes"/>
      <point x="264" y="393" type="line" smooth="yes"/>
      <point x="314.74626865671644" y="393.0"/>
      <point x="386.0" y="464.0"/>
      <point x="386" y="514" type="qcurve" smooth="yes"/>
      <point x="386" y="598" type="line" smooth="yes"/>
      <point x="386.0" y="648.7462686567164"/>
      <point x="314.74626865671644" y="720.0"/>
      <point x="264" y="720" type="qcurve" smooth="yes"/>
    </contour>
    <contour>
      <point x="148" y="454" type="line" smooth="yes"/>
      <point x="132.32835820895522" y="454.0"/>
      <point x="109.0" y="477.32835820895525"/>
      <point x="109" y="493" type="qcurve" smooth="yes"/>
      <point x="109" y="619" type="line" smooth="yes"/>
      <point x="109.0" y="635.4179104477612"/>
      <point x="132.32835820895522" y="658.0"/>
      <point x="148" y="658" type="qcurve" smooth="yes"/>
      <point x="286" y="658" type="line" smooth="yes"/>
      <point x="301.67164179104475" y="658.0"/>
      <point x="325.0" y="635.4179104477612"/>
      <point x="325" y="619" type="qcurve" smooth="yes"/>
      <point x="325" y="493" type="line" smooth="yes"/>
      <point x="325.0" y="477.32835820895525"/>
      <point x="301.67164179104475" y="454.0"/>
      <point x="286" y="454" type="qcurve" smooth="yes"/>
    </contour>
    <contour>
      <point x="716" y="326" type="line" smooth="yes"/>
      <point x="665.2537313432836" y="326.0"/>
      <point x="595.0" y="255.0"/>
      <point x="595" y="205" type="qcurve" smooth="yes"/>
      <point x="595" y="120" type="line" smooth="yes"/>
      <point x="595.0" y="70.0"/>
      <point x="665.2537313432836" y="-1.0"/>
      <point x="716" y="-1" type="qcurve" smooth="yes"/>
      <point x="811" y="-1" type="line" smooth="yes"/>
      <point x="861.0" y="-1.0"/>
      <point x="932.0" y="70.0"/>
      <point x="932" y="120" type="qcurve" smooth="yes"/>
      <point x="932" y="205" type="line" smooth="yes"/>
      <point x="932.0" y="255.0"/>
      <point x="861.0" y="326.0"/>
      <point x="811" y="326" type="qcurve" smooth="yes"/>
    </contour>
    <contour>
      <point x="695" y="60" type="line" smooth="yes"/>
      <point x="679.3283582089553" y="60.0"/>
      <point x="656.0" y="83.32835820895522"/>
      <point x="656" y="99" type="qcurve" smooth="yes"/>
      <point x="656" y="226" type="line" smooth="yes"/>
      <point x="656.0" y="241.67164179104478"/>
      <point x="679.3283582089553" y="265.0"/>
      <point x="695" y="265" type="qcurve" smooth="yes"/>
      <point x="832" y="265" type="line" smooth="yes"/>
      <point x="847.6716417910447" y="265.0"/>
      <point x="871.0" y="241.67164179104478"/>
      <point x="871" y="226" type="qcurve" smooth="yes"/>
      <point x="871" y="99" type="line" smooth="yes"/>
      <point x="871.0" y="83.32835820895522"/>
      <point x="847.6716417910447" y="60.0"/>
      <point x="832" y="60" type="qcurve" smooth="yes"/>
    </contour>
  </outline>
</glyph>
<glyph name="ampersand" format="2">
  <advance width="938"/>
  <unicode hex="0026"/>
  <outline>
    <contour>
      <point x="780" y="167" type="line"/>
      <point x="780" y="333" type="line"/>
      <point x="698" y="333" type="line"/>
      <point x="698" y="194" type="line"/>
      <point x="177" y="457" type="line"/>
      <point x="177" y="596" type="line" smooth="yes"/>
      <point x="177.0" y="611.6716417910447"/>
      <point x="200.32835820895522" y="635.0"/>
      <point x="216" y="635" type="qcurve" smooth="yes"/>
      <point x="627" y="635" type="line" smooth="yes"/>
      <point x="643.4179104477612" y="635.0"/>
      <point x="666.0" y="611.6716417910447"/>
      <point x="666" y="596" type="qcurve" smooth="yes"/>
      <point x="666" y="562" type="line"/>
      <point x="749" y="562" type="line"/>
      <point x="749" y="617" type="line"/>
      <point x="737.8059701492538" y="655.8059701492538"/>
      <point x="668.7910447761194" y="719.0"/>
      <point x="627" y="719" type="qcurve" smooth="yes"/>
      <point x="216" y="719" type="line" smooth="yes"/>
      <point x="166.0" y="719.0"/>
      <point x="95.0" y="647.7462686567164"/>
      <point x="95" y="597" type="qcurve" smooth="yes"/>
      <point x="95" y="497" type="line" smooth="yes"/>
      <point x="95.0" y="476.85074626865674"/>
      <point x="116.17910447761194" y="427.86567164179104"/>
      <point x="152" y="401" type="qcurve"/>
      <point x="102.74626865671642" y="401.0"/>
      <point x="53.0" y="353.910447761194"/>
      <point x="53" y="336" type="qcurve" smooth="yes"/>
      <point x="53" y="121" type="line" smooth="yes"/>
      <point x="53.0" y="71.0"/>
      <point x="124.0" y="0.0"/>
      <point x="174" y="0" type="qcurve" smooth="yes"/>
      <point x="659" y="0" type="line" smooth="yes"/>
      <point x="697.0597014925373" y="0.0"/>
      <point x="760.5820895522388" y="51.95522388059702"/>
      <point x="777" y="93" type="qcurve"/>
      <point x="914" y="16" type="line"/>
      <point x="914" y="88" type="line"/>
    </contour>
    <contour>
      <point x="174" y="82" type="line" smooth="yes"/>
      <point x="158.32835820895522" y="82.0"/>
      <point x="135.0" y="105.32835820895522"/>
      <point x="135" y="121" type="qcurve" smooth="yes"/>
      <point x="135" y="336" type="line" smooth="yes"/>
      <point x="135.0" y="351.67164179104475"/>
      <point x="158.32835820895522" y="375.0"/>
      <point x="174" y="375" type="qcurve" smooth="yes"/>
      <point x="189" y="375" type="line"/>
      <point x="699" y="118" type="line"/>
      <point x="692.2835820895523" y="102.32835820895522"/>
      <point x="669.4477611940298" y="82.0"/>
      <point x="659" y="82" type="qcurve" smooth="yes"/>
    </contour>
  </outline>
</glyph>
<glyph name="parenleft" format="2">
  <advance width="277"/>
  <unicode hex="0028"/>
  <outline>
    <contour>
      <point x="173" y="82" type="line" smooth="yes"/>
      <point x="157.32835820895522" y="82.0"/>
      <point x="134.0" y="105.32835820895522"/>
      <point x="134" y="121" type="qcurve" smooth="yes"/>
      <point x="134" y="598" type="line" smooth="yes"/>
      <point x="134.0" y="613.6716417910447"/>
      <point x="157.32835820895522" y="637.0"/>
      <point x="173" y="637" type="qcurve" smooth="yes"/>
      <point x="202" y="637" type="line"/>
      <point x="202" y="720" type="line"/>
      <point x="173" y="720" type="line" smooth="yes"/>
      <point x="123.0" y="720.0"/>
      <point x="52.0" y="648.7462686567164"/>
      <point x="52" y="598" type="qcurve" smooth="yes"/>
      <point x="52" y="121" type="line" smooth="yes"/>
      <point x="52.0" y="71.0"/>
      <point x="123.0" y="0.0"/>
      <point x="173" y="0" type="qcurve" smooth="yes"/>
      <point x="202" y="0" type="line"/>
      <point x="202" y="82" type="line"/>
    </contour>
  </outline>
</glyph>
<glyph name="parenright" format="2">
  <advance width="278"/>
  <unicode hex="0029"/>
  <outline>
    <contour>
      <point x="56" y="0" type="line"/>
      <point x="84" y="0" type="line" smooth="yes"/>
      <point x="134.0" y="0.0"/>
      <point x="206.0" y="71.0"/>
      <point x="206" y="121" type="qcurve" smooth="yes"/>
      <point x="206" y="598" type="line" smooth="yes"/>
      <point x="206.0" y="648.7462686567164"/>
      <point x="134.0" y="720.0"/>
      <point x="84" y="720" type="qcurve" smooth="yes"/>
      <point x="56" y="720" type="line"/>
      <point x="56" y="637" type="line"/>
      <point x="84" y="637" type="line" smooth="yes"/>
      <point x="100.41791044776119" y="637.0"/>
      <point x="123.0" y="613.6716417910447"/>
      <point x="123" y="598" type="qcurve" smooth="yes"/>
      <point x="123" y="121" type="line" smooth="yes"/>
      <point x="123.0" y="105.32835820895522"/>
      <point x="100.41791044776119" y="82.0"/>
      <point x="84" y="82" type="qcurve" smooth="yes"/>
      <point x="56" y="82" type="line"/>
    </contour>
  </outline>
</glyph>
<glyph name="asterisk" format="2">
  <advance width="491"/>
  <unicode hex="002A"/>
  <outline>
    <contour>
      <point x="423" y="614" type="line"/>
      <point x="278" y="566" type="line"/>
      <point x="278" y="719" type="line"/>
      <point x="196" y="719" type="line"/>
      <point x="196" y="565" type="line"/>
      <point x="49" y="614" type="line"/>
      <point x="25" y="535" type="line"/>
      <point x="170" y="488" type="line"/>
      <point x="80" y="362" type="line"/>
      <point x="98.65671641791045" y="348.56716417910445"/>
      <point x="126.85074626865672" y="329.92537313432837"/>
      <point x="147" y="315" type="qcurve"/>
      <point x="237" y="438" type="line"/>
      <point x="328" y="315" type="line"/>
      <point x="346.65671641791045" y="327.6865671641791"/>
      <point x="373.85074626865674" y="348.82089552238807"/>
      <point x="394" y="363" type="qcurve"/>
      <point x="373.1044776119403" y="391.35820895522386"/>
      <point x="321.910447761194" y="461.8805970149254"/>
      <point x="304" y="488" type="qcurve"/>
      <point x="450" y="535" type="line"/>
    </contour>
  </outline>
</glyph>
<glyph name="comma" format="2">
  <advance width="193"/>
  <unicode hex="002C"/>
  <outline>
    <contour>
      <point x="54" y="82" type="line"/>
      <point x="54" y="-131" type="line"/>
      <point x="89.82089552238806" y="-119.05970149253731"/>
      <point x="136.0" y="-56.298507462686565"/>
      <point x="136" y="-16" type="qcurve" smooth="yes"/>
      <point x="136" y="82" type="line"/>
    </contour>
  </outline>
</glyph>
<glyph name="zero" format="2">
  <advance width="834"/>
  <unicode hex="0030"/>
  <outline>
    <contour>
      <point x="178" y="720" type="line" smooth="yes"/>
      <point x="127.25373134328359" y="720.0"/>
      <point x="57.0" y="648.7462686567164"/>
      <point x="57" y="598" type="qcurve" smooth="yes"/>
      <point x="57" y="121" type="line" smooth="yes"/>
      <point x="57.0" y="71.0"/>
      <point x="127.25373134328359" y="0.0"/>
      <point x="178" y="0" type="qcurve" smooth="yes"/>
      <point x="663" y="0" type="line" smooth="yes"/>
      <point x="713.0" y="0.0"/>
      <point x="784.0" y="71.0"/>
      <point x="784" y="121" type="qcurve" smooth="yes"/>
      <point x="784" y="598" type="line" smooth="yes"/>
      <point x="784.0" y="648.7462686567164"/>
      <point x="713.0" y="720.0"/>
      <point x="663" y="720" type="qcurve" smooth="yes"/>
    </contour>
    <contour>
      <point x="691" y="637" type="line"/>
      <point x="139" y="181" type="line"/>
      <point x="139" y="598" type="line" smooth="yes"/>
      <point x="139.0" y="613.6716417910447"/>
      <point x="162.32835820895522" y="637.0"/>
      <point x="178" y="637" type="qcurve" smooth="yes"/>
    </contour>
    <contour>
      <point x="149" y="82" type="line"/>
      <point x="702" y="538" type="line"/>
      <point x="702" y="121" type="line" smooth="yes"/>
      <point x="702.0" y="105.32835820895522"/>
      <point x="678.6716417910447" y="82.0"/>
      <point x="663" y="82" type="qcurve" smooth="yes"/>
    </contour>
  </outline>
</glyph>
<glyph name="one" format="2">
  <advance width="391"/>
  <unicode hex="0031"/>
  <outline>
    <contour>
      <point x="1" y="495" type="line"/>
      <point x="108" y="495" type="line"/>
      <point x="129.6417910447761" y="521.8656716417911"/>
      <point x="198.8507462686567" y="602.6268656716418"/>
      <point x="219" y="628" type="qcurve"/>
      <point x="219" y="0" type="line"/>
      <point x="302" y="0" type="line"/>
      <point x="302" y="720" type="line"/>
      <point x="190" y="720" type="line"/>
    </contour>
  </outline>
</glyph>
<glyph name="two" format="2">
  <advance width="830"/>
  <unicode hex="0032"/>
  <outline>
    <contour>
      <point x="178" y="721" type="line" smooth="yes"/>
      <point x="127.25373134328359" y="721.0"/>
      <point x="57.0" y="649.7462686567164"/>
      <point x="57" y="599" type="qcurve" smooth="yes"/>
      <point x="57" y="571" type="line"/>
      <point x="139" y="571" type="line"/>
      <point x="139" y="599" type="line" smooth="yes"/>
      <point x="139.0" y="614.6716417910447"/>
      <point x="162.32835820895522" y="638.0"/>
      <point x="178" y="638" type="qcurve" smooth="yes"/>
      <point x="663" y="638" type="line" smooth="yes"/>
      <point x="678.6716417910447" y="638.0"/>
      <point x="702.0" y="614.6716417910447"/>
      <point x="702" y="599" type="qcurve" smooth="yes"/>
      <point x="702" y="430" type="line" smooth="yes"/>
      <point x="702.0" y="414.32835820895525"/>
      <point x="678.6716417910447" y="391.0"/>
      <point x="663" y="391" type="qcurve" smooth="yes"/>
      <point x="178" y="391" type="line" smooth="yes"/>
      <point x="127.25373134328359" y="391.0"/>
      <point x="57.0" y="320.74626865671644"/>
      <point x="57" y="270" type="qcurve" smooth="yes"/>
      <point x="57" y="0" type="line"/>
      <point x="784" y="0" type="line"/>
      <point x="784" y="82" type="line"/>
      <point x="178" y="82" type="line" smooth="yes"/>
      <point x="162.32835820895522" y="82.0"/>
      <point x="139.0" y="105.32835820895522"/>
      <point x="139" y="121" type="qcurve" smooth="yes"/>
      <point x="139" y="270" type="line" smooth="yes"/>
      <point x="139.0" y="285.67164179104475"/>
      <point x="162.32835820895522" y="309.0"/>
      <point x="178" y="309" type="qcurve" smooth="yes"/>
      <point x="663" y="309" type="line" smooth="yes"/>
      <point x="713.0" y="309.0"/>
      <point x="784.0" y="380.0"/>
      <point x="784" y="430" type="qcurve" smooth="yes"/>
      <point x="784" y="599" type="line" smooth="yes"/>
      <point x="784.0" y="649.7462686567164"/>
      <point x="713.0" y="721.0"/>
      <point x="663" y="721" type="qcurve" smooth="yes"/>
    </contour>
  </outline>
</glyph>
<glyph name="three" format="2">
  <advance width="826"/>
  <unicode hex="0033"/>
  <outline>
    <contour>
      <point x="737" y="396" type="line"/>
      <point x="742.223880597015" y="407.1940298507463"/>
      <point x="749.0" y="433.82089552238807"/>
      <point x="749" y="448" type="qcurve" smooth="yes"/>
      <point x="749" y="599" type="line" smooth="yes"/>
      <point x="749.0" y="649.7462686567164"/>
      <point x="678.7462686567164" y="721.0"/>
      <point x="628" y="721" type="qcurve" smooth="yes"/>
      <point x="175" y="721" type="line" smooth="yes"/>
      <point x="124.25373134328359" y="721.0"/>
      <point x="53.0" y="649.7462686567164"/>
      <point x="53" y="599" type="qcurve" smooth="yes"/>
      <point x="53" y="573" type="line"/>
      <point x="136" y="573" type="line"/>
      <point x="136" y="599" type="line" smooth="yes"/>
      <point x="136.0" y="614.6716417910447"/>
      <point x="159.32835820895522" y="638.0"/>
      <point x="175" y="638" type="qcurve" smooth="yes"/>
      <point x="628" y="638" type="line" smooth="yes"/>
      <point x="643.6716417910447" y="638.0"/>
      <point x="667.0" y="614.6716417910447"/>
      <point x="667" y="599" type="qcurve" smooth="yes"/>
      <point x="667" y="448" type="line" smooth="yes"/>
      <point x="667.0" y="432.32835820895525"/>
      <point x="643.6716417910447" y="409.0"/>
      <point x="628" y="409" type="qcurve" smooth="yes"/>
      <point x="191" y="409" type="line"/>
      <point x="191" y="327" type="line"/>
      <point x="660" y="327" type="line" smooth="yes"/>
      <point x="675.6716417910447" y="327.0"/>
      <point x="699.0" y="303.67164179104475"/>
      <point x="699" y="288" type="qcurve" smooth="yes"/>
      <point x="699" y="121" type="line" smooth="yes"/>
      <point x="699.0" y="105.32835820895522"/>
      <point x="675.6716417910447" y="82.0"/>
      <point x="660" y="82" type="qcurve" smooth="yes"/>
      <point x="175" y="82" type="line" smooth="yes"/>
      <point x="159.32835820895522" y="82.0"/>
      <point x="136.0" y="105.32835820895522"/>
      <point x="136" y="121" type="qcurve" smooth="yes"/>
      <point x="136" y="137" type="line"/>
      <point x="53" y="137" type="line"/>
      <point x="53" y="121" type="line" smooth="yes"/>
      <point x="53.0" y="71.0"/>
      <point x="124.25373134328359" y="0.0"/>
      <point x="175" y="0" type="qcurve" smooth="yes"/>
      <point x="660" y="0" type="line" smooth="yes"/>
      <point x="710.0" y="0.0"/>
      <point x="781.0" y="71.0"/>
      <point x="781" y="121" type="qcurve" smooth="yes"/>
      <point x="781" y="288" type="line" smooth="yes"/>
      <point x="781.0" y="314.1194029850746"/>
      <point x="758.9104477611941" y="361.5820895522388"/>
      <point x="741" y="378" type="qcurve"/>
    </contour>
  </outline>
</glyph>
<glyph name="four" format="2">
  <advance width="730"/>
  <unicode hex="0034"/>
  <outline>
    <contour>
      <point x="590" y="268" type="line"/>
      <point x="590" y="721" type="line"/>
      <point x="498" y="721" type="line"/>
      <point x="375.6119402985075" y="609.0597014925373"/>
      <point x="129.13432835820896" y="389.19402985074623"/>
      <point x="6" y="278" type="qcurve"/>
      <point x="6" y="186" type="line"/>
      <point x="508" y="186" type="line"/>
      <point x="508" y="0" type="line"/>
      <point x="590" y="0" type="line"/>
      <point x="590" y="186" type="line"/>
      <point x="702" y="186" type="line"/>
      <point x="702" y="268" type="line"/>
    </contour>
    <contour>
      <point x="508" y="590" type="line"/>
      <point x="508" y="268" type="line"/>
      <point x="111" y="268" type="line"/>
    </contour>
  </outline>
</glyph>
<glyph name="five" format="2">
  <advance width="830"/>
  <unicode hex="0035"/>
  <outline>
    <contour>
      <point x="139" y="599" type="line" smooth="yes"/>
      <point x="139.0" y="614.6716417910447"/>
      <point x="162.32835820895522" y="638.0"/>
      <point x="178" y="638" type="qcurve" smooth="yes"/>
      <point x="784" y="638" type="line"/>
      <point x="784" y="721" type="line"/>
      <point x="57" y="721" type="line"/>
      <point x="57" y="330" type="line"/>
      <point x="663" y="330" type="line" smooth="yes"/>
      <point x="678.6716417910447" y="330.0"/>
      <point x="702.0" y="306.67164179104475"/>
      <point x="702" y="291" type="qcurve" smooth="yes"/>
      <point x="702" y="121" type="line" smooth="yes"/>
      <point x="702.0" y="105.32835820895522"/>
      <point x="678.6716417910447" y="82.0"/>
      <point x="663" y="82" type="qcurve" smooth="yes"/>
      <point x="178" y="82" type="line" smooth="yes"/>
      <point x="162.32835820895522" y="82.0"/>
      <point x="139.0" y="105.32835820895522"/>
      <point x="139" y="121" type="qcurve" smooth="yes"/>
      <point x="139" y="150" type="line"/>
      <point x="57" y="150" type="line"/>
      <point x="57" y="121" type="line" smooth="yes"/>
      <point x="57.0" y="71.0"/>
      <point x="127.25373134328359" y="0.0"/>
      <point x="178" y="0" type="qcurve" smooth="yes"/>
      <point x="663" y="0" type="line" smooth="yes"/>
      <point x="713.0" y="0.0"/>
      <point x="784.0" y="71.0"/>
      <point x="784" y="121" type="qcurve" smooth="yes"/>
      <point x="784" y="291" type="line" smooth="yes"/>
      <point x="784.0" y="341.74626865671644"/>
      <point x="713.0" y="412.0"/>
      <point x="663" y="412" type="qcurve" smooth="yes"/>
      <point x="178" y="412" type="line" smooth="yes"/>
      <point x="162.32835820895522" y="412.0"/>
      <point x="139.0" y="435.5820895522388"/>
      <point x="139" y="452" type="qcurve" smooth="yes"/>
    </contour>
  </outline>
</glyph>
<glyph name="six" format="2">
  <advance width="820"/>
  <unicode hex="0036"/>
  <outline>
    <contour>
      <point x="178" y="415" type="line" smooth="yes"/>
      <point x="162.32835820895522" y="415.0"/>
      <point x="139.0" y="438.5820895522388"/>
      <point x="139" y="455" type="qcurve" smooth="yes"/>
      <point x="139" y="599" type="line" smooth="yes"/>
      <point x="139.0" y="614.6716417910447"/>
      <point x="162.32835820895522" y="638.0"/>
      <point x="178" y="638" type="qcurve" smooth="yes"/>
      <point x="658" y="638" type="line"/>
      <point x="658" y="721" type="line"/>
      <point x="178" y="721" type="line" smooth="yes"/>
      <point x="127.25373134328359" y="721.0"/>
      <point x="57.0" y="649.7462686567164"/>
      <point x="57" y="599" type="qcurve" smooth="yes"/>
      <point x="57" y="121" type="line" smooth="yes"/>
      <point x="57.0" y="71.0"/>
      <point x="127.25373134328359" y="0.0"/>
      <point x="178" y="0" type="qcurve" smooth="yes"/>
      <point x="663" y="0" type="line" smooth="yes"/>
      <point x="713.0" y="0.0"/>
      <point x="784.0" y="71.0"/>
      <point x="784" y="121" type="qcurve" smooth="yes"/>
      <point x="784" y="294" type="line" smooth="yes"/>
      <point x="784.0" y="344.74626865671644"/>
      <point x="713.0" y="415.0"/>
      <point x="663" y="415" type="qcurve" smooth="yes"/>
    </contour>
    <contour>
      <point x="702" y="121" type="line" smooth="yes"/>
      <point x="702.0" y="105.32835820895522"/>
      <point x="678.6716417910447" y="82.0"/>
      <point x="663" y="82" type="qcurve" smooth="yes"/>
      <point x="178" y="82" type="line" smooth="yes"/>
      <point x="162.32835820895522" y="82.0"/>
      <point x="139.0" y="105.32835820895522"/>
      <point x="139" y="121" type="qcurve" smooth="yes"/>
      <point x="139" y="333" type="line"/>
      <point x="663" y="333" type="line" smooth="yes"/>
      <point x="678.6716417910447" y="333.0"/>
      <point x="702.0" y="309.67164179104475"/>
      <point x="702" y="294" type="qcurve" smooth="yes"/>
    </contour>
  </outline>
</glyph>
<glyph name="seven" format="2">
  <advance width="660"/>
  <unicode hex="0037"/>
  <outline>
    <contour>
      <point x="483" y="638" type="line" smooth="yes"/>
      <point x="498.67164179104475" y="638.0"/>
      <point x="522.0" y="614.6716417910447"/>
      <point x="522" y="599" type="qcurve" smooth="yes"/>
      <point x="522" y="0" type="line"/>
      <point x="604" y="0" type="line"/>
      <point x="604" y="599" type="line" smooth="yes"/>
      <point x="604.0" y="649.7462686567164"/>
      <point x="533.0" y="721.0"/>
      <point x="483" y="721" type="qcurve" smooth="yes"/>
      <point x="3" y="721" type="line"/>
      <point x="3" y="638" type="line"/>
    </contour>
  </outline>
</glyph>
<glyph name="eight" format="2">
  <advance width="834"/>
  <unicode hex="0038"/>
  <outline>
    <contour>
      <point x="784" y="619" type="line"/>
      <point x="772.8059701492538" y="657.8059701492538"/>
      <point x="704.7910447761194" y="721.0"/>
      <point x="663" y="721" type="qcurve" smooth="yes"/>
      <point x="178" y="721" type="line" smooth="yes"/>
      <point x="127.25373134328359" y="721.0"/>
      <point x="57.0" y="649.7462686567164"/>
      <point x="57" y="599" type="qcurve" smooth="yes"/>
      <point x="57" y="452" type="line" smooth="yes"/>
      <point x="57.0" y="431.85074626865674"/>
      <point x="72.82089552238806" y="390.4029850746269"/>
      <point x="87" y="371" type="qcurve"/>
      <point x="72.82089552238806" y="352.34328358208955"/>
      <point x="57.0" y="311.14925373134326"/>
      <point x="57" y="291" type="qcurve" smooth="yes"/>
      <point x="57" y="121" type="line" smooth="yes"/>
      <point x="57.0" y="71.0"/>
      <point x="127.25373134328359" y="0.0"/>
      <point x="178" y="0" type="qcurve" smooth="yes"/>
      <point x="663" y="0" type="line" smooth="yes"/>
      <point x="713.0" y="0.0"/>
      <point x="784.0" y="71.0"/>
      <point x="784" y="121" type="qcurve" smooth="yes"/>
      <point x="784" y="291" type="line" smooth="yes"/>
      <point x="784.0" y="311.14925373134326"/>
      <point x="768.179104477612" y="352.34328358208955"/>
      <point x="754" y="371" type="qcurve"/>
      <point x="768.179104477612" y="390.4029850746269"/>
      <point x="784.0" y="431.85074626865674"/>
      <point x="784" y="452" type="qcurve" smooth="yes"/>
    </contour>
    <contour>
      <point x="702" y="121" type="line" smooth="yes"/>
      <point x="702.0" y="105.32835820895522"/>
      <point x="678.6716417910447" y="82.0"/>
      <point x="663" y="82" type="qcurve" smooth="yes"/>
      <point x="178" y="82" type="line" smooth="yes"/>
      <point x="162.32835820895522" y="82.0"/>
      <point x="139.0" y="105.32835820895522"/>
      <point x="139" y="121" type="qcurve" smooth="yes"/>
      <point x="139" y="291" type="line" smooth="yes"/>
      <point x="139.0" y="306.67164179104475"/>
      <point x="162.32835820895522" y="330.0"/>
      <point x="178" y="330" type="qcurve" smooth="yes"/>
      <point x="663" y="330" type="line" smooth="yes"/>
      <point x="678.6716417910447" y="330.0"/>
      <point x="702.0" y="306.67164179104475"/>
      <point x="702" y="291" type="qcurve" smooth="yes"/>
    </contour>
    <contour>
      <point x="702" y="440" type="line" smooth="yes"/>
      <point x="702.0" y="424.32835820895525"/>
      <point x="678.6716417910447" y="401.0"/>
      <point x="663" y="401" type="qcurve" smooth="yes"/>
      <point x="178" y="401" type="line" smooth="yes"/>
      <point x="162.32835820895522" y="401.0"/>
      <point x="139.0" y="424.32835820895525"/>
      <point x="139" y="440" type="qcurve" smooth="yes"/>
      <point x="139" y="598" type="line" smooth="yes"/>
      <point x="139.0" y="613.6716417910447"/>
      <point x="162.32835820895522" y="637.0"/>
      <point x="178" y="637" type="qcurve" smooth="yes"/>
      <point x="663" y="637" type="line" smooth="yes"/>
      <point x="678.6716417910447" y="637.0"/>
      <point x="702.0" y="613.6716417910447"/>
      <point x="702" y="598" type="qcurve" smooth="yes"/>
    </contour>
  </outline>
</glyph>
<glyph name="nine" format="2">
  <advance width="828"/>
  <unicode hex="0039"/>
  <outline>
    <contour>
      <point x="658" y="305" type="line" smooth="yes"/>
      <point x="673.6716417910447" y="305.0"/>
      <point x="697.0" y="281.67164179104475"/>
      <point x="697" y="266" type="qcurve" smooth="yes"/>
      <point x="697" y="121" type="line" smooth="yes"/>
      <point x="697.0" y="105.32835820895522"/>
      <point x="673.6716417910447" y="82.0"/>
      <point x="658" y="82" type="qcurve" smooth="yes"/>
      <point x="58" y="82" type="line"/>
      <point x="69.94029850746269" y="46.17910447761194"/>
      <point x="133.44776119402985" y="0.0"/>
      <point x="173" y="0" type="qcurve" smooth="yes"/>
      <point x="658" y="0" type="line" smooth="yes"/>
      <point x="708.0" y="0.0"/>
      <point x="779.0" y="71.0"/>
      <point x="779" y="121" type="qcurve" smooth="yes"/>
      <point x="779" y="599" type="line" smooth="yes"/>
      <point x="779.0" y="649.7462686567164"/>
      <point x="708.0" y="721.0"/>
      <point x="658" y="721" type="qcurve" smooth="yes"/>
      <point x="173" y="721" type="line" smooth="yes"/>
      <point x="122.25373134328359" y="721.0"/>
      <point x="51.0" y="649.7462686567164"/>
      <point x="51" y="599" type="qcurve" smooth="yes"/>
      <point x="51" y="426" type="line" smooth="yes"/>
      <point x="51.0" y="376.0"/>
      <point x="122.25373134328359" y="305.0"/>
      <point x="173" y="305" type="qcurve" smooth="yes"/>
    </contour>
    <contour>
      <point x="134" y="599" type="line" smooth="yes"/>
      <point x="134.0" y="614.6716417910447"/>
      <point x="157.32835820895522" y="638.0"/>
      <point x="173" y="638" type="qcurve" smooth="yes"/>
      <point x="658" y="638" type="line" smooth="yes"/>
      <point x="673.6716417910447" y="638.0"/>
      <point x="697.0" y="614.6716417910447"/>
      <point x="697" y="599" type="qcurve" smooth="yes"/>
      <point x="697" y="387" type="line"/>
      <point x="173" y="387" type="line" smooth="yes"/>
      <point x="157.32835820895522" y="387.0"/>
      <point x="134.0" y="410.32835820895525"/>
      <point x="134" y="426" type="qcurve" smooth="yes"/>
    </contour>
  </outline>
</glyph>
<glyph name="semicolon" format="2">
  <advance width="193"/>
  <unicode hex="003B"/>
  <outline>
    <contour>
      <point x="133" y="588" type="line"/>
      <point x="51" y="588" type="line"/>
      <point x="51" y="506" type="line"/>
      <point x="133" y="506" type="line"/>
    </contour>
    <contour>
      <point x="51" y="82" type="line"/>
      <point x="51" y="-131" type="line"/>
      <point x="86.82089552238806" y="-119.05970149253731"/>
      <point x="133.0" y="-56.298507462686565"/>
      <point x="133" y="-16" type="qcurve" smooth="yes"/>
      <point x="133" y="82" type="line"/>
    </contour>
  </outline>
</glyph>
<glyph name="greater" format="2">
  <advance width="475"/>
  <unicode hex="003E"/>
  <outline>
    <contour>
      <point x="59" y="14" type="line"/>
      <point x="161.23880597014926" y="72.955223880597"/>
      <point x="357.2686567164179" y="187.044776119403"/>
      <point x="461" y="246" type="qcurve"/>
      <point x="461" y="343" type="line"/>
      <point x="59" y="574" type="line"/>
      <point x="59" y="479" type="line"/>
      <point x="379" y="294" type="line"/>
      <point x="59" y="109" type="line"/>
    </contour>
  </outline>
</glyph>
<glyph name="question" format="2">
  <advance width="678"/>
  <unicode hex="003F"/>
  <outline>
    <contour>
      <point x="31" y="720" type="line" smooth="yes"/>
      <point x="31.0" y="720.0"/>
      <point x="31.0" y="684.5074626865671"/>
      <point x="31" y="636" type="qcurve"/>
      <point x="548" y="636" type="line" smooth="yes"/>
      <point x="563.6716417910447" y="636.0"/>
      <point x="587.0" y="612.6716417910447"/>
      <point x="587" y="597" type="qcurve" smooth="yes"/>
      <point x="587" y="403" type="line" smooth="yes"/>
      <point x="587.0" y="387.32835820895525"/>
      <point x="563.6716417910447" y="364.0"/>
      <point x="548" y="364" type="qcurve" smooth="yes"/>
      <point x="274" y="364" type="line" smooth="yes"/>
      <point x="224.0" y="364.0"/>
      <point x="153.0" y="293.74626865671644"/>
      <point x="153" y="243" type="qcurve" smooth="yes"/>
      <point x="153" y="201" type="line"/>
      <point x="235" y="201" type="line"/>
      <point x="235" y="243" type="line" smooth="yes"/>
      <point x="235.0" y="258.67164179104475"/>
      <point x="258.32835820895525" y="282.0"/>
      <point x="274" y="282" type="qcurve" smooth="yes"/>
      <point x="548" y="282" type="line" smooth="yes"/>
      <point x="598.0" y="282.0"/>
      <point x="669.0" y="353.0"/>
      <point x="669" y="403" type="qcurve" smooth="yes"/>
      <point x="669" y="597" type="line" smooth="yes"/>
      <point x="669.0" y="647.7462686567164"/>
      <point x="598.0" y="719.0"/>
      <point x="548" y="719" type="qcurve" smooth="yes"/>
    </contour>
    <contour>
      <point x="235" y="0" type="line"/>
      <point x="235" y="82" type="line"/>
      <point x="153" y="82" type="line"/>
      <point x="153" y="0" type="line"/>
    </contour>
  </outline>
</glyph>
<glyph name="at" format="2">
  <advance width="831"/>
  <unicode hex="0040"/>
  <outline>
    <contour>
      <point x="373" y="519" type="line" smooth="yes"/>
      <point x="322.25373134328356" y="519.0"/>
      <point x="252.0" y="448.0"/>
      <point x="252" y="398" type="qcurve" smooth="yes"/>
      <point x="252" y="314" type="line" smooth="yes"/>
      <point x="252.0" y="263.25373134328356"/>
      <point x="322.25373134328356" y="192.0"/>
      <point x="373" y="192" type="qcurve" smooth="yes"/>
      <point x="784" y="192" type="line"/>
      <point x="784" y="598" type="line" smooth="yes"/>
      <point x="784.0" y="648.7462686567164"/>
      <point x="713.0" y="720.0"/>
      <point x="663" y="720" type="qcurve" smooth="yes"/>
      <point x="178" y="720" type="line" smooth="yes"/>
      <point x="127.25373134328359" y="720.0"/>
      <point x="57.0" y="648.7462686567164"/>
      <point x="57" y="598" type="qcurve" smooth="yes"/>
      <point x="57" y="121" type="line" smooth="yes"/>
      <point x="57.0" y="71.0"/>
      <point x="127.25373134328359" y="0.0"/>
      <point x="178" y="0" type="qcurve" smooth="yes"/>
      <point x="784" y="0" type="line"/>
      <point x="784" y="82" type="line"/>
      <point x="178" y="82" type="line" smooth="yes"/>
      <point x="162.32835820895522" y="82.0"/>
      <point x="139.0" y="105.32835820895522"/>
      <point x="139" y="121" type="qcurve" smooth="yes"/>
      <point x="139" y="598" type="line" smooth="yes"/>
      <point x="139.0" y="613.6716417910447"/>
      <point x="162.32835820895522" y="637.0"/>
      <point x="178" y="637" type="qcurve" smooth="yes"/>
      <point x="663" y="637" type="line" smooth="yes"/>
      <point x="678.6716417910447" y="637.0"/>
      <point x="702.0" y="613.6716417910447"/>
      <point x="702" y="598" type="qcurve" smooth="yes"/>
      <point x="702" y="254" type="line"/>
      <point x="589" y="254" type="line"/>
      <point x="589" y="398" type="line" smooth="yes"/>
      <point x="589.0" y="448.0"/>
      <point x="518.0" y="519.0"/>
      <point x="468" y="519" type="qcurve" smooth="yes"/>
    </contour>
    <contour>
      <point x="352" y="254" type="line" smooth="yes"/>
      <point x="336.32835820895525" y="254.0"/>
      <point x="313.0" y="276.5820895522388"/>
      <point x="313" y="293" type="qcurve" smooth="yes"/>
      <point x="313" y="419" type="line" smooth="yes"/>
      <point x="313.0" y="434.67164179104475"/>
      <point x="336.32835820895525" y="458.0"/>
      <point x="352" y="458" type="qcurve" smooth="yes"/>
      <point x="489" y="458" type="line" smooth="yes"/>
      <point x="504.67164179104475" y="458.0"/>
      <point x="528.0" y="434.67164179104475"/>
      <point x="528" y="419" type="qcurve" smooth="yes"/>
      <point x="528" y="254" type="line"/>
    </contour>
  </outline>
</glyph>
<glyph name="B" format="2">
  <advance width="832"/>
  <unicode hex="0042"/>
  <outline>
    <contour>
      <point x="735" y="394" type="line"/>
      <point x="740.9701492537314" y="405.94029850746267"/>
      <point x="748.0" y="432.82089552238807"/>
      <point x="748" y="447" type="qcurve" smooth="yes"/>
      <point x="748" y="600" type="line" smooth="yes"/>
      <point x="748.0" y="650.0"/>
      <point x="678.0" y="720.0"/>
      <point x="628" y="720" type="qcurve" smooth="yes"/>
      <point x="59" y="720" type="line"/>
      <point x="59" y="0" type="line"/>
      <point x="659" y="0" type="line" smooth="yes"/>
      <point x="709.0" y="0.0"/>
      <point x="779.0" y="70.0"/>
      <point x="779" y="120" type="qcurve" smooth="yes"/>
      <point x="779" y="288" type="line" smooth="yes"/>
      <point x="779.0" y="313.3731343283582"/>
      <point x="756.9104477611941" y="360.5820895522388"/>
      <point x="739" y="377" type="qcurve"/>
    </contour>
    <contour>
      <point x="628" y="639" type="line" smooth="yes"/>
      <point x="643.6716417910447" y="639.0"/>
      <point x="666.0" y="615.6716417910447"/>
      <point x="666" y="600" type="qcurve" smooth="yes"/>
      <point x="666" y="447" type="line" smooth="yes"/>
      <point x="666.0" y="431.32835820895525"/>
      <point x="643.6716417910447" y="408.0"/>
      <point x="628" y="408" type="qcurve" smooth="yes"/>
      <point x="179" y="408" type="line" smooth="yes"/>
      <point x="163.32835820895522" y="408.0"/>
      <point x="140.0" y="431.32835820895525"/>
      <point x="140" y="447" type="qcurve" smooth="yes"/>
      <point x="140" y="600" type="line" smooth="yes"/>
      <point x="140.0" y="615.6716417910447"/>
      <point x="163.32835820895522" y="639.0"/>
      <point x="179" y="639" type="qcurve" smooth="yes"/>
    </contour>
    <contour>
      <point x="698" y="120" type="line" smooth="yes"/>
      <point x="698.0" y="104.32835820895522"/>
      <point x="674.6716417910447" y="81.0"/>
      <point x="659" y="81" type="qcurve" smooth="yes"/>
      <point x="179" y="81" type="line" smooth="yes"/>
      <point x="163.32835820895522" y="81.0"/>
      <point x="140.0" y="104.32835820895522"/>
      <point x="140" y="120" type="qcurve" smooth="yes"/>
      <point x="140" y="288" type="line" smooth="yes"/>
      <point x="140.0" y="303.67164179104475"/>
      <point x="163.32835820895522" y="327.0"/>
      <point x="179" y="327" type="qcurve" smooth="yes"/>
      <point x="659" y="327" type="line" smooth="yes"/>
      <point x="674.6716417910447" y="327.0"/>
      <point x="698.0" y="303.67164179104475"/>
      <point x="698" y="288" type="qcurve" smooth="yes"/>
    </contour>
  </outline>
</glyph>
<glyph name="D" format="2">
  <advance width="834"/>
  <unicode hex="0044"/>
  <outline>
    <contour>
      <point x="58" y="720" type="line"/>
      <point x="58" y="0" type="line"/>
      <point x="658" y="0" type="line" smooth="yes"/>
      <point x="708.0" y="0.0"/>
      <point x="778.0" y="70.0"/>
      <point x="778" y="120" type="qcurve" smooth="yes"/>
      <point x="778" y="600" type="line" smooth="yes"/>
      <point x="778.0" y="650.0"/>
      <point x="708.0" y="720.0"/>
      <point x="658" y="720" type="qcurve" smooth="yes"/>
    </contour>
    <contour>
      <point x="697" y="120" type="line" smooth="yes"/>
      <point x="697.0" y="104.32835820895522"/>
      <point x="673.6716417910447" y="81.0"/>
      <point x="658" y="81" type="qcurve" smooth="yes"/>
      <point x="178" y="81" type="line" smooth="yes"/>
      <point x="162.32835820895522" y="81.0"/>
      <point x="139.0" y="104.32835820895522"/>
      <point x="139" y="120" type="qcurve" smooth="yes"/>
      <point x="139" y="600" type="line" smooth="yes"/>
      <point x="139.0" y="615.6716417910447"/>
      <point x="162.32835820895522" y="639.0"/>
      <point x="178" y="639" type="qcurve" smooth="yes"/>
      <point x="658" y="639" type="line" smooth="yes"/>
      <point x="673.6716417910447" y="639.0"/>
      <point x="697.0" y="615.6716417910447"/>
      <point x="697" y="600" type="qcurve" smooth="yes"/>
    </contour>
  </outline>
</glyph>
<glyph name="G" format="2">
  <advance width="830"/>
  <unicode hex="0047"/>
  <outline>
    <contour>
      <point x="776" y="600" type="line" smooth="yes"/>
      <point x="776.0" y="650.0"/>
      <point x="706.0" y="720.0"/>
      <point x="656" y="720" type="qcurve" smooth="yes"/>
      <point x="176" y="720" type="line" smooth="yes"/>
      <point x="126.0" y="720.0"/>
      <point x="56.0" y="650.0"/>
      <point x="56" y="600" type="qcurve" smooth="yes"/>
      <point x="56" y="120" type="line" smooth="yes"/>
      <point x="56.0" y="70.0"/>
      <point x="126.0" y="0.0"/>
      <point x="176" y="0" type="qcurve" smooth="yes"/>
      <point x="656" y="0" type="line" smooth="yes"/>
      <point x="706.0" y="0.0"/>
      <point x="776.0" y="70.0"/>
      <point x="776" y="120" type="qcurve" smooth="yes"/>
      <point x="776" y="380" type="line"/>
      <point x="517" y="380" type="line"/>
      <point x="517" y="298" type="line"/>
      <point x="695" y="298" type="line"/>
      <point x="695" y="120" type="line" smooth="yes"/>
      <point x="695.0" y="104.32835820895522"/>
      <point x="671.6716417910447" y="81.0"/>
      <point x="656" y="81" type="qcurve" smooth="yes"/>
      <point x="176" y="81" type="line" smooth="yes"/>
      <point x="160.32835820895522" y="81.0"/>
      <point x="137.0" y="104.32835820895522"/>
      <point x="137" y="120" type="qcurve" smooth="yes"/>
      <point x="137" y="600" type="line" smooth="yes"/>
      <point x="137.0" y="615.6716417910447"/>
      <point x="160.32835820895522" y="639.0"/>
      <point x="176" y="639" type="qcurve" smooth="yes"/>
      <point x="656" y="639" type="line" smooth="yes"/>
      <point x="671.6716417910447" y="639.0"/>
      <point x="695.0" y="615.6716417910447"/>
      <point x="695" y="600" type="qcurve" smooth="yes"/>
      <point x="695" y="571" type="line"/>
      <point x="776" y="571" type="line"/>
    </contour>
  </outline>
</glyph>
<glyph name="J" format="2">
  <advance width="780"/>
  <unicode hex="004A"/>
  <outline>
    <contour>
      <point x="643" y="120" type="line" smooth="yes"/>
      <point x="643.0" y="104.32835820895522"/>
      <point x="619.6716417910447" y="81.0"/>
      <point x="604" y="81" type="qcurve" smooth="yes"/>
      <point x="124" y="81" type="line" smooth="yes"/>
      <point x="108.32835820895522" y="81.0"/>
      <point x="85.0" y="104.32835820895522"/>
      <point x="85" y="120" type="qcurve" smooth="yes"/>
      <point x="85" y="177" type="line"/>
      <point x="4" y="177" type="line"/>
      <point x="4" y="120" type="line" smooth="yes"/>
      <point x="4.0" y="70.0"/>
      <point x="74.0" y="0.0"/>
      <point x="124" y="0" type="qcurve" smooth="yes"/>
      <point x="604" y="0" type="line" smooth="yes"/>
      <point x="654.0" y="0.0"/>
      <point x="724.0" y="70.0"/>
      <point x="724" y="120" type="qcurve" smooth="yes"/>
      <point x="724" y="720" type="line"/>
      <point x="643" y="720" type="line"/>
    </contour>
  </outline>
</glyph>
<glyph name="K" format="2">
  <advance width="797"/>
  <unicode hex="004B"/>
  <outline>
    <contour>
      <point x="639" y="720" type="line"/>
      <point x="574.0746268656717" y="642.3880597014926"/>
      <point x="435.92537313432837" y="478.6119402985074"/>
      <point x="371" y="401" type="qcurve"/>
      <point x="139" y="401" type="line"/>
      <point x="139" y="720" type="line"/>
      <point x="57" y="720" type="line"/>
      <point x="57" y="0" type="line"/>
      <point x="139" y="0" type="line"/>
      <point x="139" y="319" type="line"/>
      <point x="371" y="319" type="line"/>
      <point x="639" y="0" type="line"/>
      <point x="744" y="0" type="line"/>
      <point x="442" y="360" type="line"/>
      <point x="743" y="720" type="line"/>
    </contour>
  </outline>
</glyph>
<glyph name="P" format="2">
  <advance width="791"/>
  <unicode hex="0050"/>
  <outline>
    <contour>
      <point x="56" y="719" type="line"/>
      <point x="56" y="0" type="line"/>
      <point x="137" y="0" type="line"/>
      <point x="137" y="272" type="line"/>
      <point x="148.19402985074626" y="270.5074626865672"/>
      <point x="169.28358208955223" y="268.0"/>
      <point x="176" y="268" type="qcurve" smooth="yes"/>
      <point x="656" y="268" type="line" smooth="yes"/>
      <point x="706.0" y="268.0"/>
      <point x="776.0" y="338.74626865671644"/>
      <point x="776" y="388" type="qcurve" smooth="yes"/>
      <point x="776" y="599" type="line" smooth="yes"/>
      <point x="776.0" y="648.2537313432836"/>
      <point x="706.0" y="719.0"/>
      <point x="656" y="719" type="qcurve" smooth="yes"/>
    </contour>
    <contour>
      <point x="695" y="388" type="line" smooth="yes"/>
      <point x="695.0" y="372.32835820895525"/>
      <point x="671.6716417910447" y="350.0"/>
      <point x="656" y="350" type="qcurve" smooth="yes"/>
      <point x="176" y="350" type="line" smooth="yes"/>
      <point x="160.32835820895522" y="350.0"/>
      <point x="137.0" y="372.32835820895525"/>
      <point x="137" y="388" type="qcurve" smooth="yes"/>
      <point x="137" y="599" type="line" smooth="yes"/>
      <point x="137.0" y="614.6716417910447"/>
      <point x="160.32835820895522" y="638.0"/>
      <point x="176" y="638" type="qcurve" smooth="yes"/>
      <point x="656" y="638" type="line" smooth="yes"/>
      <point x="671.6716417910447" y="638.0"/>
      <point x="695.0" y="614.6716417910447"/>
      <point x="695" y="599" type="qcurve" smooth="yes"/>
    </contour>
  </outline>
</glyph>
<glyph name="R" format="2">
  <advance width="825"/>
  <unicode hex="0052"/>
  <outline>
    <contour>
      <point x="775" y="599" type="line" smooth="yes"/>
      <point x="775.0" y="648.2537313432836"/>
      <point x="705.0" y="719.0"/>
      <point x="655" y="719" type="qcurve" smooth="yes"/>
      <point x="55" y="719" type="line"/>
      <point x="55" y="0" type="line"/>
      <point x="136" y="0" type="line"/>
      <point x="136" y="272" type="line"/>
      <point x="147.19402985074626" y="270.5074626865672"/>
      <point x="167.53731343283582" y="268.0"/>
      <point x="175" y="268" type="qcurve" smooth="yes"/>
      <point x="439" y="268" type="line"/>
      <point x="664" y="0" type="line"/>
      <point x="771" y="0" type="line"/>
      <point x="545" y="268" type="line"/>
      <point x="655" y="268" type="line" smooth="yes"/>
      <point x="705.0" y="268.0"/>
      <point x="775.0" y="338.74626865671644"/>
      <point x="775" y="388" type="qcurve" smooth="yes"/>
    </contour>
    <contour>
      <point x="175" y="350" type="line" smooth="yes"/>
      <point x="159.32835820895522" y="350.0"/>
      <point x="136.0" y="372.32835820895525"/>
      <point x="136" y="388" type="qcurve" smooth="yes"/>
      <point x="136" y="599" type="line" smooth="yes"/>
      <point x="136.0" y="614.6716417910447"/>
      <point x="159.32835820895522" y="638.0"/>
      <point x="175" y="638" type="qcurve" smooth="yes"/>
      <point x="655" y="638" type="line" smooth="yes"/>
      <point x="670.6716417910447" y="638.0"/>
      <point x="693.0" y="614.6716417910447"/>
      <point x="693" y="599" type="qcurve" smooth="yes"/>
      <point x="693" y="388" type="line" smooth="yes"/>
      <point x="693.0" y="372.32835820895525"/>
      <point x="670.6716417910447" y="350.0"/>
      <point x="655" y="350" type="qcurve" smooth="yes"/>
    </contour>
  </outline>
</glyph>
<glyph name="S" format="2">
  <advance width="822"/>
  <unicode hex="0053"/>
  <outline>
    <contour>
      <point x="771" y="600" type="line" smooth="yes"/>
      <point x="771.0" y="650.0"/>
      <point x="701.0" y="720.0"/>
      <point x="651" y="720" type="qcurve" smooth="yes"/>
      <point x="171" y="720" type="line" smooth="yes"/>
      <point x="121.0" y="720.0"/>
      <point x="51.0" y="650.0"/>
      <point x="51" y="600" type="qcurve" smooth="yes"/>
      <point x="51" y="439" type="line" smooth="yes"/>
      <point x="51.0" y="389.74626865671644"/>
      <point x="121.0" y="319.0"/>
      <point x="171" y="319" type="qcurve" smooth="yes"/>
      <point x="651" y="319" type="line" smooth="yes"/>
      <point x="666.6716417910447" y="319.0"/>
      <point x="690.0" y="296.67164179104475"/>
      <point x="690" y="281" type="qcurve" smooth="yes"/>
      <point x="690" y="120" type="line" smooth="yes"/>
      <point x="690.0" y="104.32835820895522"/>
      <point x="666.6716417910447" y="81.0"/>
      <point x="651" y="81" type="qcurve" smooth="yes"/>
      <point x="171" y="81" type="line" smooth="yes"/>
      <point x="155.32835820895522" y="81.0"/>
      <point x="132.0" y="104.32835820895522"/>
      <point x="132" y="120" type="qcurve" smooth="yes"/>
      <point x="132" y="148" type="line"/>
      <point x="51" y="148" type="line"/>
      <point x="51" y="120" type="line" smooth="yes"/>
      <point x="51.0" y="70.0"/>
      <point x="121.0" y="0.0"/>
      <point x="171" y="0" type="qcurve" smooth="yes"/>
      <point x="651" y="0" type="line" smooth="yes"/>
      <point x="701.0" y="0.0"/>
      <point x="771.0" y="70.0"/>
      <point x="771" y="120" type="qcurve" smooth="yes"/>
      <point x="771" y="281" type="line" smooth="yes"/>
      <point x="771.0" y="330.25373134328356"/>
      <point x="701.0" y="401.0"/>
      <point x="651" y="401" type="qcurve" smooth="yes"/>
      <point x="171" y="401" type="line" smooth="yes"/>
      <point x="155.32835820895522" y="401.0"/>
      <point x="132.0" y="423.32835820895525"/>
      <point x="132" y="439" type="qcurve" smooth="yes"/>
      <point x="132" y="600" type="line" smooth="yes"/>
      <point x="132.0" y="615.6716417910447"/>
      <point x="155.32835820895522" y="639.0"/>
      <point x="171" y="639" type="qcurve" smooth="yes"/>
      <point x="651" y="639" type="line" smooth="yes"/>
      <point x="666.6716417910447" y="639.0"/>
      <point x="690.0" y="615.6716417910447"/>
      <point x="690" y="600" type="qcurve" smooth="yes"/>
      <point x="690" y="572" type="line"/>
      <point x="771" y="572" type="line"/>
    </contour>
  </outline>
</glyph>
<glyph name="U" format="2">
  <advance width="828"/>
  <unicode hex="0055"/>
  <outline>
    <contour>
      <point x="693" y="120" type="line" smooth="yes"/>
      <point x="693.0" y="104.32835820895522"/>
      <point x="669.6716417910447" y="81.0"/>
      <point x="654" y="81" type="qcurve" smooth="yes"/>
      <point x="174" y="81" type="line" smooth="yes"/>
      <point x="158.32835820895522" y="81.0"/>
      <point x="135.0" y="104.32835820895522"/>
      <point x="135" y="120" type="qcurve" smooth="yes"/>
      <point x="135" y="720" type="line"/>
      <point x="54" y="720" type="line"/>
      <point x="54" y="120" type="line" smooth="yes"/>
      <point x="54.0" y="70.0"/>
      <point x="124.0" y="0.0"/>
      <point x="174" y="0" type="qcurve" smooth="yes"/>
      <point x="654" y="0" type="line" smooth="yes"/>
      <point x="704.0" y="0.0"/>
      <point x="774.0" y="70.0"/>
      <point x="774" y="120" type="qcurve" smooth="yes"/>
      <point x="774" y="720" type="line"/>
      <point x="693" y="720" type="line"/>
    </contour>
  </outline>
</glyph>
<glyph name="V" format="2">
  <advance width="1003"/>
  <unicode hex="0056"/>
  <outline>
    <contour>
      <point x="499" y="79" type="line"/>
      <point x="130" y="720" type="line"/>
      <point x="35" y="720" type="line"/>
      <point x="137.98507462686567" y="539.4029850746269"/>
      <point x="347.5223880597015" y="180.59701492537312"/>
      <point x="452" y="0" type="qcurve"/>
      <point x="546" y="0" type="line"/>
      <point x="652.7164179104477" y="185.07462686567163"/>
      <point x="855.2835820895523" y="534.179104477612"/>
      <point x="962" y="720" type="qcurve"/>
      <point x="867" y="720" type="line"/>
    </contour>
  </outline>
</glyph>
<glyph name="W" format="2">
  <advance width="1179"/>
  <unicode hex="0057"/>
  <outline>
    <contour>
      <point x="1060" y="720" type="line"/>
      <point x="1012.2388059701493" y="586.4179104477612"/>
      <point x="898.0149253731344" y="274.08955223880594"/>
      <point x="851" y="142" type="qcurve"/>
      <point x="640" y="720" type="line"/>
      <point x="542" y="720" type="line"/>
      <point x="493.4925373134328" y="586.4179104477612"/>
      <point x="379.76119402985074" y="274.08955223880594"/>
      <point x="332" y="142" type="qcurve"/>
      <point x="121" y="720" type="line"/>
      <point x="35" y="720" type="line"/>
      <point x="297" y="0" type="line"/>
      <point x="367" y="0" type="line"/>
      <point x="591" y="615" type="line"/>
      <point x="815" y="0" type="line"/>
      <point x="886" y="0" type="line"/>
      <point x="1148" y="720" type="line"/>
    </contour>
  </outline>
</glyph>
<glyph name="X" format="2">
  <advance width="812"/>
  <unicode hex="0058"/>
  <outline>
    <contour>
      <point x="651" y="720" type="line"/>
      <point x="401" y="423" type="line"/>
      <point x="150" y="720" type="line"/>
      <point x="46" y="720" type="line"/>
      <point x="348" y="360" type="line"/>
      <point x="46" y="0" type="line"/>
      <point x="150" y="0" type="line"/>
      <point x="401" y="297" type="line"/>
      <point x="651" y="0" type="line"/>
      <point x="756" y="0" type="line"/>
      <point x="681.3731343283582" y="87.31343283582089"/>
      <point x="525.3880597014926" y="272.6865671641791"/>
      <point x="453" y="360" type="qcurve"/>
      <point x="755" y="720" type="line"/>
    </contour>
  </outline>
</glyph>
<glyph name="Y" format="2">
  <advance width="806"/>
  <unicode hex="0059"/>
  <outline>
    <contour>
      <point x="665" y="720" type="line"/>
      <point x="599.3283582089553" y="636.4179104477612"/>
      <point x="453.92537313432837" y="451.5820895522388"/>
      <point x="389" y="368" type="qcurve"/>
      <point x="110" y="720" type="line"/>
      <point x="17" y="720" type="line"/>
      <point x="98.34328358208954" y="610.2985074626865"/>
      <point x="268.14925373134326" y="380.7014925373134"/>
      <point x="348" y="271" type="qcurve"/>
      <point x="348" y="0" type="line"/>
      <point x="429" y="0" type="line"/>
      <point x="429" y="271" type="line"/>
      <point x="760" y="720" type="line"/>
    </contour>
  </outline>
</glyph>
<glyph name="grave" format="2">
  <advance width="213"/>
  <unicode hex="0060"/>
  <outline>
    <contour>
      <point x="113" y="1011" type="line"/>
      <point x="32" y="1011" type="line"/>
      <point x="41.70149253731343" y="972.9402985074627"/>
      <point x="57.29850746268657" y="912.2985074626865"/>
      <point x="67" y="872" type="qcurve"/>
      <point x="147" y="872" type="line"/>
    </contour>
  </outline>
</glyph>
<glyph name="d" format="2">
  <advance width="667"/>
  <unicode hex="0064"/>
  <outline>
    <contour>
      <point x="532" y="770" type="line"/>
      <point x="532" y="580" type="line"/>
      <point x="145" y="580" type="line" smooth="yes"/>
      <point x="94.25373134328359" y="580.0"/>
      <point x="23.0" y="509.0"/>
      <point x="23" y="459" type="qcurve" smooth="yes"/>
      <point x="23" y="121" type="line" smooth="yes"/>
      <point x="23.0" y="71.0"/>
      <point x="94.25373134328359" y="0.0"/>
      <point x="145" y="0" type="qcurve" smooth="yes"/>
      <point x="614" y="0" type="line"/>
      <point x="614" y="770" type="line"/>
    </contour>
    <contour>
      <point x="145" y="82" type="line" smooth="yes"/>
      <point x="129.32835820895522" y="82.0"/>
      <point x="106.0" y="105.32835820895522"/>
      <point x="106" y="121" type="qcurve" smooth="yes"/>
      <point x="106" y="459" type="line" smooth="yes"/>
      <point x="106.0" y="474.67164179104475"/>
      <point x="129.32835820895522" y="498.0"/>
      <point x="145" y="498" type="qcurve" smooth="yes"/>
      <point x="493" y="498" type="line" smooth="yes"/>
      <point x="508.67164179104475" y="498.0"/>
      <point x="532.0" y="474.67164179104475"/>
      <point x="532" y="459" type="qcurve" smooth="yes"/>
      <point x="532" y="121" type="line" smooth="yes"/>
      <point x="532.0" y="105.32835820895522"/>
      <point x="508.67164179104475" y="82.0"/>
      <point x="493" y="82" type="qcurve" smooth="yes"/>
    </contour>
  </outline>
</glyph>
<glyph name="f" format="2">
  <advance width="407"/>
  <unicode hex="0066"/>
  <outline>
    <contour>
      <point x="386" y="688" type="line"/>
      <point x="386" y="770" type="line"/>
      <point x="174" y="770" type="line" smooth="yes"/>
      <point x="123.25373134328359" y="770.0"/>
      <point x="53.0" y="699.7462686567164"/>
      <point x="53" y="649" type="qcurve" smooth="yes"/>
      <point x="53" y="0" type="line"/>
      <point x="135" y="0" type="line"/>
      <point x="135" y="498" type="line"/>
      <point x="386" y="498" type="line"/>
      <point x="386" y="580" type="line"/>
      <point x="135" y="580" type="line"/>
      <point x="135" y="649" type="line" smooth="yes"/>
      <point x="135.0" y="664.6716417910447"/>
      <point x="158.32835820895522" y="688.0"/>
      <point x="174" y="688" type="qcurve" smooth="yes"/>
    </contour>
  </outline>
</glyph>
<glyph name="g" format="2">
  <advance width="683"/>
  <unicode hex="0067"/>
  <outline>
    <contour>
      <point x="631" y="459" type="line" smooth="yes"/>
      <point x="631.0" y="509.0"/>
      <point x="560.7462686567164" y="580.0"/>
      <point x="510" y="580" type="qcurve" smooth="yes"/>
      <point x="162" y="580" type="line" smooth="yes"/>
      <point x="112.0" y="580.0"/>
      <point x="41.0" y="509.0"/>
      <point x="41" y="459" type="qcurve" smooth="yes"/>
      <point x="41" y="121" type="line" smooth="yes"/>
      <point x="41.0" y="71.0"/>
      <point x="112.0" y="0.0"/>
      <point x="162" y="0" type="qcurve" smooth="yes"/>
      <point x="549" y="0" type="line"/>
      <point x="549" y="-107" type="line" smooth="yes"/>
      <point x="549.0" y="-122.67164179104478"/>
      <point x="525.6716417910447" y="-146.0"/>
      <point x="510" y="-146" type="qcurve" smooth="yes"/>
      <point x="148" y="-146" type="line"/>
      <point x="148" y="-229" type="line"/>
      <point x="510" y="-229" type="line" smooth="yes"/>
      <point x="560.7462686567164" y="-229.0"/>
      <point x="631.0" y="-157.7462686567164"/>
      <point x="631" y="-107" type="qcurve" smooth="yes"/>
    </contour>
    <contour>
      <point x="162" y="82" type="line" smooth="yes"/>
      <point x="146.32835820895522" y="82.0"/>
      <point x="123.0" y="105.32835820895522"/>
      <point x="123" y="121" type="qcurve" smooth="yes"/>
      <point x="123" y="459" type="line" smooth="yes"/>
      <point x="123.0" y="474.67164179104475"/>
      <point x="146.32835820895522" y="498.0"/>
      <point x="162" y="498" type="qcurve" smooth="yes"/>
      <point x="510" y="498" type="line" smooth="yes"/>
      <point x="525.6716417910447" y="498.0"/>
      <point x="549.0" y="474.67164179104475"/>
      <point x="549" y="459" type="qcurve" smooth="yes"/>
      <point x="549" y="121" type="line" smooth="yes"/>
      <point x="549.0" y="105.32835820895522"/>
      <point x="525.6716417910447" y="82.0"/>
      <point x="510" y="82" type="qcurve" smooth="yes"/>
    </contour>
  </outline>
</glyph>
<glyph name="j" format="2">
  <advance width="239"/>
  <unicode hex="006A"/>
  <outline>
    <contour>
      <point x="97" y="770" type="line"/>
      <point x="97" y="688" type="line"/>
      <point x="180" y="688" type="line"/>
      <point x="180" y="770" type="line"/>
    </contour>
    <contour>
      <point x="180" y="580" type="line"/>
      <point x="97" y="580" type="line"/>
      <point x="97" y="-121" type="line" smooth="yes"/>
      <point x="97.0" y="-136.67164179104478"/>
      <point x="73.67164179104478" y="-160.0"/>
      <point x="58" y="-160" type="qcurve" smooth="yes"/>
      <point x="-187" y="-160" type="line"/>
      <point x="-187" y="-243" type="line"/>
      <point x="58" y="-243" type="line" smooth="yes"/>
      <point x="108.74626865671641" y="-243.0"/>
      <point x="180.0" y="-171.7462686567164"/>
      <point x="180" y="-121" type="qcurve" smooth="yes"/>
    </contour>
  </outline>
</glyph>
<glyph name="l" format="2">
  <advance width="302"/>
  <unicode hex="006C"/>
  <outline>
    <contour>
      <point x="52" y="770" type="line"/>
      <point x="52" y="121" type="line" smooth="yes"/>
      <point x="52.0" y="71.0"/>
      <point x="123.0" y="0.0"/>
      <point x="173" y="0" type="qcurve" smooth="yes"/>
      <point x="271" y="0" type="line"/>
      <point x="271" y="82" type="line"/>
      <point x="173" y="82" type="line" smooth="yes"/>
      <point x="157.32835820895522" y="82.0"/>
      <point x="134.0" y="105.32835820895522"/>
      <point x="134" y="121" type="qcurve" smooth="yes"/>
      <point x="134" y="770" type="line"/>
    </contour>
  </outline>
</glyph>
<glyph name="m" format="2">
  <advance width="978"/>
  <unicode hex="006D"/>
  <outline>
    <contour>
      <point x="54" y="580" type="line"/>
      <point x="54" y="0" type="line"/>
      <point x="137" y="0" type="line"/>
      <point x="137" y="459" type="line" smooth="yes"/>
      <point x="137.0" y="474.67164179104475"/>
      <point x="160.32835820895522" y="498.0"/>
      <point x="176" y="498" type="qcurve" smooth="yes"/>
      <point x="418" y="498" type="line" smooth="yes"/>
      <point x="433.67164179104475" y="498.0"/>
      <point x="457.0" y="474.67164179104475"/>
      <point x="457" y="459" type="qcurve" smooth="yes"/>
      <point x="457" y="0" type="line"/>
      <point x="540" y="0" type="line"/>
      <point x="540" y="459" type="line" smooth="yes"/>
      <point x="540.0" y="474.67164179104475"/>
      <point x="562.5820895522388" y="498.0"/>
      <point x="579" y="498" type="qcurve" smooth="yes"/>
      <point x="820" y="498" type="line" smooth="yes"/>
      <point x="836.4179104477612" y="498.0"/>
      <point x="860.0" y="474.67164179104475"/>
      <point x="860" y="459" type="qcurve" smooth="yes"/>
      <point x="860" y="0" type="line"/>
      <point x="941" y="0" type="line"/>
      <point x="941" y="459" type="line" smooth="yes"/>
      <point x="941.0" y="509.0"/>
      <point x="870.7462686567164" y="580.0"/>
      <point x="820" y="580" type="qcurve" smooth="yes"/>
    </contour>
  </outline>
</glyph>
<glyph name="n" format="2">
  <advance width="696"/>
  <unicode hex="006E"/>
  <outline>
    <contour>
      <point x="54" y="580" type="line"/>
      <point x="54" y="0" type="line"/>
      <point x="136" y="0" type="line"/>
      <point x="136" y="459" type="line" smooth="yes"/>
      <point x="136.0" y="474.67164179104475"/>
      <point x="159.5820895522388" y="498.0"/>
      <point x="176" y="498" type="qcurve" smooth="yes"/>
      <point x="524" y="498" type="line" smooth="yes"/>
      <point x="539.6716417910447" y="498.0"/>
      <point x="563.0" y="474.67164179104475"/>
      <point x="563" y="459" type="qcurve" smooth="yes"/>
      <point x="563" y="0" type="line"/>
      <point x="645" y="0" type="line"/>
      <point x="645" y="459" type="line" smooth="yes"/>
      <point x="645.0" y="509.0"/>
      <point x="574.0" y="580.0"/>
      <point x="524" y="580" type="qcurve" smooth="yes"/>
    </contour>
  </outline>
</glyph>
<glyph name="p" format="2">
  <advance width="664"/>
  <unicode hex="0070"/>
  <outline>
    <contour>
      <point x="54" y="580" type="line"/>
      <point x="54" y="-230" type="line"/>
      <point x="136" y="-230" type="line"/>
      <point x="136" y="0" type="line"/>
      <point x="524" y="0" type="line" smooth="yes"/>
      <point x="574.0" y="0.0"/>
      <point x="645.0" y="71.0"/>
      <point x="645" y="121" type="qcurve" smooth="yes"/>
      <point x="645" y="459" type="line" smooth="yes"/>
      <point x="645.0" y="509.0"/>
      <point x="574.0" y="580.0"/>
      <point x="524" y="580" type="qcurve" smooth="yes"/>
    </contour>
    <contour>
      <point x="563" y="121" type="line" smooth="yes"/>
      <point x="563.0" y="105.32835820895522"/>
      <point x="539.6716417910447" y="82.0"/>
      <point x="524" y="82" type="qcurve" smooth="yes"/>
      <point x="176" y="82" type="line" smooth="yes"/>
      <point x="159.5820895522388" y="82.0"/>
      <point x="136.0" y="105.32835820895522"/>
      <point x="136" y="121" type="qcurve" smooth="yes"/>
      <point x="136" y="459" type="line" smooth="yes"/>
      <point x="136.0" y="474.67164179104475"/>
      <point x="159.5820895522388" y="498.0"/>
      <point x="176" y="498" type="qcurve" smooth="yes"/>
      <point x="524" y="498" type="line" smooth="yes"/>
      <point x="539.6716417910447" y="498.0"/>
      <point x="563.0" y="474.67164179104475"/>
      <point x="563" y="459" type="qcurve" smooth="yes"/>
    </contour>
  </outline>
</glyph>
<glyph name="q" format="2">
  <advance width="664"/>
  <unicode hex="0071"/>
  <outline>
    <contour>
      <point x="20" y="121" type="line" smooth="yes"/>
      <point x="20.0" y="71.0"/>
      <point x="91.25373134328359" y="0.0"/>
      <point x="142" y="0" type="qcurve" smooth="yes"/>
      <point x="529" y="0" type="line"/>
      <point x="529" y="-230" type="line"/>
      <point x="611" y="-230" type="line"/>
      <point x="611" y="580" type="line"/>
      <point x="142" y="580" type="line" smooth="yes"/>
      <point x="91.25373134328359" y="580.0"/>
      <point x="20.0" y="509.0"/>
      <point x="20" y="459" type="qcurve" smooth="yes"/>
    </contour>
    <contour>
      <point x="103" y="459" type="line" smooth="yes"/>
      <point x="103.0" y="474.67164179104475"/>
      <point x="125.58208955223881" y="498.0"/>
      <point x="142" y="498" type="qcurve" smooth="yes"/>
      <point x="490" y="498" type="line" smooth="yes"/>
      <point x="505.67164179104475" y="498.0"/>
      <point x="529.0" y="474.67164179104475"/>
      <point x="529" y="459" type="qcurve" smooth="yes"/>
      <point x="529" y="121" type="line" smooth="yes"/>
      <point x="529.0" y="105.32835820895522"/>
      <point x="505.67164179104475" y="82.0"/>
      <point x="490" y="82" type="qcurve" smooth="yes"/>
      <point x="142" y="82" type="line" smooth="yes"/>
      <point x="125.58208955223881" y="82.0"/>
      <point x="103.0" y="105.32835820895522"/>
      <point x="103" y="121" type="qcurve" smooth="yes"/>
    </contour>
  </outline>
</glyph>
<glyph name="r" format="2">
  <advance width="512"/>
  <unicode hex="0072"/>
  <outline>
    <contour>
      <point x="173" y="580" type="line" smooth="yes"/>
      <point x="123.0" y="580.0"/>
      <point x="52.0" y="509.0"/>
      <point x="52" y="459" type="qcurve" smooth="yes"/>
      <point x="52" y="0" type="line"/>
      <point x="134" y="0" type="line"/>
      <point x="134" y="459" type="line" smooth="yes"/>
      <point x="134.0" y="474.67164179104475"/>
      <point x="157.32835820895522" y="498.0"/>
      <point x="173" y="498" type="qcurve" smooth="yes"/>
      <point x="499" y="498" type="line"/>
      <point x="499" y="580" type="line"/>
    </contour>
  </outline>
</glyph>
<glyph name="t" format="2">
  <advance width="410"/>
  <unicode hex="0074"/>
  <outline>
    <contour>
      <point x="386" y="498" type="line"/>
      <point x="386" y="580" type="line"/>
      <point x="135" y="580" type="line"/>
      <point x="135" y="770" type="line"/>
      <point x="53" y="770" type="line"/>
      <point x="53" y="121" type="line" smooth="yes"/>
      <point x="53.0" y="71.0"/>
      <point x="123.25373134328359" y="0.0"/>
      <point x="174" y="0" type="qcurve" smooth="yes"/>
      <point x="386" y="0" type="line"/>
      <point x="386" y="82" type="line"/>
      <point x="174" y="82" type="line" smooth="yes"/>
      <point x="158.32835820895522" y="82.0"/>
      <point x="135.0" y="105.32835820895522"/>
      <point x="135" y="121" type="qcurve" smooth="yes"/>
      <point x="135" y="498" type="line"/>
    </contour>
  </outline>
</glyph>
<glyph name="u" format="2">
  <advance width="695"/>
  <unicode hex="0075"/>
  <outline>
    <contour>
      <point x="562" y="580" type="line"/>
      <point x="562" y="121" type="line" smooth="yes"/>
      <point x="562.0" y="105.32835820895522"/>
      <point x="538.4179104477612" y="82.0"/>
      <point x="522" y="82" type="qcurve" smooth="yes"/>
      <point x="174" y="82" type="line" smooth="yes"/>
      <point x="158.32835820895522" y="82.0"/>
      <point x="135.0" y="105.32835820895522"/>
      <point x="135" y="121" type="qcurve" smooth="yes"/>
      <point x="135" y="580" type="line"/>
      <point x="53" y="580" type="line"/>
      <point x="53" y="121" type="line" smooth="yes"/>
      <point x="53.0" y="71.0"/>
      <point x="124.0" y="0.0"/>
      <point x="174" y="0" type="qcurve" smooth="yes"/>
      <point x="522" y="0" type="line" smooth="yes"/>
      <point x="572.7462686567164" y="0.0"/>
      <point x="644.0" y="71.0"/>
      <point x="644" y="121" type="qcurve" smooth="yes"/>
      <point x="644" y="580" type="line"/>
    </contour>
  </outline>
</glyph>
<glyph name="v" format="2">
  <advance width="790"/>
  <unicode hex="0076"/>
  <outline>
    <contour>
      <point x="661" y="580" type="line"/>
      <point x="389" y="80" type="line"/>
      <point x="117" y="580" type="line"/>
      <point x="21" y="580" type="line"/>
      <point x="100.1044776119403" y="435.22388059701495"/>
      <point x="261.8955223880597" y="145.52238805970148"/>
      <point x="341" y="0" type="qcurve"/>
      <point x="436" y="0" type="line"/>
      <point x="757" y="580" type="line"/>
    </contour>
  </outline>
</glyph>
<glyph name="w" format="2">
  <advance width="1071"/>
  <unicode hex="0077"/>
  <outline>
    <contour>
      <point x="957" y="580" type="line"/>
      <point x="793" y="149" type="line"/>
      <point x="594" y="580" type="line"/>
      <point x="486" y="580" type="line"/>
      <point x="299" y="148" type="line"/>
      <point x="123" y="580" type="line"/>
      <point x="35" y="580" type="line"/>
      <point x="92.46268656716418" y="433.7313432835821"/>
      <point x="204.7910447761194" y="147.0149253731343"/>
      <point x="263" y="0" type="qcurve"/>
      <point x="335" y="0" type="line"/>
      <point x="540" y="479" type="line"/>
      <point x="756" y="0" type="line"/>
      <point x="827" y="0" type="line"/>
      <point x="1046" y="580" type="line"/>
    </contour>
  </outline>
</glyph>
<glyph name="x" format="2">
  <advance width="692"/>
  <unicode hex="0078"/>
  <outline>
    <contour>
      <point x="531" y="580" type="line"/>
      <point x="487.7164179104478" y="530.0"/>
      <point x="383.7910447761194" y="409.25373134328356"/>
      <point x="342" y="360" type="qcurve"/>
      <point x="154" y="580" type="line"/>
      <point x="46" y="580" type="line"/>
      <point x="288" y="295" type="line"/>
      <point x="46" y="0" type="line"/>
      <point x="154" y="0" type="line"/>
      <point x="198.02985074626866" y="53.731343283582085"/>
      <point x="298.7164179104478" y="179.01492537313433"/>
      <point x="342" y="232" type="qcurve"/>
      <point x="531" y="0" type="line"/>
      <point x="639" y="0" type="line"/>
      <point x="396" y="295" type="line"/>
      <point x="638" y="580" type="line"/>
    </contour>
  </outline>
</glyph>
<glyph name="y" format="2">
  <advance width="685"/>
  <unicode hex="0079"/>
  <outline>
    <contour>
      <point x="632" y="578" type="line"/>
      <point x="550" y="578" type="line"/>
      <point x="550" y="121" type="line" smooth="yes"/>
      <point x="550.0" y="105.32835820895522"/>
      <point x="526.6716417910447" y="82.0"/>
      <point x="511" y="82" type="qcurve" smooth="yes"/>
      <point x="163" y="82" type="line" smooth="yes"/>
      <point x="147.32835820895522" y="82.0"/>
      <point x="124.0" y="105.32835820895522"/>
      <point x="124" y="121" type="qcurve" smooth="yes"/>
      <point x="124" y="578" type="line"/>
      <point x="42" y="578" type="line"/>
      <point x="42" y="121" type="line" smooth="yes"/>
      <point x="42.0" y="71.0"/>
      <point x="113.0" y="0.0"/>
      <point x="163" y="0" type="qcurve" smooth="yes"/>
      <point x="550" y="0" type="line"/>
      <point x="550" y="-108" type="line" smooth="yes"/>
      <point x="550.0" y="-123.67164179104478"/>
      <point x="526.6716417910447" y="-147.0"/>
      <point x="511" y="-147" type="qcurve" smooth="yes"/>
      <point x="149" y="-147" type="line"/>
      <point x="149" y="-230" type="line"/>
      <point x="511" y="-230" type="line" smooth="yes"/>
      <point x="561.7462686567164" y="-230.0"/>
      <point x="632.0" y="-158.7462686567164"/>
      <point x="632" y="-108" type="qcurve" smooth="yes"/>
    </contour>
  </outline>
</glyph>
<glyph name="braceleft" format="2">
  <advance width="289"/>
  <unicode hex="007B"/>
  <outline>
    <contour>
      <point x="152" y="291" type="line"/>
      <point x="68" y="360" type="line"/>
      <point x="152" y="427" type="line"/>
      <point x="152" y="598" type="line" smooth="yes"/>
      <point x="152.0" y="613.6716417910447"/>
      <point x="175.32835820895522" y="637.0"/>
      <point x="191" y="637" type="qcurve" smooth="yes"/>
      <point x="220" y="637" type="line"/>
      <point x="220" y="720" type="line"/>
      <point x="191" y="720" type="line" smooth="yes"/>
      <point x="141.0" y="720.0"/>
      <point x="70.0" y="648.7462686567164"/>
      <point x="70" y="598" type="qcurve" smooth="yes"/>
      <point x="70" y="434" type="line"/>
      <point x="23" y="409" type="line"/>
      <point x="23" y="313" type="line"/>
      <point x="34.19402985074627" y="306.2835820895522"/>
      <point x="61.04477611940298" y="289.2238805970149"/>
      <point x="70" y="284" type="qcurve"/>
      <point x="70" y="121" type="line" smooth="yes"/>
      <point x="70.0" y="71.0"/>
      <point x="141.0" y="0.0"/>
      <point x="191" y="0" type="qcurve" smooth="yes"/>
      <point x="220" y="0" type="line"/>
      <point x="220" y="82" type="line"/>
      <point x="191" y="82" type="line" smooth="yes"/>
      <point x="175.32835820895522" y="82.0"/>
      <point x="152.0" y="105.32835820895522"/>
      <point x="152" y="121" type="qcurve" smooth="yes"/>
    </contour>
  </outline>
</glyph>
<glyph name="braceright" format="2">
  <advance width="289"/>
  <unicode hex="007D"/>
  <outline>
    <contour>
      <point x="119" y="121" type="line" smooth="yes"/>
      <point x="119.0" y="105.32835820895522"/>
      <point x="95.67164179104478" y="82.0"/>
      <point x="80" y="82" type="qcurve" smooth="yes"/>
      <point x="51" y="82" type="line"/>
      <point x="51" y="0" type="line"/>
      <point x="80" y="0" type="line" smooth="yes"/>
      <point x="130.0" y="0.0"/>
      <point x="201.0" y="71.0"/>
      <point x="201" y="121" type="qcurve" smooth="yes"/>
      <point x="201" y="283" type="line"/>
      <point x="247" y="312" type="line"/>
      <point x="247" y="407" type="line"/>
      <point x="236.55223880597015" y="412.97014925373134"/>
      <point x="211.44776119402985" y="428.7761194029851"/>
      <point x="201" y="434" type="qcurve"/>
      <point x="201" y="598" type="line" smooth="yes"/>
      <point x="201.0" y="648.7462686567164"/>
      <point x="130.0" y="720.0"/>
      <point x="80" y="720" type="qcurve" smooth="yes"/>
      <point x="51" y="720" type="line"/>
      <point x="51" y="637" type="line"/>
      <point x="80" y="637" type="line" smooth="yes"/>
      <point x="95.67164179104478" y="637.0"/>
      <point x="119.0" y="613.6716417910447"/>
      <point x="119" y="598" type="qcurve" smooth="yes"/>
      <point x="119" y="425" type="line"/>
      <point x="203" y="359" type="line"/>
      <point x="119" y="290" type="line"/>
    </contour>
  </outline>
</glyph>
<glyph name="asciitilde" format="2">
  <advance width="404"/>
  <unicode hex="007E"/>
  <outline>
    <contour>
      <point x="295" y="283" type="line"/>
      <point x="239.02985074626866" y="288.97014925373134"/>
      <point x="142.71641791044777" y="354.0"/>
      <point x="86" y="354" type="qcurve" smooth="yes"/>
      <point x="68.08955223880596" y="354.0"/>
      <point x="37.43283582089552" y="349.4776119402985"/>
      <point x="24" y="345" type="qcurve"/>
      <point x="24" y="308" type="line"/>
      <point x="38.92537313432835" y="313.2238805970149"/>
      <point x="74.05970149253731" y="316.0"/>
      <point x="86" y="316" type="qcurve" smooth="yes"/>
      <point x="146.44776119402985" y="316.0"/>
      <point x="242.52238805970148" y="245.0"/>
      <point x="297" y="245" type="qcurve" smooth="yes"/>
      <point x="314.910447761194" y="245.0"/>
      <point x="348.82089552238807" y="252.77611940298507"/>
      <point x="363" y="258" type="qcurve"/>
      <point x="363" y="299" type="line"/>
      <point x="347.32835820895525" y="291.53731343283584"/>
      <point x="314.1641791044776" y="283.0"/>
      <point x="297" y="283" type="qcurve" smooth="yes"/>
    </contour>
  </outline>
</glyph>
<glyph name="cent" format="2">
  <advance width="636"/>
  <unicode hex="00A2"/>
  <outline>
    <contour>
      <point x="621" y="508" type="line"/>
      <point x="621" y="591" type="line"/>
      <point x="369" y="591" type="line"/>
      <point x="369" y="726" type="line"/>
      <point x="287" y="726" type="line"/>
      <point x="287" y="591" type="line"/>
      <point x="154" y="591" type="line" smooth="yes"/>
      <point x="103.25373134328359" y="591.0"/>
      <point x="33.0" y="519.7462686567164"/>
      <point x="33" y="469" type="qcurve" smooth="yes"/>
      <point x="33" y="121" type="line" smooth="yes"/>
      <point x="33.0" y="71.0"/>
      <point x="103.25373134328359" y="0.0"/>
      <point x="154" y="0" type="qcurve" smooth="yes"/>
      <point x="287" y="0" type="line"/>
      <point x="287" y="-115" type="line"/>
      <point x="369" y="-115" type="line"/>
      <point x="369" y="0" type="line"/>
      <point x="621" y="0" type="line"/>
      <point x="621" y="82" type="line"/>
      <point x="369" y="82" type="line"/>
      <point x="369" y="508" type="line"/>
    </contour>
    <contour>
      <point x="287" y="82" type="line"/>
      <point x="154" y="82" type="line" smooth="yes"/>
      <point x="138.32835820895522" y="82.0"/>
      <point x="115.0" y="105.32835820895522"/>
      <point x="115" y="121" type="qcurve" smooth="yes"/>
      <point x="115" y="469" type="line" smooth="yes"/>
      <point x="115.0" y="484.67164179104475"/>
      <point x="138.32835820895522" y="508.0"/>
      <point x="154" y="508" type="qcurve" smooth="yes"/>
      <point x="287" y="508" type="line"/>
    </contour>
  </outline>
</glyph>
<glyph name="sterling" format="2">
  <advance width="734"/>
  <unicode hex="00A3"/>
  <outline>
    <contour>
      <point x="691" y="583" type="line"/>
      <point x="691" y="598" type="line" smooth="yes"/>
      <point x="691.0" y="648.7462686567164"/>
      <point x="619.7462686567164" y="720.0"/>
      <point x="569" y="720" type="qcurve" smooth="yes"/>
      <point x="266" y="720" type="line" smooth="yes"/>
      <point x="215.2537313432836" y="720.0"/>
      <point x="144.0" y="648.7462686567164"/>
      <point x="144" y="598" type="qcurve" smooth="yes"/>
      <point x="144" y="405" type="line"/>
      <point x="39" y="405" type="line"/>
      <point x="39" y="323" type="line"/>
      <point x="144" y="323" type="line"/>
      <point x="144" y="82" type="line"/>
      <point x="39" y="82" type="line"/>
      <point x="39" y="0" type="line"/>
      <point x="691" y="0" type="line"/>
      <point x="691" y="82" type="line"/>
      <point x="227" y="82" type="line"/>
      <point x="227" y="323" type="line"/>
      <point x="579" y="323" type="line"/>
      <point x="579" y="405" type="line"/>
      <point x="227" y="405" type="line"/>
      <point x="227" y="598" type="line" smooth="yes"/>
      <point x="227.0" y="613.6716417910447"/>
      <point x="250.32835820895522" y="637.0"/>
      <point x="266" y="637" type="qcurve" smooth="yes"/>
      <point x="569" y="637" type="line" smooth="yes"/>
      <point x="585.4179104477612" y="637.0"/>
      <point x="608.0" y="613.6716417910447"/>
      <point x="608" y="598" type="qcurve" smooth="yes"/>
      <point x="608" y="583" type="line"/>
    </contour>
  </outline>
</glyph>
<glyph name="degree" format="2">
  <advance width="439"/>
  <unicode hex="00B0"/>
  <outline>
    <contour>
      <point x="167" y="728" type="line" smooth="yes"/>
      <point x="116.25373134328359" y="728.0"/>
      <point x="45.0" y="656.7462686567164"/>
      <point x="45" y="606" type="qcurve" smooth="yes"/>
      <point x="45" y="522" type="line" smooth="yes"/>
      <point x="45.0" y="472.0"/>
      <point x="116.25373134328359" y="401.0"/>
      <point x="167" y="401" type="qcurve" smooth="yes"/>
      <point x="261" y="401" type="line" smooth="yes"/>
      <point x="311.74626865671644" y="401.0"/>
      <point x="383.0" y="472.0"/>
      <point x="383" y="522" type="qcurve" smooth="yes"/>
      <point x="383" y="606" type="line" smooth="yes"/>
      <point x="383.0" y="656.7462686567164"/>
      <point x="311.74626865671644" y="728.0"/>
      <point x="261" y="728" type="qcurve" smooth="yes"/>
    </contour>
    <contour>
      <point x="145" y="462" type="line" smooth="yes"/>
      <point x="129.32835820895522" y="462.0"/>
      <point x="106.0" y="485.32835820895525"/>
      <point x="106" y="501" type="qcurve" smooth="yes"/>
      <point x="106" y="627" type="line" smooth="yes"/>
      <point x="106.0" y="643.4179104477612"/>
      <point x="129.32835820895522" y="666.0"/>
      <point x="145" y="666" type="qcurve" smooth="yes"/>
      <point x="283" y="666" type="line" smooth="yes"/>
      <point x="298.67164179104475" y="666.0"/>
      <point x="322.0" y="643.4179104477612"/>
      <point x="322" y="627" type="qcurve" smooth="yes"/>
      <point x="322" y="501" type="line" smooth="yes"/>
      <point x="322.0" y="485.32835820895525"/>
      <point x="298.67164179104475" y="462.0"/>
      <point x="283" y="462" type="qcurve" smooth="yes"/>
    </contour>
  </outline>
</glyph>
<glyph name="paragraph" format="2">
  <advance width="833"/>
  <unicode hex="00B6"/>
  <outline>
    <contour>
      <point x="56" y="392" type="line" smooth="yes"/>
      <point x="56.0" y="342.74626865671644"/>
      <point x="126.25373134328359" y="271.0"/>
      <point x="177" y="271" type="qcurve" smooth="yes"/>
      <point x="481" y="271" type="line"/>
      <point x="481" y="0" type="line"/>
      <point x="563" y="0" type="line"/>
      <point x="563" y="271" type="line"/>
      <point x="701" y="271" type="line"/>
      <point x="701" y="0" type="line"/>
      <point x="783" y="0" type="line"/>
      <point x="783" y="727" type="line"/>
      <point x="177" y="727" type="line" smooth="yes"/>
      <point x="126.25373134328359" y="727.0"/>
      <point x="56.0" y="655.0"/>
      <point x="56" y="605" type="qcurve" smooth="yes"/>
    </contour>
    <contour>
      <point x="563" y="644" type="line"/>
      <point x="701" y="644" type="line"/>
      <point x="701" y="353" type="line"/>
      <point x="563" y="353" type="line"/>
    </contour>
    <contour>
      <point x="138" y="605" type="line" smooth="yes"/>
      <point x="138.0" y="620.6716417910447"/>
      <point x="161.32835820895522" y="644.0"/>
      <point x="177" y="644" type="qcurve" smooth="yes"/>
      <point x="481" y="644" type="line"/>
      <point x="481" y="353" type="line"/>
      <point x="177" y="353" type="line" smooth="yes"/>
      <point x="161.32835820895522" y="353.0"/>
      <point x="138.0" y="376.32835820895525"/>
      <point x="138" y="392" type="qcurve" smooth="yes"/>
    </contour>
  </outline>
</glyph>
<glyph name="questiondown" format="2">
  <advance width="675"/>
  <unicode hex="00BF"/>
  <outline>
    <contour>
      <point x="656" y="-8" type="line"/>
      <point x="656.0" y="-8.0"/>
      <point x="648.0" y="32.746268656716424"/>
      <point x="648" y="82" type="qcurve"/>
      <point x="140" y="82" type="line" smooth="yes"/>
      <point x="124.32835820895522" y="82.0"/>
      <point x="101.0" y="105.32835820895522"/>
      <point x="101" y="121" type="qcurve" smooth="yes"/>
      <point x="101" y="315" type="line" smooth="yes"/>
      <point x="101.0" y="330.67164179104475"/>
      <point x="124.32835820895522" y="354.0"/>
      <point x="140" y="354" type="qcurve" smooth="yes"/>
      <point x="413" y="354" type="line" smooth="yes"/>
      <point x="463.74626865671644" y="354.0"/>
      <point x="534.0" y="425.25373134328356"/>
      <point x="534" y="476" type="qcurve" smooth="yes"/>
      <point x="534" y="524" type="line"/>
      <point x="452" y="524" type="line"/>
      <point x="452" y="476" type="line" smooth="yes"/>
      <point x="452.0" y="460.32835820895525"/>
      <point x="428.67164179104475" y="437.0"/>
      <point x="413" y="437" type="qcurve" smooth="yes"/>
      <point x="140" y="437" type="line" smooth="yes"/>
      <point x="89.25373134328359" y="437.0"/>
      <point x="19.0" y="365.74626865671644"/>
      <point x="19" y="315" type="qcurve" smooth="yes"/>
      <point x="19" y="121" type="line" smooth="yes"/>
      <point x="19.0" y="71.0"/>
      <point x="89.25373134328359" y="0.0"/>
      <point x="140" y="0" type="qcurve" smooth="yes"/>
    </contour>
    <contour>
      <point x="534" y="728" type="line"/>
      <point x="452" y="728" type="line"/>
      <point x="452" y="645" type="line"/>
      <point x="534" y="645" type="line"/>
    </contour>
  </outline>
</glyph>
<glyph name="Aacute" format="2">
  <advance width="836"/>
  <unicode hex="00C1"/>
  <outline>
    <contour>
      <point x="178" y="720" type="line" smooth="yes"/>
      <point x="128.0" y="720.0"/>
      <point x="58.0" y="650.0"/>
      <point x="58" y="600" type="qcurve" smooth="yes"/>
      <point x="58" y="0" type="line"/>
      <point x="139" y="0" type="line"/>
      <point x="139" y="263" type="line"/>
      <point x="697" y="263" type="line"/>
      <point x="697" y="0" type="line"/>
      <point x="778" y="0" type="line"/>
      <point x="778" y="600" type="line" smooth="yes"/>
      <point x="778.0" y="650.0"/>
      <point x="708.0" y="720.0"/>
      <point x="658" y="720" type="qcurve" smooth="yes"/>
    </contour>
    <contour>
      <point x="139" y="344" type="line"/>
      <point x="139" y="600" type="line" smooth="yes"/>
      <point x="139.0" y="615.6716417910447"/>
      <point x="162.32835820895522" y="639.0"/>
      <point x="178" y="639" type="qcurve" smooth="yes"/>
      <point x="658" y="639" type="line" smooth="yes"/>
      <point x="673.6716417910447" y="639.0"/>
      <point x="697.0" y="615.6716417910447"/>
      <point x="697" y="600" type="qcurve" smooth="yes"/>
      <point x="697" y="344" type="line"/>
    </contour>
    <contour>
      <point x="344" y="864" type="line"/>
      <point x="424" y="864" type="line"/>
      <point x="458" y="1003" type="line"/>
      <point x="379" y="1003" type="line"/>
    </contour>
  </outline>
</glyph>
<glyph name="Atilde" format="2">
  <advance width="836"/>
  <unicode hex="00C3"/>
  <outline>
    <contour>
      <point x="178" y="720" type="line" smooth="yes"/>
      <point x="128.0" y="720.0"/>
      <point x="58.0" y="650.0"/>
      <point x="58" y="600" type="qcurve" smooth="yes"/>
      <point x="58" y="0" type="line"/>
      <point x="139" y="0" type="line"/>
      <point x="139" y="263" type="line"/>
      <point x="697" y="263" type="line"/>
      <point x="697" y="0" type="line"/>
      <point x="778" y="0" type="line"/>
      <point x="778" y="600" type="line" smooth="yes"/>
      <point x="778.0" y="650.0"/>
      <point x="708.0" y="720.0"/>
      <point x="658" y="720" type="qcurve" smooth="yes"/>
    </contour>
    <contour>
      <point x="139" y="344" type="line"/>
      <point x="139" y="600" type="line" smooth="yes"/>
      <point x="139.0" y="615.6716417910447"/>
      <point x="162.32835820895522" y="639.0"/>
      <point x="178" y="639" type="qcurve" smooth="yes"/>
      <point x="658" y="639" type="line" smooth="yes"/>
      <point x="673.6716417910447" y="639.0"/>
      <point x="697.0" y="615.6716417910447"/>
      <point x="697" y="600" type="qcurve" smooth="yes"/>
      <point x="697" y="344" type="line"/>
    </contour>
    <contour>
      <point x="513" y="917" type="line"/>
      <point x="456.2835820895522" y="924.4626865671642"/>
      <point x="359.97014925373134" y="989.0"/>
      <point x="304" y="989" type="qcurve" smooth="yes"/>
      <point x="286.089552238806" y="989.0"/>
      <point x="255.43283582089552" y="984.4776119402985"/>
      <point x="242" y="980" type="qcurve"/>
      <point x="242" y="933" type="line"/>
      <point x="256.92537313432837" y="938.223880597015"/>
      <point x="292.05970149253733" y="941.0"/>
      <point x="304" y="941" type="qcurve" smooth="yes"/>
      <point x="365.19402985074623" y="941.0"/>
      <point x="461.2686567164179" y="869.0"/>
      <point x="515" y="869" type="qcurve" smooth="yes"/>
      <point x="532.9104477611941" y="869.0"/>
      <point x="566.820895522388" y="877.776119402985"/>
      <point x="581" y="883" type="qcurve"/>
      <point x="581" y="934" type="line"/>
      <point x="565.3283582089553" y="926.5373134328358"/>
      <point x="532.1641791044776" y="917.0"/>
      <point x="515" y="917" type="qcurve" smooth="yes"/>
    </contour>
  </outline>
</glyph>
<glyph name="Aring" format="2">
  <advance width="836"/>
  <unicode hex="00C5"/>
  <outline>
    <contour>
      <point x="178" y="720" type="line" smooth="yes"/>
      <point x="128.0" y="720.0"/>
      <point x="58.0" y="650.0"/>
      <point x="58" y="600" type="qcurve" smooth="yes"/>
      <point x="58" y="0" type="line"/>
      <point x="139" y="0" type="line"/>
      <point x="139" y="263" type="line"/>
      <point x="697" y="263" type="line"/>
      <point x="697" y="0" type="line"/>
      <point x="778" y="0" type="line"/>
      <point x="778" y="600" type="line" smooth="yes"/>
      <point x="778.0" y="650.0"/>
      <point x="708.0" y="720.0"/>
      <point x="658" y="720" type="qcurve" smooth="yes"/>
    </contour>
    <contour>
      <point x="139" y="344" type="line"/>
      <point x="139" y="600" type="line" smooth="yes"/>
      <point x="139.0" y="615.6716417910447"/>
      <point x="162.32835820895522" y="639.0"/>
      <point x="178" y="639" type="qcurve" smooth="yes"/>
      <point x="658" y="639" type="line" smooth="yes"/>
      <point x="673.6716417910447" y="639.0"/>
      <point x="697.0" y="615.6716417910447"/>
      <point x="697" y="600" type="qcurve" smooth="yes"/>
      <point x="697" y="344" type="line"/>
    </contour>
    <contour>
      <point x="390" y="981" type="line" smooth="yes"/>
      <point x="367.6119402985075" y="981.0"/>
      <point x="336.0" y="949.6417910447761"/>
      <point x="336" y="928" type="qcurve" smooth="yes"/>
      <point x="336" y="874" type="line" smooth="yes"/>
      <point x="336.0" y="852.3582089552239"/>
      <point x="367.6119402985075" y="821.0"/>
      <point x="390" y="821" type="qcurve" smooth="yes"/>
      <point x="446" y="821" type="line" smooth="yes"/>
      <point x="468.3880597014925" y="821.0"/>
      <point x="500.0" y="852.3582089552239"/>
      <point x="500" y="874" type="qcurve" smooth="yes"/>
      <point x="500" y="928" type="line" smooth="yes"/>
      <point x="500.0" y="949.6417910447761"/>
      <point x="468.3880597014925" y="981.0"/>
      <point x="446" y="981" type="qcurve" smooth="yes"/>
    </contour>
    <contour>
      <point x="385" y="861" type="line" smooth="yes"/>
      <point x="381.2686567164179" y="861.0"/>
      <point x="376.0" y="866.5223880597015"/>
      <point x="376" y="871" type="qcurve" smooth="yes"/>
      <point x="376" y="931" type="line" smooth="yes"/>
      <point x="376.0" y="935.4776119402985"/>
      <point x="381.2686567164179" y="941.0"/>
      <point x="385" y="941" type="qcurve" smooth="yes"/>
      <point x="451" y="941" type="line" smooth="yes"/>
      <point x="454.7313432835821" y="941.0"/>
      <point x="460.0" y="935.4776119402985"/>
      <point x="460" y="931" type="qcurve" smooth="yes"/>
      <point x="460" y="871" type="line" smooth="yes"/>
      <point x="460.0" y="866.5223880597015"/>
      <point x="454.7313432835821" y="861.0"/>
      <point x="451" y="861" type="qcurve" smooth="yes"/>
    </contour>
  </outline>
</glyph>
<glyph name="AE" format="2">
  <advance width="1375"/>
  <unicode hex="00C6"/>
  <outline>
    <contour>
      <point x="774" y="639" type="line"/>
      <point x="1350" y="639" type="line"/>
      <point x="1350" y="720" type="line"/>
      <point x="174" y="720" type="line" smooth="yes"/>
      <point x="124.0" y="720.0"/>
      <point x="54.0" y="650.0"/>
      <point x="54" y="600" type="qcurve" smooth="yes"/>
      <point x="54" y="0" type="line"/>
      <point x="135" y="0" type="line"/>
      <point x="135" y="263" type="line"/>
      <point x="693" y="263" type="line"/>
      <point x="693" y="0" type="line"/>
      <point x="1350" y="0" type="line"/>
      <point x="1350" y="81" type="line"/>
      <point x="774" y="81" type="line"/>
      <point x="774" y="319" type="line"/>
      <point x="1237" y="319" type="line"/>
      <point x="1237" y="401" type="line"/>
      <point x="774" y="401" type="line"/>
    </contour>
    <contour>
      <point x="693" y="344" type="line"/>
      <point x="135" y="344" type="line"/>
      <point x="135" y="600" type="line" smooth="yes"/>
      <point x="135.0" y="615.6716417910447"/>
      <point x="158.32835820895522" y="639.0"/>
      <point x="174" y="639" type="qcurve" smooth="yes"/>
      <point x="654" y="639" type="line" smooth="yes"/>
      <point x="669.6716417910447" y="639.0"/>
      <point x="693.0" y="615.6716417910447"/>
      <point x="693" y="600" type="qcurve" smooth="yes"/>
    </contour>
  </outline>
</glyph>
<glyph name="Ccedilla" format="2">
  <advance width="822"/>
  <unicode hex="00C7"/>
  <outline>
    <contour>
      <point x="774" y="639" type="line"/>
      <point x="774" y="720" type="line"/>
      <point x="176" y="720" type="line" smooth="yes"/>
      <point x="126.0" y="720.0"/>
      <point x="56.0" y="650.0"/>
      <point x="56" y="600" type="qcurve" smooth="yes"/>
      <point x="56" y="120" type="line" smooth="yes"/>
      <point x="56.0" y="70.0"/>
      <point x="126.0" y="0.0"/>
      <point x="176" y="0" type="qcurve" smooth="yes"/>
      <point x="372" y="0" type="line"/>
      <point x="337" y="-139" type="line"/>
      <point x="417" y="-139" type="line"/>
      <point x="451" y="0" type="line"/>
      <point x="774" y="0" type="line"/>
      <point x="774" y="81" type="line"/>
      <point x="176" y="81" type="line" smooth="yes"/>
      <point x="160.32835820895522" y="81.0"/>
      <point x="137.0" y="104.32835820895522"/>
      <point x="137" y="120" type="qcurve" smooth="yes"/>
      <point x="137" y="600" type="line" smooth="yes"/>
      <point x="137.0" y="615.6716417910447"/>
      <point x="160.32835820895522" y="639.0"/>
      <point x="176" y="639" type="qcurve" smooth="yes"/>
    </contour>
  </outline>
</glyph>
<glyph name="Egrave" format="2">
  <advance width="766"/>
  <unicode hex="00C8"/>
  <outline>
    <contour>
      <point x="715" y="720" type="line"/>
      <point x="58" y="720" type="line"/>
      <point x="58" y="0" type="line"/>
      <point x="715" y="0" type="line"/>
      <point x="715" y="81" type="line"/>
      <point x="139" y="81" type="line"/>
      <point x="139" y="319" type="line"/>
      <point x="602" y="319" type="line"/>
      <point x="602" y="401" type="line"/>
      <point x="139" y="401" type="line"/>
      <point x="139" y="639" type="line"/>
      <point x="715" y="639" type="line"/>
    </contour>
    <contour>
      <point x="390" y="1004" type="line"/>
      <point x="309" y="1004" type="line"/>
      <point x="318.7014925373134" y="965.9402985074627"/>
      <point x="334.2985074626866" y="905.2985074626865"/>
      <point x="344" y="865" type="qcurve"/>
      <point x="424" y="865" type="line"/>
    </contour>
  </outline>
</glyph>
<glyph name="Igrave" format="2">
  <advance width="220"/>
  <unicode hex="00CC"/>
  <outline>
    <contour>
      <point x="57" y="0" type="line"/>
      <point x="138" y="0" type="line"/>
      <point x="138" y="720" type="line"/>
      <point x="57" y="720" type="line"/>
    </contour>
    <contour>
      <point x="117" y="1004" type="line"/>
      <point x="36" y="1004" type="line"/>
      <point x="45.70149253731343" y="965.9402985074627"/>
      <point x="61.29850746268657" y="905.2985074626865"/>
      <point x="71" y="865" type="qcurve"/>
      <point x="151" y="865" type="line"/>
    </contour>
  </outline>
</glyph>
<glyph name="Ntilde" format="2">
  <advance width="832"/>
  <unicode hex="00D1"/>
  <outline>
    <contour>
      <point x="695" y="92" type="line"/>
      <point x="167" y="720" type="line"/>
      <point x="56" y="720" type="line"/>
      <point x="56" y="0" type="line"/>
      <point x="137" y="0" type="line"/>
      <point x="137" y="628" type="line"/>
      <point x="665" y="0" type="line"/>
      <point x="776" y="0" type="line"/>
      <point x="776" y="720" type="line"/>
      <point x="695" y="720" type="line"/>
    </contour>
    <contour>
      <point x="511" y="917" type="line"/>
      <point x="454.2835820895522" y="924.4626865671642"/>
      <point x="357.97014925373134" y="989.0"/>
      <point x="302" y="989" type="qcurve" smooth="yes"/>
      <point x="284.089552238806" y="989.0"/>
      <point x="253.43283582089552" y="984.4776119402985"/>
      <point x="240" y="980" type="qcurve"/>
      <point x="240" y="933" type="line"/>
      <point x="254.92537313432837" y="938.223880597015"/>
      <point x="290.05970149253733" y="941.0"/>
      <point x="302" y="941" type="qcurve" smooth="yes"/>
      <point x="363.19402985074623" y="941.0"/>
      <point x="459.2686567164179" y="869.0"/>
      <point x="513" y="869" type="qcurve" smooth="yes"/>
      <point x="530.9104477611941" y="869.0"/>
      <point x="564.820895522388" y="877.776119402985"/>
      <point x="579" y="883" type="qcurve"/>
      <point x="579" y="934" type="line"/>
      <point x="563.3283582089553" y="926.5373134328358"/>
      <point x="530.1641791044776" y="917.0"/>
      <point x="513" y="917" type="qcurve" smooth="yes"/>
    </contour>
  </outline>
</glyph>
<glyph name="Ograve" format="2">
  <advance width="828"/>
  <unicode hex="00D2"/>
  <outline>
    <contour>
      <point x="174" y="720" type="line" smooth="yes"/>
      <point x="124.0" y="720.0"/>
      <point x="54.0" y="650.0"/>
      <point x="54" y="600" type="qcurve" smooth="yes"/>
      <point x="54" y="120" type="line" smooth="yes"/>
      <point x="54.0" y="70.0"/>
      <point x="124.0" y="0.0"/>
      <point x="174" y="0" type="qcurve" smooth="yes"/>
      <point x="654" y="0" type="line" smooth="yes"/>
      <point x="704.0" y="0.0"/>
      <point x="774.0" y="70.0"/>
      <point x="774" y="120" type="qcurve" smooth="yes"/>
      <point x="774" y="600" type="line" smooth="yes"/>
      <point x="774.0" y="650.0"/>
      <point x="704.0" y="720.0"/>
      <point x="654" y="720" type="qcurve" smooth="yes"/>
    </contour>
    <contour>
      <point x="174" y="81" type="line" smooth="yes"/>
      <point x="158.32835820895522" y="81.0"/>
      <point x="135.0" y="104.32835820895522"/>
      <point x="135" y="120" type="qcurve" smooth="yes"/>
      <point x="135" y="600" type="line" smooth="yes"/>
      <point x="135.0" y="615.6716417910447"/>
      <point x="158.32835820895522" y="639.0"/>
      <point x="174" y="639" type="qcurve" smooth="yes"/>
      <point x="654" y="639" type="line" smooth="yes"/>
      <point x="669.6716417910447" y="639.0"/>
      <point x="693.0" y="615.6716417910447"/>
      <point x="693" y="600" type="qcurve" smooth="yes"/>
      <point x="693" y="120" type="line" smooth="yes"/>
      <point x="693.0" y="104.32835820895522"/>
      <point x="669.6716417910447" y="81.0"/>
      <point x="654" y="81" type="qcurve" smooth="yes"/>
    </contour>
    <contour>
      <point x="421" y="1004" type="line"/>
      <point x="340" y="1004" type="line"/>
      <point x="349.7014925373134" y="965.9402985074627"/>
      <point x="365.2985074626866" y="905.2985074626865"/>
      <point x="375" y="865" type="qcurve"/>
      <point x="455" y="865" type="line"/>
    </contour>
  </outline>
</glyph>
<glyph name="Otilde" format="2">
  <advance width="828"/>
  <unicode hex="00D5"/>
  <outline>
    <contour>
      <point x="174" y="720" type="line" smooth="yes"/>
      <point x="124.0" y="720.0"/>
      <point x="54.0" y="650.0"/>
      <point x="54" y="600" type="qcurve" smooth="yes"/>
      <point x="54" y="120" type="line" smooth="yes"/>
      <point x="54.0" y="70.0"/>
      <point x="124.0" y="0.0"/>
      <point x="174" y="0" type="qcurve" smooth="yes"/>
      <point x="654" y="0" type="line" smooth="yes"/>
      <point x="704.0" y="0.0"/>
      <point x="774.0" y="70.0"/>
      <point x="774" y="120" type="qcurve" smooth="yes"/>
      <point x="774" y="600" type="line" smooth="yes"/>
      <point x="774.0" y="650.0"/>
      <point x="704.0" y="720.0"/>
      <point x="654" y="720" type="qcurve" smooth="yes"/>
    </contour>
    <contour>
      <point x="174" y="81" type="line" smooth="yes"/>
      <point x="158.32835820895522" y="81.0"/>
      <point x="135.0" y="104.32835820895522"/>
      <point x="135" y="120" type="qcurve" smooth="yes"/>
      <point x="135" y="600" type="line" smooth="yes"/>
      <point x="135.0" y="615.6716417910447"/>
      <point x="158.32835820895522" y="639.0"/>
      <point x="174" y="639" type="qcurve" smooth="yes"/>
      <point x="654" y="639" type="line" smooth="yes"/>
      <point x="669.6716417910447" y="639.0"/>
      <point x="693.0" y="615.6716417910447"/>
      <point x="693" y="600" type="qcurve" smooth="yes"/>
      <point x="693" y="120" type="line" smooth="yes"/>
      <point x="693.0" y="104.32835820895522"/>
      <point x="669.6716417910447" y="81.0"/>
      <point x="654" y="81" type="qcurve" smooth="yes"/>
    </contour>
    <contour>
      <point x="509" y="917" type="line"/>
      <point x="452.2835820895522" y="924.4626865671642"/>
      <point x="355.97014925373134" y="989.0"/>
      <point x="300" y="989" type="qcurve" smooth="yes"/>
      <point x="282.089552238806" y="989.0"/>
      <point x="251.43283582089552" y="984.4776119402985"/>
      <point x="238" y="980" type="qcurve"/>
      <point x="238" y="933" type="line"/>
      <point x="252.92537313432837" y="938.223880597015"/>
      <point x="288.05970149253733" y="941.0"/>
      <point x="300" y="941" type="qcurve" smooth="yes"/>
      <point x="361.19402985074623" y="941.0"/>
      <point x="457.2686567164179" y="869.0"/>
      <point x="511" y="869" type="qcurve" smooth="yes"/>
      <point x="528.9104477611941" y="869.0"/>
      <point x="562.820895522388" y="877.776119402985"/>
      <point x="577" y="883" type="qcurve"/>
      <point x="577" y="934" type="line"/>
      <point x="561.3283582089553" y="926.5373134328358"/>
      <point x="528.1641791044776" y="917.0"/>
      <point x="511" y="917" type="qcurve" smooth="yes"/>
    </contour>
  </outline>
</glyph>
<glyph name="Odieresis" format="2">
  <advance width="828"/>
  <unicode hex="00D6"/>
  <outline>
    <contour>
      <point x="174" y="720" type="line" smooth="yes"/>
      <point x="124.0" y="720.0"/>
      <point x="54.0" y="650.0"/>
      <point x="54" y="600" type="qcurve" smooth="yes"/>
      <point x="54" y="120" type="line" smooth="yes"/>
      <point x="54.0" y="70.0"/>
      <point x="124.0" y="0.0"/>
      <point x="174" y="0" type="qcurve" smooth="yes"/>
      <point x="654" y="0" type="line" smooth="yes"/>
      <point x="704.0" y="0.0"/>
      <point x="774.0" y="70.0"/>
      <point x="774" y="120" type="qcurve" smooth="yes"/>
      <point x="774" y="600" type="line" smooth="yes"/>
      <point x="774.0" y="650.0"/>
      <point x="704.0" y="720.0"/>
      <point x="654" y="720" type="qcurve" smooth="yes"/>
    </contour>
    <contour>
      <point x="174" y="81" type="line" smooth="yes"/>
      <point x="158.32835820895522" y="81.0"/>
      <point x="135.0" y="104.32835820895522"/>
      <point x="135" y="120" type="qcurve" smooth="yes"/>
      <point x="135" y="600" type="line" smooth="yes"/>
      <point x="135.0" y="615.6716417910447"/>
      <point x="158.32835820895522" y="639.0"/>
      <point x="174" y="639" type="qcurve" smooth="yes"/>
      <point x="654" y="639" type="line" smooth="yes"/>
      <point x="669.6716417910447" y="639.0"/>
      <point x="693.0" y="615.6716417910447"/>
      <point x="693" y="600" type="qcurve" smooth="yes"/>
      <point x="693" y="120" type="line" smooth="yes"/>
      <point x="693.0" y="104.32835820895522"/>
      <point x="669.6716417910447" y="81.0"/>
      <point x="654" y="81" type="qcurve" smooth="yes"/>
    </contour>
    <contour>
      <point x="537" y="947" type="line"/>
      <point x="455" y="947" type="line"/>
      <point x="455" y="865" type="line"/>
      <point x="537" y="865" type="line"/>
    </contour>
    <contour>
      <point x="358" y="947" type="line"/>
      <point x="275" y="947" type="line"/>
      <point x="275" y="865" type="line"/>
      <point x="358" y="865" type="line"/>
    </contour>
  </outline>
</glyph>
<glyph name="multiply" format="2">
  <advance width="546"/>
  <unicode hex="00D7"/>
  <outline>
    <contour>
      <point x="161" y="506" type="line"/>
      <point x="53" y="506" type="line"/>
      <point x="91.0597014925373" y="456.74626865671644"/>
      <point x="174.6865671641791" y="349.5074626865672"/>
      <point x="212" y="301" type="qcurve"/>
      <point x="54" y="95" type="line"/>
      <point x="161" y="95" type="line"/>
      <point x="184.88059701492537" y="127.83582089552239"/>
      <point x="243.61194029850748" y="207.65671641791045"/>
      <point x="266" y="239" type="qcurve"/>
      <point x="372" y="95" type="line"/>
      <point x="478" y="95" type="line"/>
      <point x="320" y="301" type="line"/>
      <point x="478" y="506" type="line"/>
      <point x="372" y="506" type="line"/>
      <point x="348.11940298507466" y="473.1641791044776"/>
      <point x="289.13432835820896" y="393.34328358208955"/>
      <point x="266" y="362" type="qcurve"/>
    </contour>
  </outline>
</glyph>
<glyph name="Uacute" format="2">
  <advance width="828"/>
  <unicode hex="00DA"/>
  <outline>
    <contour>
      <point x="693" y="120" type="line" smooth="yes"/>
      <point x="693.0" y="104.32835820895522"/>
      <point x="669.6716417910447" y="81.0"/>
      <point x="654" y="81" type="qcurve" smooth="yes"/>
      <point x="174" y="81" type="line" smooth="yes"/>
      <point x="158.32835820895522" y="81.0"/>
      <point x="135.0" y="104.32835820895522"/>
      <point x="135" y="120" type="qcurve" smooth="yes"/>
      <point x="135" y="720" type="line"/>
      <point x="54" y="720" type="line"/>
      <point x="54" y="120" type="line" smooth="yes"/>
      <point x="54.0" y="70.0"/>
      <point x="124.0" y="0.0"/>
      <point x="174" y="0" type="qcurve" smooth="yes"/>
      <point x="654" y="0" type="line" smooth="yes"/>
      <point x="704.0" y="0.0"/>
      <point x="774.0" y="70.0"/>
      <point x="774" y="120" type="qcurve" smooth="yes"/>
      <point x="774" y="720" type="line"/>
      <point x="693" y="720" type="line"/>
    </contour>
    <contour>
      <point x="340" y="865" type="line"/>
      <point x="420" y="865" type="line"/>
      <point x="454" y="1004" type="line"/>
      <point x="375" y="1004" type="line"/>
    </contour>
  </outline>
</glyph>
<glyph name="Ucircumflex" format="2">
  <advance width="828"/>
  <unicode hex="00DB"/>
  <outline>
    <contour>
      <point x="693" y="120" type="line" smooth="yes"/>
      <point x="693.0" y="104.32835820895522"/>
      <point x="669.6716417910447" y="81.0"/>
      <point x="654" y="81" type="qcurve" smooth="yes"/>
      <point x="174" y="81" type="line" smooth="yes"/>
      <point x="158.32835820895522" y="81.0"/>
      <point x="135.0" y="104.32835820895522"/>
      <point x="135" y="120" type="qcurve" smooth="yes"/>
      <point x="135" y="720" type="line"/>
      <point x="54" y="720" type="line"/>
      <point x="54" y="120" type="line" smooth="yes"/>
      <point x="54.0" y="70.0"/>
      <point x="124.0" y="0.0"/>
      <point x="174" y="0" type="qcurve" smooth="yes"/>
      <point x="654" y="0" type="line" smooth="yes"/>
      <point x="704.0" y="0.0"/>
      <point x="774.0" y="70.0"/>
      <point x="774" y="120" type="qcurve" smooth="yes"/>
      <point x="774" y="720" type="line"/>
      <point x="693" y="720" type="line"/>
    </contour>
    <contour>
      <point x="333" y="864" type="line"/>
      <point x="393" y="949" type="line"/>
      <point x="451" y="864" type="line"/>
      <point x="493" y="864" type="line"/>
      <point x="422" y="981" type="line"/>
      <point x="363" y="981" type="line"/>
      <point x="292" y="864" type="line"/>
    </contour>
  </outline>
</glyph>
<glyph name="germandbls" format="2">
  <advance width="833"/>
  <unicode hex="00DF"/>
  <outline>
    <contour>
      <point x="784" y="626" type="line"/>
      <point x="772.8059701492538" y="664.8059701492538"/>
      <point x="704.7910447761194" y="728.0"/>
      <point x="663" y="728" type="qcurve" smooth="yes"/>
      <point x="178" y="728" type="line" smooth="yes"/>
      <point x="127.25373134328359" y="728.0"/>
      <point x="57.0" y="656.7462686567164"/>
      <point x="57" y="606" type="qcurve" smooth="yes"/>
      <point x="57" y="0" type="line"/>
      <point x="139" y="0" type="line"/>
      <point x="139" y="605" type="line" smooth="yes"/>
      <point x="139.0" y="620.6716417910447"/>
      <point x="162.32835820895522" y="644.0"/>
      <point x="178" y="644" type="qcurve" smooth="yes"/>
      <point x="663" y="644" type="line" smooth="yes"/>
      <point x="678.6716417910447" y="644.0"/>
      <point x="702.0" y="620.6716417910447"/>
      <point x="702" y="605" type="qcurve" smooth="yes"/>
      <point x="702" y="443" type="line" smooth="yes"/>
      <point x="702.0" y="427.32835820895525"/>
      <point x="678.6716417910447" y="404.0"/>
      <point x="663" y="404" type="qcurve" smooth="yes"/>
      <point x="284" y="404" type="line"/>
      <point x="284" y="333" type="line"/>
      <point x="663" y="333" type="line" smooth="yes"/>
      <point x="678.6716417910447" y="333.0"/>
      <point x="702.0" y="309.67164179104475"/>
      <point x="702" y="294" type="qcurve" smooth="yes"/>
      <point x="702" y="121" type="line" smooth="yes"/>
      <point x="702.0" y="105.32835820895522"/>
      <point x="678.6716417910447" y="82.0"/>
      <point x="663" y="82" type="qcurve" smooth="yes"/>
      <point x="284" y="82" type="line"/>
      <point x="284" y="0" type="line"/>
      <point x="663" y="0" type="line" smooth="yes"/>
      <point x="713.0" y="0.0"/>
      <point x="784.0" y="71.0"/>
      <point x="784" y="121" type="qcurve" smooth="yes"/>
      <point x="784" y="294" type="line" smooth="yes"/>
      <point x="784.0" y="314.14925373134326"/>
      <point x="768.179104477612" y="355.34328358208955"/>
      <point x="754" y="374" type="qcurve"/>
      <point x="768.179104477612" y="393.4029850746269"/>
      <point x="784.0" y="434.85074626865674"/>
      <point x="784" y="455" type="qcurve" smooth="yes"/>
    </contour>
  </outline>
</glyph>
<glyph name="agrave" format="2">
  <advance width="725"/>
  <unicode hex="00E0"/>
  <outline>
    <contour>
      <point x="52" y="580" type="line"/>
      <point x="52" y="498" type="line"/>
      <point x="521" y="498" type="line" smooth="yes"/>
      <point x="537.4179104477612" y="498.0"/>
      <point x="560.0" y="474.67164179104475"/>
      <point x="560" y="459" type="qcurve" smooth="yes"/>
      <point x="560" y="331" type="line"/>
      <point x="52" y="331" type="line"/>
      <point x="52" y="121" type="line" smooth="yes"/>
      <point x="52.0" y="71.0"/>
      <point x="123.0" y="0.0"/>
      <point x="173" y="0" type="qcurve" smooth="yes"/>
      <point x="643" y="0" type="line"/>
      <point x="643" y="459" type="line" smooth="yes"/>
      <point x="643.0" y="509.0"/>
      <point x="571.7462686567164" y="580.0"/>
      <point x="521" y="580" type="qcurve" smooth="yes"/>
    </contour>
    <contour>
      <point x="560" y="82" type="line"/>
      <point x="173" y="82" type="line" smooth="yes"/>
      <point x="157.32835820895522" y="82.0"/>
      <point x="134.0" y="105.32835820895522"/>
      <point x="134" y="121" type="qcurve" smooth="yes"/>
      <point x="134" y="249" type="line"/>
      <point x="560" y="249" type="line"/>
    </contour>
    <contour>
      <point x="369" y="902" type="line"/>
      <point x="288" y="902" type="line"/>
      <point x="297.7014925373134" y="863.9402985074627"/>
      <point x="313.2985074626866" y="803.2985074626865"/>
      <point x="323" y="763" type="qcurve"/>
      <point x="403" y="763" type="line"/>
    </contour>
  </outline>
</glyph>
<glyph name="atilde" format="2">
  <advance width="725"/>
  <unicode hex="00E3"/>
  <outline>
    <contour>
      <point x="52" y="580" type="line"/>
      <point x="52" y="498" type="line"/>
      <point x="521" y="498" type="line" smooth="yes"/>
      <point x="537.4179104477612" y="498.0"/>
      <point x="560.0" y="474.67164179104475"/>
      <point x="560" y="459" type="qcurve" smooth="yes"/>
      <point x="560" y="331" type="line"/>
      <point x="52" y="331" type="line"/>
      <point x="52" y="121" type="line" smooth="yes"/>
      <point x="52.0" y="71.0"/>
      <point x="123.0" y="0.0"/>
      <point x="173" y="0" type="qcurve" smooth="yes"/>
      <point x="643" y="0" type="line"/>
      <point x="643" y="459" type="line" smooth="yes"/>
      <point x="643.0" y="509.0"/>
      <point x="571.7462686567164" y="580.0"/>
      <point x="521" y="580" type="qcurve" smooth="yes"/>
    </contour>
    <contour>
      <point x="560" y="82" type="line"/>
      <point x="173" y="82" type="line" smooth="yes"/>
      <point x="157.32835820895522" y="82.0"/>
      <point x="134.0" y="105.32835820895522"/>
      <point x="134" y="121" type="qcurve" smooth="yes"/>
      <point x="134" y="249" type="line"/>
      <point x="560" y="249" type="line"/>
    </contour>
    <contour>
      <point x="457" y="814" type="line"/>
      <point x="400.2835820895522" y="821.4626865671642"/>
      <point x="303.97014925373134" y="886.0"/>
      <point x="248" y="886" type="qcurve" smooth="yes"/>
      <point x="230.08955223880596" y="886.0"/>
      <point x="199.43283582089552" y="881.4776119402985"/>
      <point x="186" y="877" type="qcurve"/>
      <point x="186" y="830" type="line"/>
      <point x="200.92537313432837" y="835.223880597015"/>
      <point x="236.05970149253733" y="838.0"/>
      <point x="248" y="838" type="qcurve" smooth="yes"/>
      <point x="309.19402985074623" y="838.0"/>
      <point x="405.2686567164179" y="766.0"/>
      <point x="459" y="766" type="qcurve" smooth="yes"/>
      <point x="476.910447761194" y="766.0"/>
      <point x="510.82089552238807" y="774.776119402985"/>
      <point x="525" y="780" type="qcurve"/>
      <point x="525" y="831" type="line"/>
      <point x="509.32835820895525" y="823.5373134328358"/>
      <point x="476.1641791044776" y="814.0"/>
      <point x="459" y="814" type="qcurve" smooth="yes"/>
    </contour>
  </outline>
</glyph>
<glyph name="adieresis" format="2">
  <advance width="725"/>
  <unicode hex="00E4"/>
  <outline>
    <contour>
      <point x="52" y="580" type="line"/>
      <point x="52" y="498" type="line"/>
      <point x="521" y="498" type="line" smooth="yes"/>
      <point x="537.4179104477612" y="498.0"/>
      <point x="560.0" y="474.67164179104475"/>
      <point x="560" y="459" type="qcurve" smooth="yes"/>
      <point x="560" y="331" type="line"/>
      <point x="52" y="331" type="line"/>
      <point x="52" y="121" type="line" smooth="yes"/>
      <point x="52.0" y="71.0"/>
      <point x="123.0" y="0.0"/>
      <point x="173" y="0" type="qcurve" smooth="yes"/>
      <point x="643" y="0" type="line"/>
      <point x="643" y="459" type="line" smooth="yes"/>
      <point x="643.0" y="509.0"/>
      <point x="571.7462686567164" y="580.0"/>
      <point x="521" y="580" type="qcurve" smooth="yes"/>
    </contour>
    <contour>
      <point x="560" y="82" type="line"/>
      <point x="173" y="82" type="line" smooth="yes"/>
      <point x="157.32835820895522" y="82.0"/>
      <point x="134.0" y="105.32835820895522"/>
      <point x="134" y="121" type="qcurve" smooth="yes"/>
      <point x="134" y="249" type="line"/>
      <point x="560" y="249" type="line"/>
    </contour>
    <contour>
      <point x="485" y="845" type="line"/>
      <point x="403" y="845" type="line"/>
      <point x="403" y="763" type="line"/>
      <point x="485" y="763" type="line"/>
    </contour>
    <contour>
      <point x="306" y="845" type="line"/>
      <point x="223" y="845" type="line"/>
      <point x="223" y="763" type="line"/>
      <point x="306" y="763" type="line"/>
    </contour>
  </outline>
</glyph>
<glyph name="aring" format="2">
  <advance width="725"/>
  <unicode hex="00E5"/>
  <outline>
    <contour>
      <point x="52" y="580" type="line"/>
      <point x="52" y="498" type="line"/>
      <point x="521" y="498" type="line" smooth="yes"/>
      <point x="537.4179104477612" y="498.0"/>
      <point x="560.0" y="474.67164179104475"/>
      <point x="560" y="459" type="qcurve" smooth="yes"/>
      <point x="560" y="331" type="line"/>
      <point x="52" y="331" type="line"/>
      <point x="52" y="121" type="line" smooth="yes"/>
      <point x="52.0" y="71.0"/>
      <point x="123.0" y="0.0"/>
      <point x="173" y="0" type="qcurve" smooth="yes"/>
      <point x="643" y="0" type="line"/>
      <point x="643" y="459" type="line" smooth="yes"/>
      <point x="643.0" y="509.0"/>
      <point x="571.7462686567164" y="580.0"/>
      <point x="521" y="580" type="qcurve" smooth="yes"/>
    </contour>
    <contour>
      <point x="560" y="82" type="line"/>
      <point x="173" y="82" type="line" smooth="yes"/>
      <point x="157.32835820895522" y="82.0"/>
      <point x="134.0" y="105.32835820895522"/>
      <point x="134" y="121" type="qcurve" smooth="yes"/>
      <point x="134" y="249" type="line"/>
      <point x="560" y="249" type="line"/>
    </contour>
    <contour>
      <point x="334" y="878" type="line" smooth="yes"/>
      <point x="311.6119402985075" y="878.0"/>
      <point x="280.0" y="846.6417910447761"/>
      <point x="280" y="825" type="qcurve" smooth="yes"/>
      <point x="280" y="771" type="line" smooth="yes"/>
      <point x="280.0" y="749.3582089552239"/>
      <point x="311.6119402985075" y="718.0"/>
      <point x="334" y="718" type="qcurve" smooth="yes"/>
      <point x="390" y="718" type="line" smooth="yes"/>
      <point x="412.3880597014925" y="718.0"/>
      <point x="444.0" y="749.3582089552239"/>
      <point x="444" y="771" type="qcurve" smooth="yes"/>
      <point x="444" y="825" type="line" smooth="yes"/>
      <point x="444.0" y="846.6417910447761"/>
      <point x="412.3880597014925" y="878.0"/>
      <point x="390" y="878" type="qcurve" smooth="yes"/>
    </contour>
    <contour>
      <point x="329" y="758" type="line" smooth="yes"/>
      <point x="325.2686567164179" y="758.0"/>
      <point x="320.0" y="763.5223880597015"/>
      <point x="320" y="768" type="qcurve" smooth="yes"/>
      <point x="320" y="828" type="line" smooth="yes"/>
      <point x="320.0" y="832.4776119402985"/>
      <point x="325.2686567164179" y="838.0"/>
      <point x="329" y="838" type="qcurve" smooth="yes"/>
      <point x="395" y="838" type="line" smooth="yes"/>
      <point x="398.7313432835821" y="838.0"/>
      <point x="404.0" y="832.4776119402985"/>
      <point x="404" y="828" type="qcurve" smooth="yes"/>
      <point x="404" y="768" type="line" smooth="yes"/>
      <point x="404.0" y="763.5223880597015"/>
      <point x="398.7313432835821" y="758.0"/>
      <point x="395" y="758" type="qcurve" smooth="yes"/>
    </contour>
  </outline>
</glyph>
<glyph name="ae" format="2">
  <advance width="1178"/>
  <unicode hex="00E6"/>
  <outline>
    <contour>
      <point x="53" y="580" type="line"/>
      <point x="53" y="498" type="line"/>
      <point x="522" y="498" type="line" smooth="yes"/>
      <point x="537.6716417910447" y="498.0"/>
      <point x="561.0" y="474.67164179104475"/>
      <point x="561" y="459" type="qcurve" smooth="yes"/>
      <point x="561" y="331" type="line"/>
      <point x="53" y="331" type="line"/>
      <point x="53" y="121" type="line" smooth="yes"/>
      <point x="53.0" y="71.0"/>
      <point x="123.25373134328359" y="0.0"/>
      <point x="174" y="0" type="qcurve" smooth="yes"/>
      <point x="1151" y="0" type="line"/>
      <point x="1151" y="82" type="line"/>
      <point x="682" y="82" type="line" smooth="yes"/>
      <point x="667.0746268656717" y="82.0"/>
      <point x="644.4925373134329" y="102.07462686567165"/>
      <point x="643" y="117" type="qcurve"/>
      <point x="643" y="249" type="line"/>
      <point x="1151" y="249" type="line"/>
      <point x="1151" y="459" type="line" smooth="yes"/>
      <point x="1151.0" y="509.0"/>
      <point x="1080.7462686567164" y="580.0"/>
      <point x="1030" y="580" type="qcurve" smooth="yes"/>
    </contour>
    <contour>
      <point x="561" y="82" type="line"/>
      <point x="174" y="82" type="line" smooth="yes"/>
      <point x="158.32835820895522" y="82.0"/>
      <point x="135.0" y="105.32835820895522"/>
      <point x="135" y="121" type="qcurve" smooth="yes"/>
      <point x="135" y="249" type="line"/>
      <point x="561" y="249" type="line"/>
    </contour>
    <contour>
      <point x="643" y="331" type="line"/>
      <point x="643" y="459" type="line" smooth="yes"/>
      <point x="643.0" y="474.67164179104475"/>
      <point x="666.3283582089553" y="498.0"/>
      <point x="682" y="498" type="qcurve" smooth="yes"/>
      <point x="1030" y="498" type="line" smooth="yes"/>
      <point x="1045.6716417910447" y="498.0"/>
      <point x="1069.0" y="474.67164179104475"/>
      <point x="1069" y="459" type="qcurve" smooth="yes"/>
      <point x="1069" y="331" type="line"/>
    </contour>
  </outline>
</glyph>
<glyph name="ccedilla" format="2">
  <advance width="693"/>
  <unicode hex="00E7"/>
  <outline>
    <contour>
      <point x="172" y="82" type="line" smooth="yes"/>
      <point x="156.32835820895522" y="82.0"/>
      <point x="133.0" y="105.32835820895522"/>
      <point x="133" y="121" type="qcurve" smooth="yes"/>
      <point x="133" y="459" type="line" smooth="yes"/>
      <point x="133.0" y="474.67164179104475"/>
      <point x="156.32835820895522" y="498.0"/>
      <point x="172" y="498" type="qcurve" smooth="yes"/>
      <point x="640" y="498" type="line"/>
      <point x="640" y="580" type="line"/>
      <point x="172" y="580" type="line" smooth="yes"/>
      <point x="122.0" y="580.0"/>
      <point x="51.0" y="509.0"/>
      <point x="51" y="459" type="qcurve" smooth="yes"/>
      <point x="51" y="121" type="line" smooth="yes"/>
      <point x="51.0" y="71.0"/>
      <point x="122.0" y="0.0"/>
      <point x="172" y="0" type="qcurve" smooth="yes"/>
      <point x="307" y="0" type="line"/>
      <point x="272" y="-139" type="line"/>
      <point x="352" y="-139" type="line"/>
      <point x="386" y="0" type="line"/>
      <point x="642" y="0" type="line"/>
      <point x="642" y="82" type="line"/>
    </contour>
  </outline>
</glyph>
<glyph name="igrave" format="2">
  <advance width="214"/>
  <unicode hex="00EC"/>
  <outline>
    <contour>
      <point x="56" y="0" type="line"/>
      <point x="138" y="0" type="line"/>
      <point x="138" y="580" type="line"/>
      <point x="56" y="580" type="line"/>
    </contour>
    <contour>
      <point x="97" y="903" type="line"/>
      <point x="16" y="903" type="line"/>
      <point x="25.70149253731343" y="864.9402985074627"/>
      <point x="41.29850746268657" y="804.2985074626865"/>
      <point x="51" y="764" type="qcurve"/>
      <point x="131" y="764" type="line"/>
    </contour>
  </outline>
</glyph>
<glyph name="ntilde" format="2">
  <advance width="708"/>
  <unicode hex="00F1"/>
  <outline>
    <contour>
      <point x="54" y="580" type="line"/>
      <point x="54" y="0" type="line"/>
      <point x="136" y="0" type="line"/>
      <point x="136" y="459" type="line" smooth="yes"/>
      <point x="136.0" y="474.67164179104475"/>
      <point x="159.5820895522388" y="498.0"/>
      <point x="176" y="498" type="qcurve" smooth="yes"/>
      <point x="524" y="498" type="line" smooth="yes"/>
      <point x="539.6716417910447" y="498.0"/>
      <point x="563.0" y="474.67164179104475"/>
      <point x="563" y="459" type="qcurve" smooth="yes"/>
      <point x="563" y="0" type="line"/>
      <point x="645" y="0" type="line"/>
      <point x="645" y="459" type="line" smooth="yes"/>
      <point x="645.0" y="509.0"/>
      <point x="574.0" y="580.0"/>
      <point x="524" y="580" type="qcurve" smooth="yes"/>
    </contour>
    <contour>
      <point x="449" y="813" type="line"/>
      <point x="392.2835820895522" y="820.4626865671642"/>
      <point x="295.97014925373134" y="885.0"/>
      <point x="240" y="885" type="qcurve" smooth="yes"/>
      <point x="222.08955223880596" y="885.0"/>
      <point x="191.43283582089552" y="880.4776119402985"/>
      <point x="178" y="876" type="qcurve"/>
      <point x="178" y="829" type="line"/>
      <point x="192.92537313432837" y="834.223880597015"/>
      <point x="228.05970149253733" y="837.0"/>
      <point x="240" y="837" type="qcurve" smooth="yes"/>
      <point x="301.19402985074623" y="837.0"/>
      <point x="397.2686567164179" y="765.0"/>
      <point x="451" y="765" type="qcurve" smooth="yes"/>
      <point x="468.910447761194" y="765.0"/>
      <point x="502.82089552238807" y="773.776119402985"/>
      <point x="517" y="779" type="qcurve"/>
      <point x="517" y="830" type="line"/>
      <point x="501.32835820895525" y="822.5373134328358"/>
      <point x="468.1641791044776" y="813.0"/>
      <point x="451" y="813" type="qcurve" smooth="yes"/>
    </contour>
  </outline>
</glyph>
<glyph name="oacute" format="2">
  <advance width="692"/>
  <unicode hex="00F3"/>
  <outline>
    <contour>
      <point x="172" y="580" type="line" smooth="yes"/>
      <point x="122.0" y="580.0"/>
      <point x="51.0" y="509.0"/>
      <point x="51" y="459" type="qcurve" smooth="yes"/>
      <point x="51" y="121" type="line" smooth="yes"/>
      <point x="51.0" y="71.0"/>
      <point x="122.0" y="0.0"/>
      <point x="172" y="0" type="qcurve" smooth="yes"/>
      <point x="520" y="0" type="line" smooth="yes"/>
      <point x="570.7462686567164" y="0.0"/>
      <point x="642.0" y="71.0"/>
      <point x="642" y="121" type="qcurve" smooth="yes"/>
      <point x="642" y="459" type="line" smooth="yes"/>
      <point x="642.0" y="509.0"/>
      <point x="570.7462686567164" y="580.0"/>
      <point x="520" y="580" type="qcurve" smooth="yes"/>
    </contour>
    <contour>
      <point x="520" y="498" type="line" smooth="yes"/>
      <point x="536.4179104477612" y="498.0"/>
      <point x="559.0" y="474.67164179104475"/>
      <point x="559" y="459" type="qcurve" smooth="yes"/>
      <point x="559" y="121" type="line" smooth="yes"/>
      <point x="559.0" y="105.32835820895522"/>
      <point x="536.4179104477612" y="82.0"/>
      <point x="520" y="82" type="qcurve" smooth="yes"/>
      <point x="172" y="82" type="line" smooth="yes"/>
      <point x="156.32835820895522" y="82.0"/>
      <point x="133.0" y="105.32835820895522"/>
      <point x="133" y="121" type="qcurve" smooth="yes"/>
      <point x="133" y="459" type="line" smooth="yes"/>
      <point x="133.0" y="474.67164179104475"/>
      <point x="156.32835820895522" y="498.0"/>
      <point x="172" y="498" type="qcurve" smooth="yes"/>
    </contour>
    <contour>
      <point x="272" y="764" type="line"/>
      <point x="352" y="764" type="line"/>
      <point x="386" y="903" type="line"/>
      <point x="307" y="903" type="line"/>
    </contour>
  </outline>
</glyph>
<glyph name="otilde" format="2">
  <advance width="692"/>
  <unicode hex="00F5"/>
  <outline>
    <contour>
      <point x="172" y="580" type="line" smooth="yes"/>
      <point x="122.0" y="580.0"/>
      <point x="51.0" y="509.0"/>
      <point x="51" y="459" type="qcurve" smooth="yes"/>
      <point x="51" y="121" type="line" smooth="yes"/>
      <point x="51.0" y="71.0"/>
      <point x="122.0" y="0.0"/>
      <point x="172" y="0" type="qcurve" smooth="yes"/>
      <point x="520" y="0" type="line" smooth="yes"/>
      <point x="570.7462686567164" y="0.0"/>
      <point x="642.0" y="71.0"/>
      <point x="642" y="121" type="qcurve" smooth="yes"/>
      <point x="642" y="459" type="line" smooth="yes"/>
      <point x="642.0" y="509.0"/>
      <point x="570.7462686567164" y="580.0"/>
      <point x="520" y="580" type="qcurve" smooth="yes"/>
    </contour>
    <contour>
      <point x="520" y="498" type="line" smooth="yes"/>
      <point x="536.4179104477612" y="498.0"/>
      <point x="559.0" y="474.67164179104475"/>
      <point x="559" y="459" type="qcurve" smooth="yes"/>
      <point x="559" y="121" type="line" smooth="yes"/>
      <point x="559.0" y="105.32835820895522"/>
      <point x="536.4179104477612" y="82.0"/>
      <point x="520" y="82" type="qcurve" smooth="yes"/>
      <point x="172" y="82" type="line" smooth="yes"/>
      <point x="156.32835820895522" y="82.0"/>
      <point x="133.0" y="105.32835820895522"/>
      <point x="133" y="121" type="qcurve" smooth="yes"/>
      <point x="133" y="459" type="line" smooth="yes"/>
      <point x="133.0" y="474.67164179104475"/>
      <point x="156.32835820895522" y="498.0"/>
      <point x="172" y="498" type="qcurve" smooth="yes"/>
    </contour>
    <contour>
      <point x="441" y="813" type="line"/>
      <point x="384.2835820895522" y="820.4626865671642"/>
      <point x="287.97014925373134" y="885.0"/>
      <point x="232" y="885" type="qcurve" smooth="yes"/>
      <point x="214.08955223880596" y="885.0"/>
      <point x="183.43283582089552" y="880.4776119402985"/>
      <point x="170" y="876" type="qcurve"/>
      <point x="170" y="829" type="line"/>
      <point x="184.92537313432837" y="834.223880597015"/>
      <point x="220.05970149253733" y="837.0"/>
      <point x="232" y="837" type="qcurve" smooth="yes"/>
      <point x="293.19402985074623" y="837.0"/>
      <point x="389.2686567164179" y="765.0"/>
      <point x="443" y="765" type="qcurve" smooth="yes"/>
      <point x="460.910447761194" y="765.0"/>
      <point x="494.82089552238807" y="773.776119402985"/>
      <point x="509" y="779" type="qcurve"/>
      <point x="509" y="830" type="line"/>
      <point x="493.32835820895525" y="822.5373134328358"/>
      <point x="460.1641791044776" y="813.0"/>
      <point x="443" y="813" type="qcurve" smooth="yes"/>
    </contour>
  </outline>
</glyph>
<glyph name="odieresis" format="2">
  <advance width="692"/>
  <unicode hex="00F6"/>
  <outline>
    <contour>
      <point x="172" y="580" type="line" smooth="yes"/>
      <point x="122.0" y="580.0"/>
      <point x="51.0" y="509.0"/>
      <point x="51" y="459" type="qcurve" smooth="yes"/>
      <point x="51" y="121" type="line" smooth="yes"/>
      <point x="51.0" y="71.0"/>
      <point x="122.0" y="0.0"/>
      <point x="172" y="0" type="qcurve" smooth="yes"/>
      <point x="520" y="0" type="line" smooth="yes"/>
      <point x="570.7462686567164" y="0.0"/>
      <point x="642.0" y="71.0"/>
      <point x="642" y="121" type="qcurve" smooth="yes"/>
      <point x="642" y="459" type="line" smooth="yes"/>
      <point x="642.0" y="509.0"/>
      <point x="570.7462686567164" y="580.0"/>
      <point x="520" y="580" type="qcurve" smooth="yes"/>
    </contour>
    <contour>
      <point x="520" y="498" type="line" smooth="yes"/>
      <point x="536.4179104477612" y="498.0"/>
      <point x="559.0" y="474.67164179104475"/>
      <point x="559" y="459" type="qcurve" smooth="yes"/>
      <point x="559" y="121" type="line" smooth="yes"/>
      <point x="559.0" y="105.32835820895522"/>
      <point x="536.4179104477612" y="82.0"/>
      <point x="520" y="82" type="qcurve" smooth="yes"/>
      <point x="172" y="82" type="line" smooth="yes"/>
      <point x="156.32835820895522" y="82.0"/>
      <point x="133.0" y="105.32835820895522"/>
      <point x="133" y="121" type="qcurve" smooth="yes"/>
      <point x="133" y="459" type="line" smooth="yes"/>
      <point x="133.0" y="474.67164179104475"/>
      <point x="156.32835820895522" y="498.0"/>
      <point x="172" y="498" type="qcurve" smooth="yes"/>
    </contour>
    <contour>
      <point x="469" y="847" type="line"/>
      <point x="387" y="847" type="line"/>
      <point x="387" y="765" type="line"/>
      <point x="469" y="765" type="line"/>
    </contour>
    <contour>
      <point x="290" y="847" type="line"/>
      <point x="207" y="847" type="line"/>
      <point x="207" y="765" type="line"/>
      <point x="290" y="765" type="line"/>
    </contour>
  </outline>
</glyph>
<glyph name="ugrave" format="2">
  <advance width="695"/>
  <unicode hex="00F9"/>
  <outline>
    <contour>
      <point x="562" y="580" type="line"/>
      <point x="562" y="121" type="line" smooth="yes"/>
      <point x="562.0" y="105.32835820895522"/>
      <point x="538.4179104477612" y="82.0"/>
      <point x="522" y="82" type="qcurve" smooth="yes"/>
      <point x="174" y="82" type="line" smooth="yes"/>
      <point x="158.32835820895522" y="82.0"/>
      <point x="135.0" y="105.32835820895522"/>
      <point x="135" y="121" type="qcurve" smooth="yes"/>
      <point x="135" y="580" type="line"/>
      <point x="53" y="580" type="line"/>
      <point x="53" y="121" type="line" smooth="yes"/>
      <point x="53.0" y="71.0"/>
      <point x="124.0" y="0.0"/>
      <point x="174" y="0" type="qcurve" smooth="yes"/>
      <point x="522" y="0" type="line" smooth="yes"/>
      <point x="572.7462686567164" y="0.0"/>
      <point x="644.0" y="71.0"/>
      <point x="644" y="121" type="qcurve" smooth="yes"/>
      <point x="644" y="580" type="line"/>
    </contour>
    <contour>
      <point x="354" y="903" type="line"/>
      <point x="273" y="903" type="line"/>
      <point x="282.7014925373134" y="864.9402985074627"/>
      <point x="298.2985074626866" y="804.2985074626865"/>
      <point x="308" y="764" type="qcurve"/>
      <point x="388" y="764" type="line"/>
    </contour>
  </outline>
</glyph>
<glyph name="ucircumflex" format="2">
  <advance width="695"/>
  <unicode hex="00FB"/>
  <outline>
    <contour>
      <point x="562" y="580" type="line"/>
      <point x="562" y="121" type="line" smooth="yes"/>
      <point x="562.0" y="105.32835820895522"/>
      <point x="538.4179104477612" y="82.0"/>
      <point x="522" y="82" type="qcurve" smooth="yes"/>
      <point x="174" y="82" type="line" smooth="yes"/>
      <point x="158.32835820895522" y="82.0"/>
      <point x="135.0" y="105.32835820895522"/>
      <point x="135" y="121" type="qcurve" smooth="yes"/>
      <point x="135" y="580" type="line"/>
      <point x="53" y="580" type="line"/>
      <point x="53" y="121" type="line" smooth="yes"/>
      <point x="53.0" y="71.0"/>
      <point x="124.0" y="0.0"/>
      <point x="174" y="0" type="qcurve" smooth="yes"/>
      <point x="522" y="0" type="line" smooth="yes"/>
      <point x="572.7462686567164" y="0.0"/>
      <point x="644.0" y="71.0"/>
      <point x="644" y="121" type="qcurve" smooth="yes"/>
      <point x="644" y="580" type="line"/>
    </contour>
    <contour>
      <point x="266" y="764" type="line"/>
      <point x="326" y="849" type="line"/>
      <point x="384" y="764" type="line"/>
      <point x="426" y="764" type="line"/>
      <point x="355" y="881" type="line"/>
      <point x="296" y="881" type="line"/>
      <point x="225" y="764" type="line"/>
    </contour>
  </outline>
</glyph>
<glyph name="ydieresis" format="2">
  <advance width="688"/>
  <unicode hex="00FF"/>
  <outline>
    <contour>
      <point x="632" y="578" type="line"/>
      <point x="550" y="578" type="line"/>
      <point x="550" y="121" type="line" smooth="yes"/>
      <point x="550.0" y="105.32835820895522"/>
      <point x="526.6716417910447" y="82.0"/>
      <point x="511" y="82" type="qcurve" smooth="yes"/>
      <point x="163" y="82" type="line" smooth="yes"/>
      <point x="147.32835820895522" y="82.0"/>
      <point x="124.0" y="105.32835820895522"/>
      <point x="124" y="121" type="qcurve" smooth="yes"/>
      <point x="124" y="578" type="line"/>
      <point x="42" y="578" type="line"/>
      <point x="42" y="121" type="line" smooth="yes"/>
      <point x="42.0" y="71.0"/>
      <point x="113.0" y="0.0"/>
      <point x="163" y="0" type="qcurve" smooth="yes"/>
      <point x="550" y="0" type="line"/>
      <point x="550" y="-108" type="line" smooth="yes"/>
      <point x="550.0" y="-123.67164179104478"/>
      <point x="526.6716417910447" y="-147.0"/>
      <point x="511" y="-147" type="qcurve" smooth="yes"/>
      <point x="149" y="-147" type="line"/>
      <point x="149" y="-230" type="line"/>
      <point x="511" y="-230" type="line" smooth="yes"/>
      <point x="561.7462686567164" y="-230.0"/>
      <point x="632.0" y="-158.7462686567164"/>
      <point x="632" y="-108" type="qcurve" smooth="yes"/>
    </contour>
    <contour>
      <point x="467" y="847" type="line"/>
      <point x="385" y="847" type="line"/>
      <point x="385" y="765" type="line"/>
      <point x="467" y="765" type="line"/>
    </contour>
    <contour>
      <point x="288" y="847" type="line"/>
      <point x="205" y="847" type="line"/>
      <point x="205" y="765" type="line"/>
      <point x="288" y="765" type="line"/>
    </contour>
  </outline>
</glyph>
<glyph name="OE" format="2">
  <advance width="1374"/>
  <unicode hex="0152"/>
  <outline>
    <contour>
      <point x="773" y="639" type="line"/>
      <point x="1349" y="639" type="line"/>
      <point x="1349" y="720" type="line"/>
      <point x="173" y="720" type="line" smooth="yes"/>
      <point x="123.0" y="720.0"/>
      <point x="53.0" y="650.0"/>
      <point x="53" y="600" type="qcurve" smooth="yes"/>
      <point x="53" y="120" type="line" smooth="yes"/>
      <point x="53.0" y="70.0"/>
      <point x="123.0" y="0.0"/>
      <point x="173" y="0" type="qcurve" smooth="yes"/>
      <point x="1349" y="0" type="line"/>
      <point x="1349" y="81" type="line"/>
      <point x="773" y="81" type="line"/>
      <point x="773" y="319" type="line"/>
      <point x="1236" y="319" type="line"/>
      <point x="1236" y="401" type="line"/>
      <point x="773" y="401" type="line"/>
    </contour>
    <contour>
      <point x="173" y="81" type="line" smooth="yes"/>
      <point x="157.32835820895522" y="81.0"/>
      <point x="134.0" y="104.32835820895522"/>
      <point x="134" y="120" type="qcurve" smooth="yes"/>
      <point x="134" y="600" type="line" smooth="yes"/>
      <point x="134.0" y="615.6716417910447"/>
      <point x="157.32835820895522" y="639.0"/>
      <point x="173" y="639" type="qcurve" smooth="yes"/>
      <point x="653" y="639" type="line" smooth="yes"/>
      <point x="668.6716417910447" y="639.0"/>
      <point x="692.0" y="615.6716417910447"/>
      <point x="692" y="600" type="qcurve" smooth="yes"/>
      <point x="692" y="120" type="line" smooth="yes"/>
      <point x="692.0" y="104.32835820895522"/>
      <point x="668.6716417910447" y="81.0"/>
      <point x="653" y="81" type="qcurve" smooth="yes"/>
    </contour>
  </outline>
</glyph>
<glyph name="oe" format="2">
  <advance width="1177"/>
  <unicode hex="0153"/>
  <outline>
    <contour>
      <point x="1150" y="249" type="line"/>
      <point x="1150" y="459" type="line" smooth="yes"/>
      <point x="1150.0" y="509.0"/>
      <point x="1079.7462686567164" y="580.0"/>
      <point x="1029" y="580" type="qcurve" smooth="yes"/>
      <point x="173" y="580" type="line" smooth="yes"/>
      <point x="122.25373134328359" y="580.0"/>
      <point x="52.0" y="509.0"/>
      <point x="52" y="459" type="qcurve" smooth="yes"/>
      <point x="52" y="121" type="line" smooth="yes"/>
      <point x="52.0" y="71.0"/>
      <point x="122.25373134328359" y="0.0"/>
      <point x="173" y="0" type="qcurve" smooth="yes"/>
      <point x="1150" y="0" type="line"/>
      <point x="1150" y="82" type="line"/>
      <point x="681" y="82" type="line" smooth="yes"/>
      <point x="665.3283582089553" y="82.0"/>
      <point x="642.0" y="105.32835820895522"/>
      <point x="642" y="121" type="qcurve" smooth="yes"/>
      <point x="642" y="249" type="line"/>
    </contour>
    <contour>
      <point x="1029" y="498" type="line" smooth="yes"/>
      <point x="1044.6716417910447" y="498.0"/>
      <point x="1068.0" y="474.67164179104475"/>
      <point x="1068" y="459" type="qcurve" smooth="yes"/>
      <point x="1068" y="331" type="line"/>
      <point x="642" y="331" type="line"/>
      <point x="642" y="459" type="line" smooth="yes"/>
      <point x="642.0" y="474.67164179104475"/>
      <point x="665.3283582089553" y="498.0"/>
      <point x="681" y="498" type="qcurve" smooth="yes"/>
    </contour>
    <contour>
      <point x="173" y="82" type="line" smooth="yes"/>
      <point x="157.32835820895522" y="82.0"/>
      <point x="134.0" y="105.32835820895522"/>
      <point x="134" y="121" type="qcurve" smooth="yes"/>
      <point x="134" y="459" type="line" smooth="yes"/>
      <point x="134.0" y="474.67164179104475"/>
      <point x="157.32835820895522" y="498.0"/>
      <point x="173" y="498" type="qcurve" smooth="yes"/>
      <point x="521" y="498" type="line" smooth="yes"/>
      <point x="536.6716417910447" y="498.0"/>
      <point x="560.0" y="474.67164179104475"/>
      <point x="560" y="459" type="qcurve" smooth="yes"/>
      <point x="560" y="121" type="line" smooth="yes"/>
      <point x="560.0" y="105.32835820895522"/>
      <point x="536.6716417910447" y="82.0"/>
      <point x="521" y="82" type="qcurve" smooth="yes"/>
    </contour>
  </outline>
</glyph>
<glyph name="scaron" format="2">
  <advance width="687"/>
  <unicode hex="0161"/>
  <outline>
    <contour>
      <point x="639" y="459" type="line" smooth="yes"/>
      <point x="639.0" y="509.0"/>
      <point x="567.7462686567164" y="580.0"/>
      <point x="517" y="580" type="qcurve" smooth="yes"/>
      <point x="169" y="580" type="line" smooth="yes"/>
      <point x="119.0" y="580.0"/>
      <point x="48.0" y="509.0"/>
      <point x="48" y="459" type="qcurve" smooth="yes"/>
      <point x="48" y="370" type="line" smooth="yes"/>
      <point x="48.0" y="320.0"/>
      <point x="119.0" y="249.0"/>
      <point x="169" y="249" type="qcurve" smooth="yes"/>
      <point x="517" y="249" type="line" smooth="yes"/>
      <point x="532.6716417910447" y="249.0"/>
      <point x="556.0" y="225.67164179104478"/>
      <point x="556" y="210" type="qcurve" smooth="yes"/>
      <point x="556" y="121" type="line" smooth="yes"/>
      <point x="556.0" y="105.32835820895522"/>
      <point x="532.6716417910447" y="82.0"/>
      <point x="517" y="82" type="qcurve" smooth="yes"/>
      <point x="169" y="82" type="line" smooth="yes"/>
      <point x="153.32835820895522" y="82.0"/>
      <point x="130.0" y="105.32835820895522"/>
      <point x="130" y="121" type="qcurve" smooth="yes"/>
      <point x="130" y="129" type="line"/>
      <point x="48" y="129" type="line"/>
      <point x="48" y="121" type="line" smooth="yes"/>
      <point x="48.0" y="71.0"/>
      <point x="119.0" y="0.0"/>
      <point x="169" y="0" type="qcurve" smooth="yes"/>
      <point x="517" y="0" type="line" smooth="yes"/>
      <point x="567.7462686567164" y="0.0"/>
      <point x="639.0" y="71.0"/>
      <point x="639" y="121" type="qcurve" smooth="yes"/>
      <point x="639" y="210" type="line" smooth="yes"/>
      <point x="639.0" y="260.0"/>
      <point x="567.7462686567164" y="331.0"/>
      <point x="517" y="331" type="qcurve" smooth="yes"/>
      <point x="169" y="331" type="line" smooth="yes"/>
      <point x="153.32835820895522" y="331.0"/>
      <point x="130.0" y="354.32835820895525"/>
      <point x="130" y="370" type="qcurve" smooth="yes"/>
      <point x="130" y="459" type="line" smooth="yes"/>
      <point x="130.0" y="474.67164179104475"/>
      <point x="153.32835820895522" y="498.0"/>
      <point x="169" y="498" type="qcurve" smooth="yes"/>
      <point x="517" y="498" type="line" smooth="yes"/>
      <point x="532.6716417910447" y="498.0"/>
      <point x="556.0" y="474.67164179104475"/>
      <point x="556" y="459" type="qcurve" smooth="yes"/>
      <point x="556" y="451" type="line"/>
      <point x="639" y="451" type="line"/>
    </contour>
    <contour>
      <point x="221" y="880" type="line"/>
      <point x="293" y="763" type="line"/>
      <point x="352" y="763" type="line"/>
      <point x="422" y="880" type="line"/>
      <point x="381" y="880" type="line"/>
      <point x="323" y="795" type="line"/>
      <point x="263" y="880" type="line"/>
    </contour>
  </outline>
</glyph>
<glyph name="breve" format="2">
  <advance width="287"/>
  <unicode hex="02D8"/>
  <outline>
    <contour>
      <point x="194" y="939" type="line"/>
      <point x="194.0" y="937.5074626865671"/>
      <point x="194.0" y="934.4925373134329"/>
      <point x="194" y="933" type="qcurve" smooth="yes"/>
      <point x="194.0" y="920.3134328358209"/>
      <point x="184.94029850746267" y="905.0"/>
      <point x="173" y="905" type="qcurve" smooth="yes"/>
      <point x="93" y="905" type="line" smooth="yes"/>
      <point x="79.56716417910448" y="905.0"/>
      <point x="72.0" y="923.3283582089553"/>
      <point x="72" y="939" type="qcurve"/>
      <point x="40" y="939" type="line"/>
      <point x="40.74626865671642" y="914.3731343283582"/>
      <point x="72.91044776119404" y="872.0"/>
      <point x="105" y="872" type="qcurve" smooth="yes"/>
      <point x="160" y="872" type="line" smooth="yes"/>
      <point x="192.83582089552237" y="872.0"/>
      <point x="224.2537313432836" y="914.3731343283582"/>
      <point x="225" y="939" type="qcurve"/>
    </contour>
  </outline>
</glyph>
<glyph name="dotaccent" format="2">
  <advance width="233"/>
  <unicode hex="02D9"/>
  <outline>
    <contour>
      <point x="86" y="989" type="line" smooth="yes"/>
      <point x="68.83582089552239" y="989.0"/>
      <point x="45.0" y="965.4179104477612"/>
      <point x="45" y="949" type="qcurve" smooth="yes"/>
      <point x="45" y="913" type="line" smooth="yes"/>
      <point x="45.0" y="896.5820895522388"/>
      <point x="68.83582089552239" y="873.0"/>
      <point x="86" y="873" type="qcurve" smooth="yes"/>
      <point x="124" y="873" type="line" smooth="yes"/>
      <point x="141.16417910447763" y="873.0"/>
      <point x="165.0" y="896.5820895522388"/>
      <point x="165" y="913" type="qcurve" smooth="yes"/>
      <point x="165" y="949" type="line" smooth="yes"/>
      <point x="165.0" y="965.4179104477612"/>
      <point x="141.16417910447763" y="989.0"/>
      <point x="124" y="989" type="qcurve" smooth="yes"/>
    </contour>
  </outline>
</glyph>
<glyph name="ring" format="2">
  <advance width="233"/>
  <unicode hex="02DA"/>
  <outline>
    <contour>
      <point x="89" y="988" type="line" smooth="yes"/>
      <point x="66.61194029850746" y="988.0"/>
      <point x="35.0" y="956.6417910447761"/>
      <point x="35" y="935" type="qcurve" smooth="yes"/>
      <point x="35" y="881" type="line" smooth="yes"/>
      <point x="35.0" y="859.3582089552239"/>
      <point x="66.61194029850746" y="828.0"/>
      <point x="89" y="828" type="qcurve" smooth="yes"/>
      <point x="145" y="828" type="line" smooth="yes"/>
      <point x="167.38805970149252" y="828.0"/>
      <point x="199.0" y="859.3582089552239"/>
      <point x="199" y="881" type="qcurve" smooth="yes"/>
      <point x="199" y="935" type="line" smooth="yes"/>
      <point x="199.0" y="956.6417910447761"/>
      <point x="167.38805970149252" y="988.0"/>
      <point x="145" y="988" type="qcurve" smooth="yes"/>
    </contour>
    <contour>
      <point x="84" y="868" type="line" smooth="yes"/>
      <point x="80.26865671641791" y="868.0"/>
      <point x="75.0" y="873.5223880597015"/>
      <point x="75" y="878" type="qcurve" smooth="yes"/>
      <point x="75" y="938" type="line" smooth="yes"/>
      <point x="75.0" y="942.4776119402985"/>
      <point x="80.26865671641791" y="948.0"/>
      <point x="84" y="948" type="qcurve" smooth="yes"/>
      <point x="150" y="948" type="line" smooth="yes"/>
      <point x="153.73134328358208" y="948.0"/>
      <point x="159.0" y="942.4776119402985"/>
      <point x="159" y="938" type="qcurve" smooth="yes"/>
      <point x="159" y="878" type="line" smooth="yes"/>
      <point x="159.0" y="873.5223880597015"/>
      <point x="153.73134328358208" y="868.0"/>
      <point x="150" y="868" type="qcurve" smooth="yes"/>
    </contour>
  </outline>
</glyph>
<glyph name="tilde" format="2">
  <advance width="403"/>
  <unicode hex="02DC"/>
  <outline>
    <contour>
      <point x="294" y="924" type="line"/>
      <point x="237.28358208955223" y="931.4626865671642"/>
      <point x="140.97014925373134" y="996.0"/>
      <point x="85" y="996" type="qcurve" smooth="yes"/>
      <point x="67.08955223880596" y="996.0"/>
      <point x="36.43283582089552" y="991.4776119402985"/>
      <point x="23" y="987" type="qcurve"/>
      <point x="23" y="940" type="line"/>
      <point x="37.92537313432835" y="945.223880597015"/>
      <point x="73.05970149253731" y="948.0"/>
      <point x="85" y="948" type="qcurve" smooth="yes"/>
      <point x="146.19402985074626" y="948.0"/>
      <point x="242.26865671641792" y="876.0"/>
      <point x="296" y="876" type="qcurve" smooth="yes"/>
      <point x="313.910447761194" y="876.0"/>
      <point x="347.82089552238807" y="884.776119402985"/>
      <point x="362" y="890" type="qcurve"/>
      <point x="362" y="941" type="line"/>
      <point x="346.32835820895525" y="933.5373134328358"/>
      <point x="313.1641791044776" y="924.0"/>
      <point x="296" y="924" type="qcurve" smooth="yes"/>
    </contour>
  </outline>
</glyph>
<glyph name="quoteleft" format="2">
  <advance width="168"/>
  <unicode hex="2018"/>
  <outline>
    <contour>
      <point x="116" y="503" type="line"/>
      <point x="116" y="716" type="line"/>
      <point x="79.43283582089552" y="704.8059701492538"/>
      <point x="33.0" y="641.2985074626865"/>
      <point x="33" y="601" type="qcurve" smooth="yes"/>
      <point x="33" y="503" type="line"/>
    </contour>
  </outline>
</glyph>
<glyph name="quoteright" format="2">
  <advance width="166"/>
  <unicode hex="2019"/>
  <outline>
    <contour>
      <point x="54" y="721" type="line"/>
      <point x="54" y="508" type="line"/>
      <point x="89.82089552238806" y="519.1940298507462"/>
      <point x="136.0" y="582.7014925373135"/>
      <point x="136" y="623" type="qcurve" smooth="yes"/>
      <point x="136" y="721" type="line"/>
    </contour>
  </outline>
</glyph>
<glyph name="quotedblleft" format="2">
  <advance width="363"/>
  <unicode hex="201C"/>
  <outline>
    <contour>
      <point x="130" y="502" type="line"/>
      <point x="130" y="715" type="line"/>
      <point x="93.43283582089552" y="703.8059701492538"/>
      <point x="47.0" y="640.2985074626865"/>
      <point x="47" y="600" type="qcurve" smooth="yes"/>
      <point x="47" y="502" type="line"/>
    </contour>
    <contour>
      <point x="310" y="502" type="line"/>
      <point x="310" y="715" type="line"/>
      <point x="273.43283582089555" y="703.8059701492538"/>
      <point x="228.0" y="640.2985074626865"/>
      <point x="228" y="600" type="qcurve" smooth="yes"/>
      <point x="228" y="502" type="line"/>
    </contour>
  </outline>
</glyph>
<glyph name="quotedblright" format="2">
  <advance width="363"/>
  <unicode hex="201D"/>
  <outline>
    <contour>
      <point x="235" y="721" type="line"/>
      <point x="235" y="508" type="line"/>
      <point x="270.82089552238807" y="519.1940298507462"/>
      <point x="317.0" y="582.7014925373135"/>
      <point x="317" y="623" type="qcurve" smooth="yes"/>
      <point x="317" y="721" type="line"/>
    </contour>
    <contour>
      <point x="54" y="721" type="line"/>
      <point x="54" y="508" type="line"/>
      <point x="90.56716417910448" y="519.1940298507462"/>
      <point x="137.0" y="582.7014925373135"/>
      <point x="137" y="623" type="qcurve" smooth="yes"/>
      <point x="137" y="721" type="line"/>
    </contour>
  </outline>
</glyph>
<glyph name="bullet" format="2">
  <advance width="371"/>
  <unicode hex="2022"/>
  <outline>
    <contour>
      <point x="172" y="403" type="line" smooth="yes"/>
      <point x="159.3134328358209" y="403.0"/>
      <point x="144.0" y="387.43283582089555"/>
      <point x="144" y="374" type="qcurve" smooth="yes"/>
      <point x="144" y="353" type="line" smooth="yes"/>
      <point x="144.0" y="339.56716417910445"/>
      <point x="159.3134328358209" y="325.0"/>
      <point x="172" y="325" type="qcurve" smooth="yes"/>
      <point x="197" y="325" type="line" smooth="yes"/>
      <point x="211.17910447761193" y="325.0"/>
      <point x="226.0" y="339.56716417910445"/>
      <point x="226" y="353" type="qcurve" smooth="yes"/>
      <point x="226" y="374" type="line" smooth="yes"/>
      <point x="226.0" y="387.43283582089555"/>
      <point x="211.17910447761193" y="403.0"/>
      <point x="197" y="403" type="qcurve" smooth="yes"/>
    </contour>
  </outline>
</glyph>
<glyph name="Euro" format="2">
  <advance width="799"/>
  <unicode hex="20AC"/>
  <outline>
    <contour>
      <point x="262" y="82" type="line" smooth="yes"/>
      <point x="246.32835820895522" y="82.0"/>
      <point x="223.0" y="105.32835820895522"/>
      <point x="223" y="121" type="qcurve" smooth="yes"/>
      <point x="223" y="230" type="line"/>
      <point x="647" y="230" type="line"/>
      <point x="647" y="312" type="line"/>
      <point x="223" y="312" type="line"/>
      <point x="223" y="415" type="line"/>
      <point x="647" y="415" type="line"/>
      <point x="647" y="498" type="line"/>
      <point x="223" y="498" type="line"/>
      <point x="223" y="599" type="line" smooth="yes"/>
      <point x="223.0" y="614.6716417910447"/>
      <point x="246.32835820895522" y="638.0"/>
      <point x="262" y="638" type="qcurve" smooth="yes"/>
      <point x="761" y="638" type="line"/>
      <point x="761" y="721" type="line"/>
      <point x="262" y="721" type="line" smooth="yes"/>
      <point x="211.2537313432836" y="721.0"/>
      <point x="140.0" y="649.7462686567164"/>
      <point x="140" y="599" type="qcurve" smooth="yes"/>
      <point x="140" y="498" type="line"/>
      <point x="35" y="498" type="line"/>
      <point x="35" y="415" type="line"/>
      <point x="140" y="415" type="line"/>
      <point x="140" y="312" type="line"/>
      <point x="35" y="312" type="line"/>
      <point x="35" y="230" type="line"/>
      <point x="140" y="230" type="line"/>
      <point x="140" y="121" type="line" smooth="yes"/>
      <point x="140.0" y="71.0"/>
      <point x="211.2537313432836" y="0.0"/>
      <point x="262" y="0" type="qcurve" smooth="yes"/>
      <point x="761" y="0" type="line"/>
      <point x="761" y="82" type="line"/>
    </contour>
  </outline>
</glyph>
<glyph name="A.alt3" format="2">
  <advance width="827"/>
  <outline>
    <contour>
      <point x="837" y="0" type="line"/>
      <point x="740.7313432835821" y="181.34328358208953"/>
      <point x="548.2686567164179" y="538.6567164179105"/>
      <point x="452" y="720" type="qcurve"/>
      <point x="358" y="720" type="line"/>
      <point x="258.74626865671644" y="534.9253731343283"/>
      <point x="70.50746268656715" y="185.07462686567163"/>
      <point x="-28" y="0" type="qcurve"/>
      <point x="67" y="0" type="line"/>
      <point x="91.62686567164178" y="43.28358208955223"/>
      <point x="149.11940298507463" y="139.71641791044777"/>
      <point x="173" y="183" type="qcurve"/>
      <point x="637" y="183" type="line"/>
      <point x="742" y="0" type="line"/>
    </contour>
    <contour>
      <point x="405" y="644" type="line"/>
      <point x="588" y="264" type="line"/>
      <point x="220" y="264" type="line"/>
    </contour>
  </outline>
</glyph>
<glyph name="C.alt" format="2">
  <advance width="822"/>
  <outline>
    <contour>
      <point x="770" y="620" type="line"/>
      <point x="758.8059701492538" y="658.0597014925373"/>
      <point x="692.2985074626865" y="720.0"/>
      <point x="652" y="720" type="qcurve" smooth="yes"/>
      <point x="172" y="720" type="line" smooth="yes"/>
      <point x="122.0" y="720.0"/>
      <point x="52.0" y="650.0"/>
      <point x="52" y="600" type="qcurve" smooth="yes"/>
      <point x="52" y="120" type="line" smooth="yes"/>
      <point x="52.0" y="70.0"/>
      <point x="122.0" y="0.0"/>
      <point x="172" y="0" type="qcurve" smooth="yes"/>
      <point x="652" y="0" type="line" smooth="yes"/>
      <point x="692.2985074626865" y="0.0"/>
      <point x="758.8059701492538" y="61.94029850746269"/>
      <point x="770" y="100" type="qcurve"/>
      <point x="770" y="194" type="line"/>
      <point x="692" y="194" type="line"/>
      <point x="692" y="81" type="line"/>
      <point x="172" y="81" type="line" smooth="yes"/>
      <point x="156.32835820895522" y="81.0"/>
      <point x="133.0" y="104.32835820895522"/>
      <point x="133" y="120" type="qcurve" smooth="yes"/>
      <point x="133" y="600" type="line" smooth="yes"/>
      <point x="133.0" y="615.6716417910447"/>
      <point x="156.32835820895522" y="639.0"/>
      <point x="172" y="639" type="qcurve" smooth="yes"/>
      <point x="692" y="639" type="line"/>
      <point x="692" y="526" type="line"/>
      <point x="773" y="526" type="line"/>
    </contour>
  </outline>
</glyph>
<glyph name="J.alt" format="2">
  <advance width="645"/>
  <outline>
    <contour>
      <point x="506" y="120" type="line" smooth="yes"/>
      <point x="506.0" y="104.32835820895522"/>
      <point x="483.67164179104475" y="81.0"/>
      <point x="468" y="81" type="qcurve" smooth="yes"/>
      <point x="3" y="81" type="line"/>
      <point x="3" y="0" type="line"/>
      <point x="468" y="0" type="line" smooth="yes"/>
      <point x="517.2537313432836" y="0.0"/>
      <point x="588.0" y="70.0"/>
      <point x="588" y="120" type="qcurve" smooth="yes"/>
      <point x="588" y="720" type="line"/>
      <point x="506" y="720" type="line"/>
    </contour>
  </outline>
</glyph>
<glyph name="K.alt" format="2">
  <advance width="829"/>
  <outline>
    <contour>
      <point x="694" y="436" type="line" smooth="yes"/>
      <point x="694.0" y="420.32835820895525"/>
      <point x="670.6716417910447" y="398.0"/>
      <point x="655" y="398" type="qcurve" smooth="yes"/>
      <point x="174" y="398" type="line" smooth="yes"/>
      <point x="158.32835820895522" y="398.0"/>
      <point x="135.0" y="420.32835820895525"/>
      <point x="135" y="436" type="qcurve" smooth="yes"/>
      <point x="135" y="720" type="line"/>
      <point x="54" y="720" type="line"/>
      <point x="54" y="0" type="line"/>
      <point x="135" y="0" type="line"/>
      <point x="135" y="278" type="line" smooth="yes"/>
      <point x="135.0" y="292.92537313432837"/>
      <point x="158.32835820895522" y="316.0"/>
      <point x="174" y="316" type="qcurve" smooth="yes"/>
      <point x="654" y="316" type="line" smooth="yes"/>
      <point x="669.6716417910447" y="316.0"/>
      <point x="693.0" y="292.92537313432837"/>
      <point x="693" y="278" type="qcurve" smooth="yes"/>
      <point x="693" y="0" type="line"/>
      <point x="774" y="0" type="line"/>
      <point x="774" y="257" type="line" smooth="yes"/>
      <point x="774.0" y="287.5970149253731"/>
      <point x="697.1940298507462" y="357.0"/>
      <point x="636" y="357" type="qcurve"/>
      <point x="697.1940298507462" y="357.0"/>
      <point x="775.0" y="424.91044776119406"/>
      <point x="775" y="457" type="qcurve" smooth="yes"/>
      <point x="775" y="720" type="line"/>
      <point x="694" y="720" type="line"/>
    </contour>
  </outline>
</glyph>
<glyph name="M.alt" format="2">
  <advance width="1155"/>
  <outline>
    <contour>
      <point x="54" y="720" type="line"/>
      <point x="54" y="0" type="line"/>
      <point x="136" y="0" type="line"/>
      <point x="136" y="639" type="line"/>
      <point x="494" y="639" type="line" smooth="yes"/>
      <point x="509.67164179104475" y="639.0"/>
      <point x="532.0" y="615.6716417910447"/>
      <point x="532" y="600" type="qcurve" smooth="yes"/>
      <point x="532" y="0" type="line"/>
      <point x="614" y="0" type="line"/>
      <point x="614" y="639" type="line"/>
      <point x="997" y="639" type="line" smooth="yes"/>
      <point x="1012.6716417910447" y="639.0"/>
      <point x="1035.0" y="615.6716417910447"/>
      <point x="1035" y="600" type="qcurve" smooth="yes"/>
      <point x="1035" y="0" type="line"/>
      <point x="1117" y="0" type="line"/>
      <point x="1117" y="600" type="line" smooth="yes"/>
      <point x="1117.0" y="650.0"/>
      <point x="1046.2537313432836" y="720.0"/>
      <point x="997" y="720" type="qcurve" smooth="yes"/>
    </contour>
  </outline>
</glyph>
<glyph name="N.alt" format="2">
  <advance width="827"/>
  <outline>
    <contour>
      <point x="135" y="0" type="line"/>
      <point x="135" y="639" type="line"/>
      <point x="654" y="639" type="line" smooth="yes"/>
      <point x="669.6716417910447" y="639.0"/>
      <point x="693.0" y="615.6716417910447"/>
      <point x="693" y="600" type="qcurve" smooth="yes"/>
      <point x="693" y="0" type="line"/>
      <point x="774" y="0" type="line"/>
      <point x="774" y="600" type="line" smooth="yes"/>
      <point x="774.0" y="650.0"/>
      <point x="704.0" y="720.0"/>
      <point x="654" y="720" type="qcurve" smooth="yes"/>
      <point x="54" y="720" type="line"/>
      <point x="54" y="0" type="line"/>
    </contour>
  </outline>
</glyph>
<glyph name="O.alt" format="2">
  <advance width="824"/>
  <outline>
    <contour>
      <point x="172" y="720" type="line" smooth="yes"/>
      <point x="122.0" y="720.0"/>
      <point x="52.0" y="650.0"/>
      <point x="52" y="600" type="qcurve" smooth="yes"/>
      <point x="52" y="120" type="line" smooth="yes"/>
      <point x="52.0" y="70.0"/>
      <point x="122.0" y="0.0"/>
      <point x="172" y="0" type="qcurve" smooth="yes"/>
      <point x="652" y="0" type="line" smooth="yes"/>
      <point x="702.0" y="0.0"/>
      <point x="772.0" y="70.0"/>
      <point x="772" y="120" type="qcurve" smooth="yes"/>
      <point x="772" y="600" type="line" smooth="yes"/>
      <point x="772.0" y="650.0"/>
      <point x="702.0" y="720.0"/>
      <point x="652" y="720" type="qcurve" smooth="yes"/>
    </contour>
    <contour>
      <point x="691" y="120" type="line" smooth="yes"/>
      <point x="691.0" y="104.32835820895522"/>
      <point x="667.6716417910447" y="81.0"/>
      <point x="652" y="81" type="qcurve" smooth="yes"/>
      <point x="172" y="81" type="line" smooth="yes"/>
      <point x="156.32835820895522" y="81.0"/>
      <point x="133.0" y="104.32835820895522"/>
      <point x="133" y="120" type="qcurve" smooth="yes"/>
      <point x="133" y="600" type="line" smooth="yes"/>
      <point x="133.0" y="615.6716417910447"/>
      <point x="156.32835820895522" y="639.0"/>
      <point x="172" y="639" type="qcurve" smooth="yes"/>
      <point x="652" y="639" type="line" smooth="yes"/>
      <point x="667.6716417910447" y="639.0"/>
      <point x="691.0" y="615.6716417910447"/>
      <point x="691" y="600" type="qcurve" smooth="yes"/>
    </contour>
    <contour>
      <point x="453" y="319" type="line"/>
      <point x="453" y="401" type="line"/>
      <point x="371" y="401" type="line"/>
      <point x="371" y="319" type="line"/>
    </contour>
  </outline>
</glyph>
<glyph name="R.alt" format="2">
  <advance width="826"/>
  <outline>
    <contour>
      <point x="774" y="599" type="line" smooth="yes"/>
      <point x="774.0" y="648.2537313432836"/>
      <point x="704.0" y="719.0"/>
      <point x="654" y="719" type="qcurve" smooth="yes"/>
      <point x="54" y="720" type="line"/>
      <point x="54" y="0" type="line"/>
      <point x="135" y="0" type="line"/>
      <point x="135" y="230" type="line" smooth="yes"/>
      <point x="135.0" y="244.92537313432837"/>
      <point x="158.32835820895522" y="268.0"/>
      <point x="174" y="268" type="qcurve" smooth="yes"/>
      <point x="654" y="268" type="line" smooth="yes"/>
      <point x="669.6716417910447" y="268.0"/>
      <point x="693.0" y="244.92537313432837"/>
      <point x="693" y="230" type="qcurve" smooth="yes"/>
      <point x="693" y="0" type="line"/>
      <point x="774" y="0" type="line"/>
      <point x="774" y="230" type="line" smooth="yes"/>
      <point x="774.0" y="272.53731343283584"/>
      <point x="688.6417910447761" y="309.0"/>
      <point x="667" y="309" type="qcurve"/>
      <point x="687.8955223880597" y="309.0"/>
      <point x="774.0" y="345.46268656716416"/>
      <point x="774" y="388" type="qcurve" smooth="yes"/>
    </contour>
    <contour>
      <point x="654" y="638" type="line" smooth="yes"/>
      <point x="669.6716417910447" y="638.0"/>
      <point x="693.0" y="614.6716417910447"/>
      <point x="693" y="599" type="qcurve" smooth="yes"/>
      <point x="693" y="388" type="line" smooth="yes"/>
      <point x="693.0" y="372.32835820895525"/>
      <point x="669.6716417910447" y="350.0"/>
      <point x="654" y="350" type="qcurve" smooth="yes"/>
      <point x="174" y="350" type="line" smooth="yes"/>
      <point x="158.32835820895522" y="350.0"/>
      <point x="135.0" y="372.32835820895525"/>
      <point x="135" y="388" type="qcurve" smooth="yes"/>
      <point x="135" y="599" type="line" smooth="yes"/>
      <point x="135.0" y="614.6716417910447"/>
      <point x="158.32835820895522" y="638.0"/>
      <point x="174" y="638" type="qcurve" smooth="yes"/>
    </contour>
  </outline>
</glyph>
<glyph name="S.alt" format="2">
  <advance width="812"/>
  <outline>
    <contour>
      <point x="166" y="401" type="line" smooth="yes"/>
      <point x="150.32835820895522" y="401.0"/>
      <point x="127.0" y="423.32835820895525"/>
      <point x="127" y="439" type="qcurve" smooth="yes"/>
      <point x="127" y="600" type="line" smooth="yes"/>
      <point x="127.0" y="615.6716417910447"/>
      <point x="150.32835820895522" y="639.0"/>
      <point x="166" y="639" type="qcurve" smooth="yes"/>
      <point x="766" y="639" type="line"/>
      <point x="766" y="720" type="line"/>
      <point x="166" y="720" type="line" smooth="yes"/>
      <point x="116.0" y="720.0"/>
      <point x="46.0" y="650.0"/>
      <point x="46" y="600" type="qcurve" smooth="yes"/>
      <point x="46" y="439" type="line" smooth="yes"/>
      <point x="46.0" y="389.74626865671644"/>
      <point x="116.0" y="319.0"/>
      <point x="166" y="319" type="qcurve" smooth="yes"/>
      <point x="646" y="319" type="line" smooth="yes"/>
      <point x="661.6716417910447" y="319.0"/>
      <point x="684.0" y="296.67164179104475"/>
      <point x="684" y="281" type="qcurve" smooth="yes"/>
      <point x="684" y="120" type="line" smooth="yes"/>
      <point x="684.0" y="104.32835820895522"/>
      <point x="661.6716417910447" y="81.0"/>
      <point x="646" y="81" type="qcurve" smooth="yes"/>
      <point x="46" y="81" type="line"/>
      <point x="46" y="0" type="line"/>
      <point x="646" y="0" type="line" smooth="yes"/>
      <point x="696.0" y="0.0"/>
      <point x="766.0" y="70.0"/>
      <point x="766" y="120" type="qcurve" smooth="yes"/>
      <point x="766" y="281" type="line" smooth="yes"/>
      <point x="766.0" y="330.25373134328356"/>
      <point x="696.0" y="401.0"/>
      <point x="646" y="401" type="qcurve" smooth="yes"/>
    </contour>
  </outline>
</glyph>
<glyph name="V.alt" format="2">
  <advance width="774"/>
  <outline>
    <contour>
      <point x="54" y="721" type="line"/>
      <point x="54" y="0" type="line"/>
      <point x="166" y="0" type="line"/>
      <point x="777" y="721" type="line"/>
      <point x="670" y="721" type="line"/>
      <point x="544.6268656716418" y="570.2537313432836"/>
      <point x="261.6268656716418" y="242.25373134328356"/>
      <point x="137" y="93" type="qcurve"/>
      <point x="137" y="721" type="line"/>
    </contour>
  </outline>
</glyph>
<glyph name="V.alt3" format="2">
  <advance width="827"/>
  <outline>
    <contour>
      <point x="692" y="720" type="line"/>
      <point x="692" y="81" type="line"/>
      <point x="173" y="81" type="line" smooth="yes"/>
      <point x="157.32835820895522" y="81.0"/>
      <point x="134.0" y="104.32835820895522"/>
      <point x="134" y="120" type="qcurve" smooth="yes"/>
      <point x="134" y="720" type="line"/>
      <point x="53" y="720" type="line"/>
      <point x="53" y="120" type="line" smooth="yes"/>
      <point x="53.0" y="70.0"/>
      <point x="123.0" y="0.0"/>
      <point x="173" y="0" type="qcurve" smooth="yes"/>
      <point x="773" y="0" type="line"/>
      <point x="773" y="720" type="line"/>
    </contour>
  </outline>
</glyph>
<glyph name="W.alt" format="2">
  <advance width="1171"/>
  <outline>
    <contour>
      <point x="1065" y="720" type="line"/>
      <point x="938.8805970149253" y="569.2537313432836"/>
      <point x="656.3731343283582" y="242.25373134328356"/>
      <point x="531" y="93" type="qcurve"/>
      <point x="531" y="442" type="line"/>
      <point x="770" y="720" type="line"/>
      <point x="665" y="720" type="line"/>
      <point x="538.8805970149253" y="569.2537313432836"/>
      <point x="256.3731343283582" y="242.25373134328356"/>
      <point x="131" y="93" type="qcurve"/>
      <point x="131" y="720" type="line"/>
      <point x="49" y="720" type="line"/>
      <point x="49" y="0" type="line"/>
      <point x="161" y="0" type="line"/>
      <point x="449" y="343" type="line"/>
      <point x="449" y="0" type="line"/>
      <point x="561" y="0" type="line"/>
      <point x="1171" y="720" type="line"/>
    </contour>
  </outline>
</glyph>
<glyph name="W.alt4" format="2">
  <advance width="1155"/>
  <outline>
    <contour>
      <point x="1116" y="0" type="line"/>
      <point x="1116" y="720" type="line"/>
      <point x="1034" y="720" type="line"/>
      <point x="1034" y="81" type="line"/>
      <point x="676" y="81" type="line" smooth="yes"/>
      <point x="660.3283582089553" y="81.0"/>
      <point x="638.0" y="104.32835820895522"/>
      <point x="638" y="120" type="qcurve" smooth="yes"/>
      <point x="638" y="720" type="line"/>
      <point x="556" y="720" type="line"/>
      <point x="556" y="81" type="line"/>
      <point x="173" y="81" type="line" smooth="yes"/>
      <point x="158.07462686567163" y="81.0"/>
      <point x="135.0" y="104.32835820895522"/>
      <point x="135" y="120" type="qcurve" smooth="yes"/>
      <point x="135" y="720" type="line"/>
      <point x="53" y="720" type="line"/>
      <point x="53" y="120" type="line" smooth="yes"/>
      <point x="53.0" y="70.0"/>
      <point x="123.74626865671642" y="0.0"/>
      <point x="173" y="0" type="qcurve" smooth="yes"/>
    </contour>
  </outline>
</glyph>
<glyph name="Z.alt" format="2">
  <advance width="818"/>
  <outline>
    <contour>
      <point x="169" y="401" type="line" smooth="yes"/>
      <point x="119.0" y="401.0"/>
      <point x="49.0" y="330.25373134328356"/>
      <point x="49" y="281" type="qcurve" smooth="yes"/>
      <point x="49" y="120" type="line" smooth="yes"/>
      <point x="49.0" y="70.0"/>
      <point x="119.0" y="0.0"/>
      <point x="169" y="0" type="qcurve" smooth="yes"/>
      <point x="769" y="0" type="line"/>
      <point x="769" y="81" type="line"/>
      <point x="169" y="81" type="line" smooth="yes"/>
      <point x="153.32835820895522" y="81.0"/>
      <point x="130.0" y="104.32835820895522"/>
      <point x="130" y="120" type="qcurve" smooth="yes"/>
      <point x="130" y="281" type="line" smooth="yes"/>
      <point x="130.0" y="296.67164179104475"/>
      <point x="153.32835820895522" y="319.0"/>
      <point x="169" y="319" type="qcurve" smooth="yes"/>
      <point x="649" y="319" type="line" smooth="yes"/>
      <point x="699.0" y="319.0"/>
      <point x="769.0" y="389.74626865671644"/>
      <point x="769" y="439" type="qcurve" smooth="yes"/>
      <point x="769" y="600" type="line" smooth="yes"/>
      <point x="769.0" y="650.0"/>
      <point x="699.0" y="720.0"/>
      <point x="649" y="720" type="qcurve" smooth="yes"/>
      <point x="49" y="720" type="line"/>
      <point x="49" y="639" type="line"/>
      <point x="649" y="639" type="line" smooth="yes"/>
      <point x="664.6716417910447" y="639.0"/>
      <point x="687.0" y="615.6716417910447"/>
      <point x="687" y="600" type="qcurve" smooth="yes"/>
      <point x="687" y="439" type="line" smooth="yes"/>
      <point x="687.0" y="423.32835820895525"/>
      <point x="664.6716417910447" y="401.0"/>
      <point x="649" y="401" type="qcurve" smooth="yes"/>
    </contour>
  </outline>
</glyph>
<glyph name="a.sc" format="2">
  <advance width="725"/>
  <outline>
    <contour>
      <point x="174" y="580" type="line" smooth="yes"/>
      <point x="124.0" y="580.0"/>
      <point x="53.0" y="509.0"/>
      <point x="53" y="459" type="qcurve" smooth="yes"/>
      <point x="53" y="0" type="line"/>
      <point x="135" y="0" type="line"/>
      <point x="135" y="160" type="line"/>
      <point x="593" y="160" type="line"/>
      <point x="593" y="0" type="line"/>
      <point x="675" y="0" type="line"/>
      <point x="675" y="459" type="line" smooth="yes"/>
      <point x="675.0" y="509.0"/>
      <point x="604.0" y="580.0"/>
      <point x="554" y="580" type="qcurve" smooth="yes"/>
    </contour>
    <contour>
      <point x="135" y="243" type="line"/>
      <point x="135" y="459" type="line" smooth="yes"/>
      <point x="135.0" y="474.67164179104475"/>
      <point x="158.32835820895522" y="498.0"/>
      <point x="174" y="498" type="qcurve" smooth="yes"/>
      <point x="554" y="498" type="line" smooth="yes"/>
      <point x="569.6716417910447" y="498.0"/>
      <point x="593.0" y="474.67164179104475"/>
      <point x="593" y="459" type="qcurve" smooth="yes"/>
      <point x="593" y="243" type="line"/>
    </contour>
  </outline>
</glyph>
<glyph name="b.sc" format="2">
  <advance width="700"/>
  <outline>
    <contour>
      <point x="611" y="314" type="line"/>
      <point x="616.223880597015" y="325.94029850746267"/>
      <point x="624.0" y="352.82089552238807"/>
      <point x="624" y="367" type="qcurve" smooth="yes"/>
      <point x="624" y="460" type="line" smooth="yes"/>
      <point x="624.0" y="510.0"/>
      <point x="552.7462686567164" y="581.0"/>
      <point x="502" y="581" type="qcurve" smooth="yes"/>
      <point x="54" y="581" type="line"/>
      <point x="54" y="0" type="line"/>
      <point x="534" y="0" type="line" smooth="yes"/>
      <point x="584.0" y="0.0"/>
      <point x="655.0" y="71.0"/>
      <point x="655" y="121" type="qcurve" smooth="yes"/>
      <point x="655" y="207" type="line" smooth="yes"/>
      <point x="655.0" y="232.37313432835822"/>
      <point x="632.9104477611941" y="279.5820895522388"/>
      <point x="615" y="296" type="qcurve"/>
    </contour>
    <contour>
      <point x="502" y="499" type="line" smooth="yes"/>
      <point x="517.6716417910447" y="499.0"/>
      <point x="541.0" y="475.67164179104475"/>
      <point x="541" y="460" type="qcurve" smooth="yes"/>
      <point x="541" y="367" type="line" smooth="yes"/>
      <point x="541.0" y="351.32835820895525"/>
      <point x="517.6716417910447" y="328.0"/>
      <point x="502" y="328" type="qcurve" smooth="yes"/>
      <point x="175" y="328" type="line" smooth="yes"/>
      <point x="159.32835820895522" y="328.0"/>
      <point x="136.0" y="351.32835820895525"/>
      <point x="136" y="367" type="qcurve" smooth="yes"/>
      <point x="136" y="460" type="line" smooth="yes"/>
      <point x="136.0" y="475.67164179104475"/>
      <point x="159.32835820895522" y="499.0"/>
      <point x="175" y="499" type="qcurve" smooth="yes"/>
    </contour>
    <contour>
      <point x="573" y="121" type="line" smooth="yes"/>
      <point x="573.0" y="105.32835820895522"/>
      <point x="549.6716417910447" y="82.0"/>
      <point x="534" y="82" type="qcurve" smooth="yes"/>
      <point x="175" y="82" type="line" smooth="yes"/>
      <point x="159.32835820895522" y="82.0"/>
      <point x="136.0" y="105.32835820895522"/>
      <point x="136" y="121" type="qcurve" smooth="yes"/>
      <point x="136" y="207" type="line" smooth="yes"/>
      <point x="136.0" y="222.67164179104478"/>
      <point x="159.32835820895522" y="246.0"/>
      <point x="175" y="246" type="qcurve" smooth="yes"/>
      <point x="534" y="246" type="line" smooth="yes"/>
      <point x="549.6716417910447" y="246.0"/>
      <point x="573.0" y="222.67164179104478"/>
      <point x="573" y="207" type="qcurve" smooth="yes"/>
    </contour>
  </outline>
</glyph>
<glyph name="c.sc" format="2">
  <advance width="693"/>
  <outline>
    <contour>
      <point x="640" y="499" type="line"/>
      <point x="640" y="581" type="line"/>
      <point x="172" y="581" type="line" smooth="yes"/>
      <point x="122.0" y="581.0"/>
      <point x="51.0" y="510.0"/>
      <point x="51" y="460" type="qcurve" smooth="yes"/>
      <point x="51" y="121" type="line" smooth="yes"/>
      <point x="51.0" y="71.0"/>
      <point x="122.0" y="0.0"/>
      <point x="172" y="0" type="qcurve" smooth="yes"/>
      <point x="640" y="0" type="line"/>
      <point x="640" y="82" type="line"/>
      <point x="172" y="82" type="line" smooth="yes"/>
      <point x="156.32835820895522" y="82.0"/>
      <point x="133.0" y="105.32835820895522"/>
      <point x="133" y="121" type="qcurve" smooth="yes"/>
      <point x="133" y="460" type="line" smooth="yes"/>
      <point x="133.0" y="475.67164179104475"/>
      <point x="156.32835820895522" y="499.0"/>
      <point x="172" y="499" type="qcurve" smooth="yes"/>
    </contour>
  </outline>
</glyph>
<glyph name="d.sc" format="2">
  <advance width="705"/>
  <outline>
    <contour>
      <point x="54" y="581" type="line"/>
      <point x="54" y="0" type="line"/>
      <point x="534" y="0" type="line" smooth="yes"/>
      <point x="584.0" y="0.0"/>
      <point x="655.0" y="71.0"/>
      <point x="655" y="121" type="qcurve" smooth="yes"/>
      <point x="655" y="460" type="line" smooth="yes"/>
      <point x="655.0" y="510.0"/>
      <point x="584.0" y="581.0"/>
      <point x="534" y="581" type="qcurve" smooth="yes"/>
    </contour>
    <contour>
      <point x="573" y="121" type="line" smooth="yes"/>
      <point x="573.0" y="105.32835820895522"/>
      <point x="549.6716417910447" y="82.0"/>
      <point x="534" y="82" type="qcurve" smooth="yes"/>
      <point x="175" y="82" type="line" smooth="yes"/>
      <point x="159.32835820895522" y="82.0"/>
      <point x="136.0" y="105.32835820895522"/>
      <point x="136" y="121" type="qcurve" smooth="yes"/>
      <point x="136" y="460" type="line" smooth="yes"/>
      <point x="136.0" y="475.67164179104475"/>
      <point x="159.32835820895522" y="499.0"/>
      <point x="175" y="499" type="qcurve" smooth="yes"/>
      <point x="534" y="499" type="line" smooth="yes"/>
      <point x="549.6716417910447" y="499.0"/>
      <point x="573.0" y="475.67164179104475"/>
      <point x="573" y="460" type="qcurve" smooth="yes"/>
    </contour>
  </outline>
</glyph>
<glyph name="g.sc" format="2">
  <advance width="690"/>
  <outline>
    <contour>
      <point x="642" y="460" type="line" smooth="yes"/>
      <point x="642.0" y="510.0"/>
      <point x="570.7462686567164" y="581.0"/>
      <point x="520" y="581" type="qcurve" smooth="yes"/>
      <point x="172" y="581" type="line" smooth="yes"/>
      <point x="122.0" y="581.0"/>
      <point x="51.0" y="510.0"/>
      <point x="51" y="460" type="qcurve" smooth="yes"/>
      <point x="51" y="121" type="line" smooth="yes"/>
      <point x="51.0" y="71.0"/>
      <point x="122.0" y="0.0"/>
      <point x="172" y="0" type="qcurve" smooth="yes"/>
      <point x="520" y="0" type="line" smooth="yes"/>
      <point x="570.7462686567164" y="0.0"/>
      <point x="642.0" y="71.0"/>
      <point x="642" y="121" type="qcurve" smooth="yes"/>
      <point x="642" y="299" type="line"/>
      <point x="380" y="299" type="line"/>
      <point x="380" y="217" type="line"/>
      <point x="559" y="217" type="line"/>
      <point x="559" y="121" type="line" smooth="yes"/>
      <point x="559.0" y="105.32835820895522"/>
      <point x="536.4179104477612" y="82.0"/>
      <point x="520" y="82" type="qcurve" smooth="yes"/>
      <point x="172" y="82" type="line" smooth="yes"/>
      <point x="156.32835820895522" y="82.0"/>
      <point x="133.0" y="105.32835820895522"/>
      <point x="133" y="121" type="qcurve" smooth="yes"/>
      <point x="133" y="460" type="line" smooth="yes"/>
      <point x="133.0" y="475.67164179104475"/>
      <point x="156.32835820895522" y="499.0"/>
      <point x="172" y="499" type="qcurve" smooth="yes"/>
      <point x="520" y="499" type="line" smooth="yes"/>
      <point x="536.4179104477612" y="499.0"/>
      <point x="559.0" y="475.67164179104475"/>
      <point x="559" y="460" type="qcurve" smooth="yes"/>
      <point x="559" y="446" type="line"/>
      <point x="642" y="446" type="line"/>
    </contour>
  </outline>
</glyph>
<glyph name="j.sc" format="2">
  <advance width="657"/>
  <outline>
    <contour>
      <point x="524" y="121" type="line" smooth="yes"/>
      <point x="524.0" y="105.32835820895522"/>
      <point x="500.67164179104475" y="82.0"/>
      <point x="485" y="82" type="qcurve" smooth="yes"/>
      <point x="126" y="82" type="line" smooth="yes"/>
      <point x="110.32835820895522" y="82.0"/>
      <point x="87.0" y="105.32835820895522"/>
      <point x="87" y="121" type="qcurve" smooth="yes"/>
      <point x="87" y="169" type="line"/>
      <point x="5" y="169" type="line"/>
      <point x="5" y="121" type="line" smooth="yes"/>
      <point x="5.0" y="71.0"/>
      <point x="76.0" y="0.0"/>
      <point x="126" y="0" type="qcurve" smooth="yes"/>
      <point x="485" y="0" type="line" smooth="yes"/>
      <point x="535.0" y="0.0"/>
      <point x="606.0" y="71.0"/>
      <point x="606" y="121" type="qcurve" smooth="yes"/>
      <point x="606" y="580" type="line"/>
      <point x="524" y="580" type="line"/>
    </contour>
  </outline>
</glyph>
<glyph name="m.sc" format="2">
  <advance width="824"/>
  <outline>
    <contour>
      <point x="415" y="223" type="line"/>
      <point x="164" y="581" type="line"/>
      <point x="54" y="581" type="line"/>
      <point x="54" y="0" type="line"/>
      <point x="136" y="0" type="line"/>
      <point x="136" y="505" type="line"/>
      <point x="415" y="107" type="line"/>
      <point x="479.92537313432837" y="198.7910447761194"/>
      <point x="631.5671641791045" y="414.70149253731347"/>
      <point x="695" y="505" type="qcurve"/>
      <point x="695" y="0" type="line"/>
      <point x="777" y="0" type="line"/>
      <point x="777" y="581" type="line"/>
      <point x="664" y="581" type="line"/>
    </contour>
  </outline>
</glyph>
<glyph name="nine.alt" format="2">
  <advance width="784"/>
  <outline>
    <contour>
      <point x="134" y="719" type="line" smooth="yes"/>
      <point x="83.25373134328359" y="719.0"/>
      <point x="12.0" y="647.7462686567164"/>
      <point x="12" y="597" type="qcurve" smooth="yes"/>
      <point x="12" y="424" type="line" smooth="yes"/>
      <point x="12.0" y="374.0"/>
      <point x="83.25373134328359" y="303.0"/>
      <point x="134" y="303" type="qcurve" smooth="yes"/>
      <point x="619" y="303" type="line" smooth="yes"/>
      <point x="634.6716417910447" y="303.0"/>
      <point x="658.0" y="279.67164179104475"/>
      <point x="658" y="264" type="qcurve" smooth="yes"/>
      <point x="658" y="0" type="line"/>
      <point x="740" y="0" type="line"/>
      <point x="740" y="597" type="line" smooth="yes"/>
      <point x="740.0" y="647.7462686567164"/>
      <point x="669.0" y="719.0"/>
      <point x="619" y="719" type="qcurve" smooth="yes"/>
    </contour>
    <contour>
      <point x="658" y="385" type="line"/>
      <point x="134" y="385" type="line" smooth="yes"/>
      <point x="118.32835820895522" y="385.0"/>
      <point x="95.0" y="408.32835820895525"/>
      <point x="95" y="424" type="qcurve" smooth="yes"/>
      <point x="95" y="597" type="line" smooth="yes"/>
      <point x="95.0" y="612.6716417910447"/>
      <point x="118.32835820895522" y="636.0"/>
      <point x="134" y="636" type="qcurve" smooth="yes"/>
      <point x="619" y="636" type="line" smooth="yes"/>
      <point x="634.6716417910447" y="636.0"/>
      <point x="658.0" y="612.6716417910447"/>
      <point x="658" y="597" type="qcurve" smooth="yes"/>
    </contour>
  </outline>
</glyph>
<glyph name="p.sc" format="2">
  <advance width="660"/>
  <outline>
    <contour>
      <point x="54" y="580" type="line"/>
      <point x="54" y="0" type="line"/>
      <point x="136" y="0" type="line"/>
      <point x="136" y="212" type="line"/>
      <point x="147.19402985074626" y="210.50746268656715"/>
      <point x="168.53731343283582" y="208.0"/>
      <point x="176" y="208" type="qcurve" smooth="yes"/>
      <point x="524" y="208" type="line" smooth="yes"/>
      <point x="574.0" y="208.0"/>
      <point x="645.0" y="279.74626865671644"/>
      <point x="645" y="329" type="qcurve" smooth="yes"/>
      <point x="645" y="459" type="line" smooth="yes"/>
      <point x="645.0" y="508.25373134328356"/>
      <point x="574.0" y="580.0"/>
      <point x="524" y="580" type="qcurve" smooth="yes"/>
    </contour>
    <contour>
      <point x="563" y="329" type="line" smooth="yes"/>
      <point x="563.0" y="313.32835820895525"/>
      <point x="539.6716417910447" y="290.0"/>
      <point x="524" y="290" type="qcurve" smooth="yes"/>
      <point x="176" y="290" type="line" smooth="yes"/>
      <point x="159.5820895522388" y="290.0"/>
      <point x="136.0" y="313.32835820895525"/>
      <point x="136" y="329" type="qcurve" smooth="yes"/>
      <point x="136" y="459" type="line" smooth="yes"/>
      <point x="136.0" y="474.67164179104475"/>
      <point x="159.5820895522388" y="498.0"/>
      <point x="176" y="498" type="qcurve" smooth="yes"/>
      <point x="524" y="498" type="line" smooth="yes"/>
      <point x="539.6716417910447" y="498.0"/>
      <point x="563.0" y="474.67164179104475"/>
      <point x="563" y="459" type="qcurve" smooth="yes"/>
    </contour>
  </outline>
</glyph>
<glyph name="q.sc" format="2">
  <advance width="770"/>
  <outline>
    <contour>
      <point x="638" y="82" type="line"/>
      <point x="639.4925373134329" y="93.19402985074626"/>
      <point x="643.0" y="114.28358208955224"/>
      <point x="643" y="121" type="qcurve" smooth="yes"/>
      <point x="643" y="459" type="line" smooth="yes"/>
      <point x="643.0" y="509.0"/>
      <point x="571.7462686567164" y="580.0"/>
      <point x="521" y="580" type="qcurve" smooth="yes"/>
      <point x="173" y="580" type="line" smooth="yes"/>
      <point x="123.0" y="580.0"/>
      <point x="52.0" y="509.0"/>
      <point x="52" y="459" type="qcurve" smooth="yes"/>
      <point x="52" y="121" type="line" smooth="yes"/>
      <point x="52.0" y="71.0"/>
      <point x="123.0" y="0.0"/>
      <point x="173" y="0" type="qcurve" smooth="yes"/>
      <point x="737" y="0" type="line"/>
      <point x="737" y="82" type="line"/>
    </contour>
    <contour>
      <point x="173" y="82" type="line" smooth="yes"/>
      <point x="157.32835820895522" y="82.0"/>
      <point x="134.0" y="105.32835820895522"/>
      <point x="134" y="121" type="qcurve" smooth="yes"/>
      <point x="134" y="459" type="line" smooth="yes"/>
      <point x="134.0" y="474.67164179104475"/>
      <point x="157.32835820895522" y="498.0"/>
      <point x="173" y="498" type="qcurve" smooth="yes"/>
      <point x="521" y="498" type="line" smooth="yes"/>
      <point x="536.6716417910447" y="498.0"/>
      <point x="560.0" y="474.67164179104475"/>
      <point x="560" y="459" type="qcurve" smooth="yes"/>
      <point x="560" y="121" type="line" smooth="yes"/>
      <point x="560.0" y="105.32835820895522"/>
      <point x="536.6716417910447" y="82.0"/>
      <point x="521" y="82" type="qcurve" smooth="yes"/>
    </contour>
  </outline>
</glyph>
<glyph name="question.alt" format="2">
  <advance width="667"/>
  <outline>
    <contour>
      <point x="146" y="720" type="line" smooth="yes"/>
      <point x="104.2089552238806" y="720.0"/>
      <point x="37.44776119402985" y="657.8059701492538"/>
      <point x="27" y="619" type="qcurve"/>
      <point x="27" y="523" type="line"/>
      <point x="109" y="523" type="line"/>
      <point x="109" y="637" type="line"/>
      <point x="526" y="637" type="line" smooth="yes"/>
      <point x="541.6716417910447" y="637.0"/>
      <point x="565.0" y="613.6716417910447"/>
      <point x="565" y="598" type="qcurve" smooth="yes"/>
      <point x="565" y="404" type="line" smooth="yes"/>
      <point x="565.0" y="388.32835820895525"/>
      <point x="541.6716417910447" y="365.0"/>
      <point x="526" y="365" type="qcurve" smooth="yes"/>
      <point x="326" y="365" type="line" smooth="yes"/>
      <point x="275.25373134328356" y="365.0"/>
      <point x="204.0" y="294.74626865671644"/>
      <point x="204" y="244" type="qcurve" smooth="yes"/>
      <point x="204" y="151" type="line"/>
      <point x="287" y="151" type="line"/>
      <point x="287" y="244" type="line" smooth="yes"/>
      <point x="287.0" y="259.67164179104475"/>
      <point x="309.5820895522388" y="283.0"/>
      <point x="326" y="283" type="qcurve" smooth="yes"/>
      <point x="526" y="283" type="line" smooth="yes"/>
      <point x="576.0" y="283.0"/>
      <point x="647.0" y="354.0"/>
      <point x="647" y="404" type="qcurve" smooth="yes"/>
      <point x="647" y="598" type="line" smooth="yes"/>
      <point x="647.0" y="648.7462686567164"/>
      <point x="576.0" y="720.0"/>
      <point x="526" y="720" type="qcurve" smooth="yes"/>
    </contour>
    <contour>
      <point x="287" y="0" type="line"/>
      <point x="287" y="82" type="line"/>
      <point x="204" y="82" type="line"/>
      <point x="204" y="0" type="line"/>
    </contour>
  </outline>
</glyph>
<glyph name="r.sc" format="2">
  <advance width="700"/>
  <outline>
    <contour>
      <point x="644" y="459" type="line" smooth="yes"/>
      <point x="644.0" y="508.25373134328356"/>
      <point x="573.7462686567164" y="580.0"/>
      <point x="523" y="580" type="qcurve" smooth="yes"/>
      <point x="54" y="580" type="line"/>
      <point x="54" y="0" type="line"/>
      <point x="136" y="0" type="line"/>
      <point x="136" y="208" type="line"/>
      <point x="314" y="208" type="line"/>
      <point x="542" y="0" type="line"/>
      <point x="647" y="0" type="line"/>
      <point x="416" y="208" type="line"/>
      <point x="523" y="208" type="line" smooth="yes"/>
      <point x="573.7462686567164" y="208.0"/>
      <point x="644.0" y="279.74626865671644"/>
      <point x="644" y="329" type="qcurve" smooth="yes"/>
    </contour>
    <contour>
      <point x="175" y="290" type="line" smooth="yes"/>
      <point x="159.32835820895522" y="290.0"/>
      <point x="136.0" y="313.32835820895525"/>
      <point x="136" y="329" type="qcurve" smooth="yes"/>
      <point x="136" y="459" type="line" smooth="yes"/>
      <point x="136.0" y="474.67164179104475"/>
      <point x="159.32835820895522" y="498.0"/>
      <point x="175" y="498" type="qcurve" smooth="yes"/>
      <point x="523" y="498" type="line" smooth="yes"/>
      <point x="538.6716417910447" y="498.0"/>
      <point x="562.0" y="474.67164179104475"/>
      <point x="562" y="459" type="qcurve" smooth="yes"/>
      <point x="562" y="329" type="line" smooth="yes"/>
      <point x="562.0" y="313.32835820895525"/>
      <point x="538.6716417910447" y="290.0"/>
      <point x="523" y="290" type="qcurve" smooth="yes"/>
    </contour>
  </outline>
</glyph>
<glyph name="s.sc" format="2">
  <advance width="687"/>
  <outline>
    <contour>
      <point x="640" y="459" type="line" smooth="yes"/>
      <point x="640.0" y="509.0"/>
      <point x="568.7462686567164" y="580.0"/>
      <point x="518" y="580" type="qcurve" smooth="yes"/>
      <point x="170" y="580" type="line" smooth="yes"/>
      <point x="120.0" y="580.0"/>
      <point x="49.0" y="509.0"/>
      <point x="49" y="459" type="qcurve" smooth="yes"/>
      <point x="49" y="370" type="line" smooth="yes"/>
      <point x="49.0" y="320.0"/>
      <point x="120.0" y="249.0"/>
      <point x="170" y="249" type="qcurve" smooth="yes"/>
      <point x="518" y="249" type="line" smooth="yes"/>
      <point x="533.6716417910447" y="249.0"/>
      <point x="557.0" y="225.67164179104478"/>
      <point x="557" y="210" type="qcurve" smooth="yes"/>
      <point x="557" y="121" type="line" smooth="yes"/>
      <point x="557.0" y="105.32835820895522"/>
      <point x="533.6716417910447" y="82.0"/>
      <point x="518" y="82" type="qcurve" smooth="yes"/>
      <point x="170" y="82" type="line" smooth="yes"/>
      <point x="154.32835820895522" y="82.0"/>
      <point x="131.0" y="105.32835820895522"/>
      <point x="131" y="121" type="qcurve" smooth="yes"/>
      <point x="131" y="139" type="line"/>
      <point x="49" y="139" type="line"/>
      <point x="49" y="121" type="line" smooth="yes"/>
      <point x="49.0" y="71.0"/>
      <point x="120.0" y="0.0"/>
      <point x="170" y="0" type="qcurve" smooth="yes"/>
      <point x="518" y="0" type="line" smooth="yes"/>
      <point x="568.7462686567164" y="0.0"/>
      <point x="640.0" y="71.0"/>
      <point x="640" y="121" type="qcurve" smooth="yes"/>
      <point x="640" y="210" type="line" smooth="yes"/>
      <point x="640.0" y="260.0"/>
      <point x="568.7462686567164" y="331.0"/>
      <point x="518" y="331" type="qcurve" smooth="yes"/>
      <point x="170" y="331" type="line" smooth="yes"/>
      <point x="154.32835820895522" y="331.0"/>
      <point x="131.0" y="354.32835820895525"/>
      <point x="131" y="370" type="qcurve" smooth="yes"/>
      <point x="131" y="459" type="line" smooth="yes"/>
      <point x="131.0" y="474.67164179104475"/>
      <point x="154.32835820895522" y="498.0"/>
      <point x="170" y="498" type="qcurve" smooth="yes"/>
      <point x="518" y="498" type="line" smooth="yes"/>
      <point x="533.6716417910447" y="498.0"/>
      <point x="557.0" y="474.67164179104475"/>
      <point x="557" y="459" type="qcurve" smooth="yes"/>
      <point x="557" y="441" type="line"/>
      <point x="640" y="441" type="line"/>
    </contour>
  </outline>
</glyph>
